<mxfile host="drawio-plugin" modified="2021-12-02T02:16:06.410Z" agent="5.0 (Windows NT 6.2; Win64; x64) AppleWebKit/537.36 (KHTML, like Gecko) Chrome/89.0.4389.114 Safari/537.36" etag="DV4LchHGacae-pfrHxby" compressed="true" version="14.7.4" type="embed" pages="3"><diagram id="Nq6pSUNswCohd0AL3jUL" name="Base de Datos"><mxGraphModel dx="1778" dy="1194" grid="1" gridSize="10" guides="1" tooltips="1" connect="1" arrows="1" fold="1" page="1" pageScale="1" pageWidth="850" pageHeight="1100" math="0" shadow="0"><root><mxCell id="0"/><mxCell id="1" parent="0"/><mxCell id="_PQUibNGBd2o8KV1kYcL-2" value="Clientes" style="swimlane;fontStyle=0;childLayout=stackLayout;horizontal=1;startSize=20;fillColor=#d5e8d4;horizontalStack=0;resizeParent=1;resizeParentMax=0;resizeLast=0;collapsible=1;marginBottom=0;strokeColor=#82b366;" parent="1" vertex="1"><mxGeometry x="40" y="80" width="220" height="644" as="geometry"><mxRectangle x="30" y="80" width="80" height="26" as="alternateBounds"/></mxGeometry></mxCell><mxCell id="_PQUibNGBd2o8KV1kYcL-3" value="PK IdUsuario: autoincrement int" style="text;align=left;verticalAlign=top;spacingLeft=4;spacingRight=4;overflow=hidden;rotatable=0;points=[[0,0.5],[1,0.5]];portConstraint=eastwest;fillColor=#f8cecc;strokeColor=#b85450;" parent="_PQUibNGBd2o8KV1kYcL-2" vertex="1"><mxGeometry y="20" width="220" height="26" as="geometry"/></mxCell><mxCell id="_PQUibNGBd2o8KV1kYcL-4" value="Nombre: varchar(30)" style="text;align=left;verticalAlign=top;spacingLeft=4;spacingRight=4;overflow=hidden;rotatable=0;points=[[0,0.5],[1,0.5]];portConstraint=eastwest;fillColor=#f5f5f5;strokeColor=#666666;fontColor=#333333;" parent="_PQUibNGBd2o8KV1kYcL-2" vertex="1"><mxGeometry y="46" width="220" height="26" as="geometry"/></mxCell><mxCell id="_PQUibNGBd2o8KV1kYcL-6" value="ApellidoPaterno: varchar(30)" style="text;strokeColor=#666666;fillColor=#f5f5f5;align=left;verticalAlign=top;spacingLeft=4;spacingRight=4;overflow=hidden;rotatable=0;points=[[0,0.5],[1,0.5]];portConstraint=eastwest;fontColor=#333333;" parent="_PQUibNGBd2o8KV1kYcL-2" vertex="1"><mxGeometry y="72" width="220" height="26" as="geometry"/></mxCell><mxCell id="_PQUibNGBd2o8KV1kYcL-5" value="ApellidoMaterno: varchar(30)" style="text;strokeColor=#666666;fillColor=#f5f5f5;align=left;verticalAlign=top;spacingLeft=4;spacingRight=4;overflow=hidden;rotatable=0;points=[[0,0.5],[1,0.5]];portConstraint=eastwest;fontColor=#333333;" parent="_PQUibNGBd2o8KV1kYcL-2" vertex="1"><mxGeometry y="98" width="220" height="26" as="geometry"/></mxCell><mxCell id="pYLxVfWXKtCvC9hSivpm-1" value="Domicilio: varchar(150)" style="text;strokeColor=#666666;fillColor=#f5f5f5;align=left;verticalAlign=top;spacingLeft=4;spacingRight=4;overflow=hidden;rotatable=0;points=[[0,0.5],[1,0.5]];portConstraint=eastwest;fontColor=#333333;" parent="_PQUibNGBd2o8KV1kYcL-2" vertex="1"><mxGeometry y="124" width="220" height="26" as="geometry"/></mxCell><mxCell id="g_30O8mzLaZnI9dmomwN-2" value="FechaNacimiento: dateTime" style="text;strokeColor=#666666;fillColor=#f5f5f5;align=left;verticalAlign=top;spacingLeft=4;spacingRight=4;overflow=hidden;rotatable=0;points=[[0,0.5],[1,0.5]];portConstraint=eastwest;fontColor=#333333;" parent="_PQUibNGBd2o8KV1kYcL-2" vertex="1"><mxGeometry y="150" width="220" height="26" as="geometry"/></mxCell><mxCell id="_PQUibNGBd2o8KV1kYcL-7" value="Telefono: varchar(10)" style="text;strokeColor=#666666;fillColor=#f5f5f5;align=left;verticalAlign=top;spacingLeft=4;spacingRight=4;overflow=hidden;rotatable=0;points=[[0,0.5],[1,0.5]];portConstraint=eastwest;fontColor=#333333;" parent="_PQUibNGBd2o8KV1kYcL-2" vertex="1"><mxGeometry y="176" width="220" height="26" as="geometry"/></mxCell><mxCell id="_PQUibNGBd2o8KV1kYcL-10" value="NombreContacto: varchar(30)" style="text;strokeColor=#666666;fillColor=#f5f5f5;align=left;verticalAlign=top;spacingLeft=4;spacingRight=4;overflow=hidden;rotatable=0;points=[[0,0.5],[1,0.5]];portConstraint=eastwest;fontColor=#333333;" parent="_PQUibNGBd2o8KV1kYcL-2" vertex="1"><mxGeometry y="202" width="220" height="26" as="geometry"/></mxCell><mxCell id="_PQUibNGBd2o8KV1kYcL-14" value="TelefonoContacto: varchar(10)" style="text;strokeColor=#666666;fillColor=#f5f5f5;align=left;verticalAlign=top;spacingLeft=4;spacingRight=4;overflow=hidden;rotatable=0;points=[[0,0.5],[1,0.5]];portConstraint=eastwest;fontColor=#333333;" parent="_PQUibNGBd2o8KV1kYcL-2" vertex="1"><mxGeometry y="228" width="220" height="26" as="geometry"/></mxCell><mxCell id="_PQUibNGBd2o8KV1kYcL-13" value="Foto: blob" style="text;strokeColor=#666666;fillColor=#f5f5f5;align=left;verticalAlign=top;spacingLeft=4;spacingRight=4;overflow=hidden;rotatable=0;points=[[0,0.5],[1,0.5]];portConstraint=eastwest;fontColor=#333333;" parent="_PQUibNGBd2o8KV1kYcL-2" vertex="1"><mxGeometry y="254" width="220" height="26" as="geometry"/></mxCell><mxCell id="_PQUibNGBd2o8KV1kYcL-12" value="CondicionEspecial: bool" style="text;strokeColor=#666666;fillColor=#f5f5f5;align=left;verticalAlign=top;spacingLeft=4;spacingRight=4;overflow=hidden;rotatable=0;points=[[0,0.5],[1,0.5]];portConstraint=eastwest;fontColor=#333333;" parent="_PQUibNGBd2o8KV1kYcL-2" vertex="1"><mxGeometry y="280" width="220" height="26" as="geometry"/></mxCell><mxCell id="_PQUibNGBd2o8KV1kYcL-82" value="FechaUltimoAcceso: datetime" style="text;strokeColor=#666666;fillColor=#f5f5f5;align=left;verticalAlign=top;spacingLeft=4;spacingRight=4;overflow=hidden;rotatable=0;points=[[0,0.5],[1,0.5]];portConstraint=eastwest;fontColor=#333333;" parent="_PQUibNGBd2o8KV1kYcL-2" vertex="1"><mxGeometry y="306" width="220" height="26" as="geometry"/></mxCell><mxCell id="KNyopnUMQbpDLsZ1oLQf-1" value="MontoUltimoPago: decimal" style="text;strokeColor=#666666;fillColor=#f5f5f5;align=left;verticalAlign=top;spacingLeft=4;spacingRight=4;overflow=hidden;rotatable=0;points=[[0,0.5],[1,0.5]];portConstraint=eastwest;fontColor=#333333;" parent="_PQUibNGBd2o8KV1kYcL-2" vertex="1"><mxGeometry y="332" width="220" height="26" as="geometry"/></mxCell><mxCell id="g_30O8mzLaZnI9dmomwN-1" value="Activo: bool" style="text;strokeColor=#666666;fillColor=#f5f5f5;align=left;verticalAlign=top;spacingLeft=4;spacingRight=4;overflow=hidden;rotatable=0;points=[[0,0.5],[1,0.5]];portConstraint=eastwest;fontColor=#333333;" parent="_PQUibNGBd2o8KV1kYcL-2" vertex="1"><mxGeometry y="358" width="220" height="26" as="geometry"/></mxCell><mxCell id="y9ImKeT9CvottiBeOZA1-15" value="FechaVencimientoPago: datetime&#10;" style="text;strokeColor=#666666;fillColor=#f5f5f5;align=left;verticalAlign=top;spacingLeft=4;spacingRight=4;overflow=hidden;rotatable=0;points=[[0,0.5],[1,0.5]];portConstraint=eastwest;fontColor=#333333;" parent="_PQUibNGBd2o8KV1kYcL-2" vertex="1"><mxGeometry y="384" width="220" height="26" as="geometry"/></mxCell><mxCell id="_PQUibNGBd2o8KV1kYcL-84" value="DeudaCliente: decimal" style="text;strokeColor=#666666;fillColor=#f5f5f5;align=left;verticalAlign=top;spacingLeft=4;spacingRight=4;overflow=hidden;rotatable=0;points=[[0,0.5],[1,0.5]];portConstraint=eastwest;fontColor=#333333;" parent="_PQUibNGBd2o8KV1kYcL-2" vertex="1"><mxGeometry y="410" width="220" height="26" as="geometry"/></mxCell><mxCell id="fENOPF4-qNj1apxuuCuR-1" value="MedioConocio: varchar(100)" style="text;strokeColor=#666666;fillColor=#f5f5f5;align=left;verticalAlign=top;spacingLeft=4;spacingRight=4;overflow=hidden;rotatable=0;points=[[0,0.5],[1,0.5]];portConstraint=eastwest;fontColor=#333333;" parent="_PQUibNGBd2o8KV1kYcL-2" vertex="1"><mxGeometry y="436" width="220" height="26" as="geometry"/></mxCell><mxCell id="INk3ibeJJwaDg9ptuclo-2" value="ClasesTotalesDisponibles: int" style="text;strokeColor=#666666;fillColor=#f5f5f5;align=left;verticalAlign=top;spacingLeft=4;spacingRight=4;overflow=hidden;rotatable=0;points=[[0,0.5],[1,0.5]];portConstraint=eastwest;fontColor=#333333;" parent="_PQUibNGBd2o8KV1kYcL-2" vertex="1"><mxGeometry y="462" width="220" height="26" as="geometry"/></mxCell><mxCell id="etsHt23ldngnbve_LG4j-4" value="ClasesSemanaDisponibles: int" style="text;strokeColor=#666666;fillColor=#f5f5f5;align=left;verticalAlign=top;spacingLeft=4;spacingRight=4;overflow=hidden;rotatable=0;points=[[0,0.5],[1,0.5]];portConstraint=eastwest;fontColor=#333333;" parent="_PQUibNGBd2o8KV1kYcL-2" vertex="1"><mxGeometry y="488" width="220" height="26" as="geometry"/></mxCell><mxCell id="KNyopnUMQbpDLsZ1oLQf-2" value="Descuento: decimal" style="text;strokeColor=#666666;fillColor=#f5f5f5;align=left;verticalAlign=top;spacingLeft=4;spacingRight=4;overflow=hidden;rotatable=0;points=[[0,0.5],[1,0.5]];portConstraint=eastwest;fontColor=#333333;" parent="_PQUibNGBd2o8KV1kYcL-2" vertex="1"><mxGeometry y="514" width="220" height="26" as="geometry"/></mxCell><mxCell id="yWBfTf_NXG0LEtlICN3P-1" value="Niño: bool" style="text;strokeColor=#666666;fillColor=#f5f5f5;align=left;verticalAlign=top;spacingLeft=4;spacingRight=4;overflow=hidden;rotatable=0;points=[[0,0.5],[1,0.5]];portConstraint=eastwest;fontColor=#333333;" parent="_PQUibNGBd2o8KV1kYcL-2" vertex="1"><mxGeometry y="540" width="220" height="26" as="geometry"/></mxCell><mxCell id="_PQUibNGBd2o8KV1kYcL-94" value="FK IdPaquete: int" style="text;strokeColor=#6c8ebf;fillColor=#dae8fc;align=left;verticalAlign=top;spacingLeft=4;spacingRight=4;overflow=hidden;rotatable=0;points=[[0,0.5],[1,0.5]];portConstraint=eastwest;" parent="_PQUibNGBd2o8KV1kYcL-2" vertex="1"><mxGeometry y="566" width="220" height="26" as="geometry"/></mxCell><mxCell id="_PQUibNGBd2o8KV1kYcL-15" value="FK IdTipoCliente: int" style="text;strokeColor=#6c8ebf;fillColor=#dae8fc;align=left;verticalAlign=top;spacingLeft=4;spacingRight=4;overflow=hidden;rotatable=0;points=[[0,0.5],[1,0.5]];portConstraint=eastwest;" parent="_PQUibNGBd2o8KV1kYcL-2" vertex="1"><mxGeometry y="592" width="220" height="26" as="geometry"/></mxCell><mxCell id="g_30O8mzLaZnI9dmomwN-4" value="FK IdLocker: int" style="text;strokeColor=#6c8ebf;fillColor=#dae8fc;align=left;verticalAlign=top;spacingLeft=4;spacingRight=4;overflow=hidden;rotatable=0;points=[[0,0.5],[1,0.5]];portConstraint=eastwest;" parent="_PQUibNGBd2o8KV1kYcL-2" vertex="1"><mxGeometry y="618" width="220" height="26" as="geometry"/></mxCell><mxCell id="_PQUibNGBd2o8KV1kYcL-31" value="Instructores" style="swimlane;fontStyle=0;childLayout=stackLayout;horizontal=1;startSize=20;fillColor=#d5e8d4;horizontalStack=0;resizeParent=1;resizeParentMax=0;resizeLast=0;collapsible=1;marginBottom=0;strokeColor=#82b366;" parent="1" vertex="1"><mxGeometry x="520" y="80" width="220" height="540" as="geometry"><mxRectangle x="320" y="80" width="100" height="26" as="alternateBounds"/></mxGeometry></mxCell><mxCell id="_PQUibNGBd2o8KV1kYcL-32" value="PK IdInstructor: autoincrement int" style="text;strokeColor=#b85450;fillColor=#f8cecc;align=left;verticalAlign=top;spacingLeft=4;spacingRight=4;overflow=hidden;rotatable=0;points=[[0,0.5],[1,0.5]];portConstraint=eastwest;" parent="_PQUibNGBd2o8KV1kYcL-31" vertex="1"><mxGeometry y="20" width="220" height="26" as="geometry"/></mxCell><mxCell id="_PQUibNGBd2o8KV1kYcL-33" value="Nombre: varchar(30)" style="text;strokeColor=#666666;fillColor=#f5f5f5;align=left;verticalAlign=top;spacingLeft=4;spacingRight=4;overflow=hidden;rotatable=0;points=[[0,0.5],[1,0.5]];portConstraint=eastwest;fontColor=#333333;" parent="_PQUibNGBd2o8KV1kYcL-31" vertex="1"><mxGeometry y="46" width="220" height="26" as="geometry"/></mxCell><mxCell id="_PQUibNGBd2o8KV1kYcL-37" value="ApellidoPaterno: varchar(30)" style="text;strokeColor=#666666;fillColor=#f5f5f5;align=left;verticalAlign=top;spacingLeft=4;spacingRight=4;overflow=hidden;rotatable=0;points=[[0,0.5],[1,0.5]];portConstraint=eastwest;fontColor=#333333;" parent="_PQUibNGBd2o8KV1kYcL-31" vertex="1"><mxGeometry y="72" width="220" height="26" as="geometry"/></mxCell><mxCell id="_PQUibNGBd2o8KV1kYcL-38" value="ApellidoMaterno: varchar(30)" style="text;strokeColor=#666666;fillColor=#f5f5f5;align=left;verticalAlign=top;spacingLeft=4;spacingRight=4;overflow=hidden;rotatable=0;points=[[0,0.5],[1,0.5]];portConstraint=eastwest;fontColor=#333333;" parent="_PQUibNGBd2o8KV1kYcL-31" vertex="1"><mxGeometry y="98" width="220" height="26" as="geometry"/></mxCell><mxCell id="_PQUibNGBd2o8KV1kYcL-40" value="FechaNacimiento: dateTime" style="text;strokeColor=#666666;fillColor=#f5f5f5;align=left;verticalAlign=top;spacingLeft=4;spacingRight=4;overflow=hidden;rotatable=0;points=[[0,0.5],[1,0.5]];portConstraint=eastwest;fontColor=#333333;" parent="_PQUibNGBd2o8KV1kYcL-31" vertex="1"><mxGeometry y="124" width="220" height="26" as="geometry"/></mxCell><mxCell id="pYLxVfWXKtCvC9hSivpm-2" value="Domicilio: varchar(150)" style="text;strokeColor=#666666;fillColor=#f5f5f5;align=left;verticalAlign=top;spacingLeft=4;spacingRight=4;overflow=hidden;rotatable=0;points=[[0,0.5],[1,0.5]];portConstraint=eastwest;fontColor=#333333;" parent="_PQUibNGBd2o8KV1kYcL-31" vertex="1"><mxGeometry y="150" width="220" height="26" as="geometry"/></mxCell><mxCell id="_PQUibNGBd2o8KV1kYcL-41" value="Telefono: varchar(10)" style="text;strokeColor=#666666;fillColor=#f5f5f5;align=left;verticalAlign=top;spacingLeft=4;spacingRight=4;overflow=hidden;rotatable=0;points=[[0,0.5],[1,0.5]];portConstraint=eastwest;fontColor=#333333;" parent="_PQUibNGBd2o8KV1kYcL-31" vertex="1"><mxGeometry y="176" width="220" height="26" as="geometry"/></mxCell><mxCell id="_PQUibNGBd2o8KV1kYcL-53" value="NombreContacto: varchar(30)" style="text;strokeColor=#666666;fillColor=#f5f5f5;align=left;verticalAlign=top;spacingLeft=4;spacingRight=4;overflow=hidden;rotatable=0;points=[[0,0.5],[1,0.5]];portConstraint=eastwest;fontColor=#333333;" parent="_PQUibNGBd2o8KV1kYcL-31" vertex="1"><mxGeometry y="202" width="220" height="26" as="geometry"/></mxCell><mxCell id="_PQUibNGBd2o8KV1kYcL-54" value="TelefonoContacto: varchar(10)" style="text;strokeColor=#666666;fillColor=#f5f5f5;align=left;verticalAlign=top;spacingLeft=4;spacingRight=4;overflow=hidden;rotatable=0;points=[[0,0.5],[1,0.5]];portConstraint=eastwest;fontColor=#333333;" parent="_PQUibNGBd2o8KV1kYcL-31" vertex="1"><mxGeometry y="228" width="220" height="26" as="geometry"/></mxCell><mxCell id="_PQUibNGBd2o8KV1kYcL-96" value="Foto: blob" style="text;strokeColor=#666666;fillColor=#f5f5f5;align=left;verticalAlign=top;spacingLeft=4;spacingRight=4;overflow=hidden;rotatable=0;points=[[0,0.5],[1,0.5]];portConstraint=eastwest;fontColor=#333333;" parent="_PQUibNGBd2o8KV1kYcL-31" vertex="1"><mxGeometry y="254" width="220" height="26" as="geometry"/></mxCell><mxCell id="_PQUibNGBd2o8KV1kYcL-86" value="FechaUltimoAcceso: datetime" style="text;strokeColor=#666666;fillColor=#f5f5f5;align=left;verticalAlign=top;spacingLeft=4;spacingRight=4;overflow=hidden;rotatable=0;points=[[0,0.5],[1,0.5]];portConstraint=eastwest;fontColor=#333333;" parent="_PQUibNGBd2o8KV1kYcL-31" vertex="1"><mxGeometry y="280" width="220" height="26" as="geometry"/></mxCell><mxCell id="_PQUibNGBd2o8KV1kYcL-87" value="FechaUltimoPago: datetime" style="text;strokeColor=#666666;fillColor=#f5f5f5;align=left;verticalAlign=top;spacingLeft=4;spacingRight=4;overflow=hidden;rotatable=0;points=[[0,0.5],[1,0.5]];portConstraint=eastwest;fontColor=#333333;" parent="_PQUibNGBd2o8KV1kYcL-31" vertex="1"><mxGeometry y="306" width="220" height="26" as="geometry"/></mxCell><mxCell id="_PQUibNGBd2o8KV1kYcL-88" value="MontoUltimoPago: decimal" style="text;strokeColor=#666666;fillColor=#f5f5f5;align=left;verticalAlign=top;spacingLeft=4;spacingRight=4;overflow=hidden;rotatable=0;points=[[0,0.5],[1,0.5]];portConstraint=eastwest;fontColor=#333333;" parent="_PQUibNGBd2o8KV1kYcL-31" vertex="1"><mxGeometry y="332" width="220" height="26" as="geometry"/></mxCell><mxCell id="_PQUibNGBd2o8KV1kYcL-50" value="HoraEntrada: datetime" style="text;strokeColor=#666666;fillColor=#f5f5f5;align=left;verticalAlign=top;spacingLeft=4;spacingRight=4;overflow=hidden;rotatable=0;points=[[0,0.5],[1,0.5]];portConstraint=eastwest;fontColor=#333333;" parent="_PQUibNGBd2o8KV1kYcL-31" vertex="1"><mxGeometry y="358" width="220" height="26" as="geometry"/></mxCell><mxCell id="FOPRrhfPlMj5Ahqnkqq1-1" value="HoraSalida: datetime" style="text;strokeColor=#666666;fillColor=#f5f5f5;align=left;verticalAlign=top;spacingLeft=4;spacingRight=4;overflow=hidden;rotatable=0;points=[[0,0.5],[1,0.5]];portConstraint=eastwest;fontColor=#333333;" parent="_PQUibNGBd2o8KV1kYcL-31" vertex="1"><mxGeometry y="384" width="220" height="26" as="geometry"/></mxCell><mxCell id="etsHt23ldngnbve_LG4j-1" value="DiasATrabajar: int" style="text;strokeColor=#666666;fillColor=#f5f5f5;align=left;verticalAlign=top;spacingLeft=4;spacingRight=4;overflow=hidden;rotatable=0;points=[[0,0.5],[1,0.5]];portConstraint=eastwest;fontColor=#333333;" parent="_PQUibNGBd2o8KV1kYcL-31" vertex="1"><mxGeometry y="410" width="220" height="26" as="geometry"/></mxCell><mxCell id="etsHt23ldngnbve_LG4j-7" value="DiasTrabajados: int" style="text;strokeColor=#666666;fillColor=#f5f5f5;align=left;verticalAlign=top;spacingLeft=4;spacingRight=4;overflow=hidden;rotatable=0;points=[[0,0.5],[1,0.5]];portConstraint=eastwest;fontColor=#333333;" parent="_PQUibNGBd2o8KV1kYcL-31" vertex="1"><mxGeometry y="436" width="220" height="26" as="geometry"/></mxCell><mxCell id="MYuSOSuLfc5x7Qdkr82B-1" value="Sueldo: int" style="text;strokeColor=#666666;fillColor=#f5f5f5;align=left;verticalAlign=top;spacingLeft=4;spacingRight=4;overflow=hidden;rotatable=0;points=[[0,0.5],[1,0.5]];portConstraint=eastwest;fontColor=#333333;" parent="_PQUibNGBd2o8KV1kYcL-31" vertex="1"><mxGeometry y="462" width="220" height="26" as="geometry"/></mxCell><mxCell id="etsHt23ldngnbve_LG4j-5" value="SueldoDescontar: int" style="text;strokeColor=#666666;fillColor=#f5f5f5;align=left;verticalAlign=top;spacingLeft=4;spacingRight=4;overflow=hidden;rotatable=0;points=[[0,0.5],[1,0.5]];portConstraint=eastwest;fontColor=#333333;" parent="_PQUibNGBd2o8KV1kYcL-31" vertex="1"><mxGeometry y="488" width="220" height="26" as="geometry"/></mxCell><mxCell id="etsHt23ldngnbve_LG4j-6" value="FK IdTipoInstructor: int" style="text;strokeColor=#6c8ebf;fillColor=#dae8fc;align=left;verticalAlign=top;spacingLeft=4;spacingRight=4;overflow=hidden;rotatable=0;points=[[0,0.5],[1,0.5]];portConstraint=eastwest;" parent="_PQUibNGBd2o8KV1kYcL-31" vertex="1"><mxGeometry y="514" width="220" height="26" as="geometry"/></mxCell><mxCell id="_PQUibNGBd2o8KV1kYcL-42" value="TipoClientes" style="swimlane;fontStyle=0;childLayout=stackLayout;horizontal=1;startSize=26;fillColor=#d5e8d4;horizontalStack=0;resizeParent=1;resizeParentMax=0;resizeLast=0;collapsible=1;marginBottom=0;strokeColor=#82b366;" parent="1" vertex="1"><mxGeometry x="280" y="80" width="220" height="104" as="geometry"/></mxCell><mxCell id="_PQUibNGBd2o8KV1kYcL-43" value="PK IdTipoCliente: autoincrement int" style="text;strokeColor=#b85450;fillColor=#f8cecc;align=left;verticalAlign=top;spacingLeft=4;spacingRight=4;overflow=hidden;rotatable=0;points=[[0,0.5],[1,0.5]];portConstraint=eastwest;" parent="_PQUibNGBd2o8KV1kYcL-42" vertex="1"><mxGeometry y="26" width="220" height="26" as="geometry"/></mxCell><mxCell id="_PQUibNGBd2o8KV1kYcL-44" value="NombreTipoCliente: varchar(30)" style="text;strokeColor=#666666;fillColor=#f5f5f5;align=left;verticalAlign=top;spacingLeft=4;spacingRight=4;overflow=hidden;rotatable=0;points=[[0,0.5],[1,0.5]];portConstraint=eastwest;fontColor=#333333;" parent="_PQUibNGBd2o8KV1kYcL-42" vertex="1"><mxGeometry y="52" width="220" height="26" as="geometry"/></mxCell><mxCell id="_PQUibNGBd2o8KV1kYcL-45" value="Descripcion: varchar(500)" style="text;strokeColor=#666666;fillColor=#f5f5f5;align=left;verticalAlign=top;spacingLeft=4;spacingRight=4;overflow=hidden;rotatable=0;points=[[0,0.5],[1,0.5]];portConstraint=eastwest;fontColor=#333333;" parent="_PQUibNGBd2o8KV1kYcL-42" vertex="1"><mxGeometry y="78" width="220" height="26" as="geometry"/></mxCell><mxCell id="_PQUibNGBd2o8KV1kYcL-59" value="Clases" style="swimlane;fontStyle=0;childLayout=stackLayout;horizontal=1;startSize=26;fillColor=#d5e8d4;horizontalStack=0;resizeParent=1;resizeParentMax=0;resizeLast=0;collapsible=1;marginBottom=0;strokeColor=#82b366;" parent="1" vertex="1"><mxGeometry x="280" y="441" width="220" height="208" as="geometry"/></mxCell><mxCell id="_PQUibNGBd2o8KV1kYcL-60" value="PK IdClase: autoincrement int" style="text;strokeColor=#b85450;fillColor=#f8cecc;align=left;verticalAlign=top;spacingLeft=4;spacingRight=4;overflow=hidden;rotatable=0;points=[[0,0.5],[1,0.5]];portConstraint=eastwest;" parent="_PQUibNGBd2o8KV1kYcL-59" vertex="1"><mxGeometry y="26" width="220" height="26" as="geometry"/></mxCell><mxCell id="_PQUibNGBd2o8KV1kYcL-61" value="NombreClase: varchar(30)" style="text;strokeColor=#666666;fillColor=#f5f5f5;align=left;verticalAlign=top;spacingLeft=4;spacingRight=4;overflow=hidden;rotatable=0;points=[[0,0.5],[1,0.5]];portConstraint=eastwest;fontColor=#333333;" parent="_PQUibNGBd2o8KV1kYcL-59" vertex="1"><mxGeometry y="52" width="220" height="26" as="geometry"/></mxCell><mxCell id="-7ZnzNtgLRB6n0nQWrMo-1" value="Descripcion: varchar(500)" style="text;strokeColor=#666666;fillColor=#f5f5f5;align=left;verticalAlign=top;spacingLeft=4;spacingRight=4;overflow=hidden;rotatable=0;points=[[0,0.5],[1,0.5]];portConstraint=eastwest;fontColor=#333333;" parent="_PQUibNGBd2o8KV1kYcL-59" vertex="1"><mxGeometry y="78" width="220" height="26" as="geometry"/></mxCell><mxCell id="5SahaQXDkVGtIxy-Vm8O-2" value="CupoMaximo: int" style="text;strokeColor=#666666;fillColor=#f5f5f5;align=left;verticalAlign=top;spacingLeft=4;spacingRight=4;overflow=hidden;rotatable=0;points=[[0,0.5],[1,0.5]];portConstraint=eastwest;fontColor=#333333;" parent="_PQUibNGBd2o8KV1kYcL-59" vertex="1"><mxGeometry y="104" width="220" height="26" as="geometry"/></mxCell><mxCell id="CkZUoxkiraXaLRMdNK0o-11" value="Activo: bool" style="text;strokeColor=#666666;fillColor=#f5f5f5;align=left;verticalAlign=top;spacingLeft=4;spacingRight=4;overflow=hidden;rotatable=0;points=[[0,0.5],[1,0.5]];portConstraint=eastwest;fontColor=#333333;" parent="_PQUibNGBd2o8KV1kYcL-59" vertex="1"><mxGeometry y="130" width="220" height="26" as="geometry"/></mxCell><mxCell id="sag879QP5R4U7wzq0UdH-1" value="FK IdInstructor: int" style="text;strokeColor=#6c8ebf;fillColor=#dae8fc;align=left;verticalAlign=top;spacingLeft=4;spacingRight=4;overflow=hidden;rotatable=0;points=[[0,0.5],[1,0.5]];portConstraint=eastwest;" parent="_PQUibNGBd2o8KV1kYcL-59" vertex="1"><mxGeometry y="156" width="220" height="26" as="geometry"/></mxCell><mxCell id="_PQUibNGBd2o8KV1kYcL-67" value="FK IdEspacio: int" style="text;strokeColor=#6c8ebf;fillColor=#dae8fc;align=left;verticalAlign=top;spacingLeft=4;spacingRight=4;overflow=hidden;rotatable=0;points=[[0,0.5],[1,0.5]];portConstraint=eastwest;" parent="_PQUibNGBd2o8KV1kYcL-59" vertex="1"><mxGeometry y="182" width="220" height="26" as="geometry"/></mxCell><mxCell id="_PQUibNGBd2o8KV1kYcL-68" value="Pagos" style="swimlane;fontStyle=0;childLayout=stackLayout;horizontal=1;startSize=26;fillColor=#d5e8d4;horizontalStack=0;resizeParent=1;resizeParentMax=0;resizeLast=0;collapsible=1;marginBottom=0;strokeColor=#82b366;" parent="1" vertex="1"><mxGeometry x="520" y="757" width="220" height="312" as="geometry"/></mxCell><mxCell id="_PQUibNGBd2o8KV1kYcL-69" value="PK IdPago: autoincrement int" style="text;strokeColor=#b85450;fillColor=#f8cecc;align=left;verticalAlign=top;spacingLeft=4;spacingRight=4;overflow=hidden;rotatable=0;points=[[0,0.5],[1,0.5]];portConstraint=eastwest;" parent="_PQUibNGBd2o8KV1kYcL-68" vertex="1"><mxGeometry y="26" width="220" height="26" as="geometry"/></mxCell><mxCell id="_PQUibNGBd2o8KV1kYcL-74" value="FechaRegistro: datetime not null" style="text;strokeColor=#666666;fillColor=#f5f5f5;align=left;verticalAlign=top;spacingLeft=4;spacingRight=4;overflow=hidden;rotatable=0;points=[[0,0.5],[1,0.5]];portConstraint=eastwest;fontColor=#333333;" parent="_PQUibNGBd2o8KV1kYcL-68" vertex="1"><mxGeometry y="52" width="220" height="26" as="geometry"/></mxCell><mxCell id="X2XfPM9SwOgkN9FxWj2Q-1" value="IdUsuario: int" style="text;strokeColor=#666666;fillColor=#f5f5f5;align=left;verticalAlign=top;spacingLeft=4;spacingRight=4;overflow=hidden;rotatable=0;points=[[0,0.5],[1,0.5]];portConstraint=eastwest;fontColor=#333333;" parent="_PQUibNGBd2o8KV1kYcL-68" vertex="1"><mxGeometry y="78" width="220" height="26" as="geometry"/></mxCell><mxCell id="MtLlCiF0mK9_kj_gZ3NP-5" value="Servicios: bool" style="text;strokeColor=#666666;fillColor=#f5f5f5;align=left;verticalAlign=top;spacingLeft=4;spacingRight=4;overflow=hidden;rotatable=0;points=[[0,0.5],[1,0.5]];portConstraint=eastwest;fontColor=#333333;" parent="_PQUibNGBd2o8KV1kYcL-68" vertex="1"><mxGeometry y="104" width="220" height="26" as="geometry"/></mxCell><mxCell id="toC_lpoAntQqTdfmpEii-1" value="Nomina: bool" style="text;strokeColor=#666666;fillColor=#f5f5f5;align=left;verticalAlign=top;spacingLeft=4;spacingRight=4;overflow=hidden;rotatable=0;points=[[0,0.5],[1,0.5]];portConstraint=eastwest;fontColor=#333333;" parent="_PQUibNGBd2o8KV1kYcL-68" vertex="1"><mxGeometry y="130" width="220" height="26" as="geometry"/></mxCell><mxCell id="etsHt23ldngnbve_LG4j-12" value="Otros: bool" style="text;strokeColor=#666666;fillColor=#f5f5f5;align=left;verticalAlign=top;spacingLeft=4;spacingRight=4;overflow=hidden;rotatable=0;points=[[0,0.5],[1,0.5]];portConstraint=eastwest;fontColor=#333333;" parent="_PQUibNGBd2o8KV1kYcL-68" vertex="1"><mxGeometry y="156" width="220" height="26" as="geometry"/></mxCell><mxCell id="etsHt23ldngnbve_LG4j-8" value="FK IdUsuarioPagar: int" style="text;strokeColor=#6c8ebf;fillColor=#dae8fc;align=left;verticalAlign=top;spacingLeft=4;spacingRight=4;overflow=hidden;rotatable=0;points=[[0,0.5],[1,0.5]];portConstraint=eastwest;" parent="_PQUibNGBd2o8KV1kYcL-68" vertex="1"><mxGeometry y="182" width="220" height="26" as="geometry"/></mxCell><mxCell id="etsHt23ldngnbve_LG4j-9" value="FK IdInstructor: int" style="text;strokeColor=#6c8ebf;fillColor=#dae8fc;align=left;verticalAlign=top;spacingLeft=4;spacingRight=4;overflow=hidden;rotatable=0;points=[[0,0.5],[1,0.5]];portConstraint=eastwest;" parent="_PQUibNGBd2o8KV1kYcL-68" vertex="1"><mxGeometry y="208" width="220" height="26" as="geometry"/></mxCell><mxCell id="_PQUibNGBd2o8KV1kYcL-70" value="Concepto: varchar(300) not null" style="text;strokeColor=#666666;fillColor=#f5f5f5;align=left;verticalAlign=top;spacingLeft=4;spacingRight=4;overflow=hidden;rotatable=0;points=[[0,0.5],[1,0.5]];portConstraint=eastwest;fontColor=#333333;" parent="_PQUibNGBd2o8KV1kYcL-68" vertex="1"><mxGeometry y="234" width="220" height="26" as="geometry"/></mxCell><mxCell id="_PQUibNGBd2o8KV1kYcL-72" value="NumeroRecibo: int not null" style="text;strokeColor=#666666;fillColor=#f5f5f5;align=left;verticalAlign=top;spacingLeft=4;spacingRight=4;overflow=hidden;rotatable=0;points=[[0,0.5],[1,0.5]];portConstraint=eastwest;fontColor=#333333;" parent="_PQUibNGBd2o8KV1kYcL-68" vertex="1"><mxGeometry y="260" width="220" height="26" as="geometry"/></mxCell><mxCell id="_PQUibNGBd2o8KV1kYcL-73" value="Monto: decimal not null" style="text;strokeColor=#666666;fillColor=#f5f5f5;align=left;verticalAlign=top;spacingLeft=4;spacingRight=4;overflow=hidden;rotatable=0;points=[[0,0.5],[1,0.5]];portConstraint=eastwest;fontColor=#333333;" parent="_PQUibNGBd2o8KV1kYcL-68" vertex="1"><mxGeometry y="286" width="220" height="26" as="geometry"/></mxCell><mxCell id="_PQUibNGBd2o8KV1kYcL-75" value="Ingresos" style="swimlane;fontStyle=0;childLayout=stackLayout;horizontal=1;startSize=26;fillColor=#d5e8d4;horizontalStack=0;resizeParent=1;resizeParentMax=0;resizeLast=0;collapsible=1;marginBottom=0;strokeColor=#82b366;" parent="1" vertex="1"><mxGeometry x="760" y="679" width="220" height="286" as="geometry"/></mxCell><mxCell id="_PQUibNGBd2o8KV1kYcL-76" value="PK IdIngreso: autoincrement int" style="text;strokeColor=#b85450;fillColor=#f8cecc;align=left;verticalAlign=top;spacingLeft=4;spacingRight=4;overflow=hidden;rotatable=0;points=[[0,0.5],[1,0.5]];portConstraint=eastwest;" parent="_PQUibNGBd2o8KV1kYcL-75" vertex="1"><mxGeometry y="26" width="220" height="26" as="geometry"/></mxCell><mxCell id="_PQUibNGBd2o8KV1kYcL-81" value="FechaRegistro: datetime not null" style="text;strokeColor=#666666;fillColor=#f5f5f5;align=left;verticalAlign=top;spacingLeft=4;spacingRight=4;overflow=hidden;rotatable=0;points=[[0,0.5],[1,0.5]];portConstraint=eastwest;fontColor=#333333;" parent="_PQUibNGBd2o8KV1kYcL-75" vertex="1"><mxGeometry y="52" width="220" height="26" as="geometry"/></mxCell><mxCell id="dfbeT16c1CGahRMl34fM-1" value="IdUsuario: int" style="text;strokeColor=#666666;fillColor=#f5f5f5;align=left;verticalAlign=top;spacingLeft=4;spacingRight=4;overflow=hidden;rotatable=0;points=[[0,0.5],[1,0.5]];portConstraint=eastwest;fontColor=#333333;" parent="_PQUibNGBd2o8KV1kYcL-75" vertex="1"><mxGeometry y="78" width="220" height="26" as="geometry"/></mxCell><mxCell id="MtLlCiF0mK9_kj_gZ3NP-6" value="Otros: bool" style="text;strokeColor=#666666;fillColor=#f5f5f5;align=left;verticalAlign=top;spacingLeft=4;spacingRight=4;overflow=hidden;rotatable=0;points=[[0,0.5],[1,0.5]];portConstraint=eastwest;fontColor=#333333;" parent="_PQUibNGBd2o8KV1kYcL-75" vertex="1"><mxGeometry y="104" width="220" height="26" as="geometry"/></mxCell><mxCell id="MtLlCiF0mK9_kj_gZ3NP-2" value="FK IdRenta: int" style="text;strokeColor=#6c8ebf;fillColor=#dae8fc;align=left;verticalAlign=top;spacingLeft=4;spacingRight=4;overflow=hidden;rotatable=0;points=[[0,0.5],[1,0.5]];portConstraint=eastwest;" parent="_PQUibNGBd2o8KV1kYcL-75" vertex="1"><mxGeometry y="130" width="220" height="26" as="geometry"/></mxCell><mxCell id="MtLlCiF0mK9_kj_gZ3NP-3" value="FK IdVenta: int" style="text;strokeColor=#6c8ebf;fillColor=#dae8fc;align=left;verticalAlign=top;spacingLeft=4;spacingRight=4;overflow=hidden;rotatable=0;points=[[0,0.5],[1,0.5]];portConstraint=eastwest;" parent="_PQUibNGBd2o8KV1kYcL-75" vertex="1"><mxGeometry y="156" width="220" height="26" as="geometry"/></mxCell><mxCell id="MtLlCiF0mK9_kj_gZ3NP-4" value="FK IdCliente: int" style="text;strokeColor=#6c8ebf;fillColor=#dae8fc;align=left;verticalAlign=top;spacingLeft=4;spacingRight=4;overflow=hidden;rotatable=0;points=[[0,0.5],[1,0.5]];portConstraint=eastwest;" parent="_PQUibNGBd2o8KV1kYcL-75" vertex="1"><mxGeometry y="182" width="220" height="26" as="geometry"/></mxCell><mxCell id="_PQUibNGBd2o8KV1kYcL-78" value="Concepto: varchar(300) not null" style="text;strokeColor=#666666;fillColor=#f5f5f5;align=left;verticalAlign=top;spacingLeft=4;spacingRight=4;overflow=hidden;rotatable=0;points=[[0,0.5],[1,0.5]];portConstraint=eastwest;fontColor=#333333;" parent="_PQUibNGBd2o8KV1kYcL-75" vertex="1"><mxGeometry y="208" width="220" height="26" as="geometry"/></mxCell><mxCell id="_PQUibNGBd2o8KV1kYcL-79" value="NumeroRecibo: int not null" style="text;strokeColor=#666666;fillColor=#f5f5f5;align=left;verticalAlign=top;spacingLeft=4;spacingRight=4;overflow=hidden;rotatable=0;points=[[0,0.5],[1,0.5]];portConstraint=eastwest;fontColor=#333333;" parent="_PQUibNGBd2o8KV1kYcL-75" vertex="1"><mxGeometry y="234" width="220" height="26" as="geometry"/></mxCell><mxCell id="_PQUibNGBd2o8KV1kYcL-80" value="Monto: decimal not null" style="text;strokeColor=#666666;fillColor=#f5f5f5;align=left;verticalAlign=top;spacingLeft=4;spacingRight=4;overflow=hidden;rotatable=0;points=[[0,0.5],[1,0.5]];portConstraint=eastwest;fontColor=#333333;" parent="_PQUibNGBd2o8KV1kYcL-75" vertex="1"><mxGeometry y="260" width="220" height="26" as="geometry"/></mxCell><mxCell id="_PQUibNGBd2o8KV1kYcL-93" value="https://stackoverflow.com/questions/37825685/foreign-key-referring-to-multiple-rows-in-another-table" style="rounded=0;whiteSpace=wrap;html=1;fillColor=#FFCC99;" parent="1" vertex="1"><mxGeometry x="1240" y="80" width="305" height="68" as="geometry"/></mxCell><mxCell id="fgZhtdjuhSEnxDqOel1A-1" value="Espacios" style="swimlane;fontStyle=0;childLayout=stackLayout;horizontal=1;startSize=26;fillColor=#d5e8d4;horizontalStack=0;resizeParent=1;resizeParentMax=0;resizeLast=0;collapsible=1;marginBottom=0;strokeColor=#82b366;" parent="1" vertex="1"><mxGeometry x="280" y="720" width="220" height="104" as="geometry"/></mxCell><mxCell id="fgZhtdjuhSEnxDqOel1A-2" value="PK IdEspacio: autoincrement int" style="text;strokeColor=#b85450;fillColor=#f8cecc;align=left;verticalAlign=top;spacingLeft=4;spacingRight=4;overflow=hidden;rotatable=0;points=[[0,0.5],[1,0.5]];portConstraint=eastwest;" parent="fgZhtdjuhSEnxDqOel1A-1" vertex="1"><mxGeometry y="26" width="220" height="26" as="geometry"/></mxCell><mxCell id="fgZhtdjuhSEnxDqOel1A-4" value="NombreEspacio: varchar(30)" style="text;strokeColor=#666666;fillColor=#f5f5f5;align=left;verticalAlign=top;spacingLeft=4;spacingRight=4;overflow=hidden;rotatable=0;points=[[0,0.5],[1,0.5]];portConstraint=eastwest;fontColor=#333333;" parent="fgZhtdjuhSEnxDqOel1A-1" vertex="1"><mxGeometry y="52" width="220" height="26" as="geometry"/></mxCell><mxCell id="fgZhtdjuhSEnxDqOel1A-3" value="Descripcion: varchar(1500)" style="text;strokeColor=#666666;fillColor=#f5f5f5;align=left;verticalAlign=top;spacingLeft=4;spacingRight=4;overflow=hidden;rotatable=0;points=[[0,0.5],[1,0.5]];portConstraint=eastwest;fontColor=#333333;" parent="fgZhtdjuhSEnxDqOel1A-1" vertex="1"><mxGeometry y="78" width="220" height="26" as="geometry"/></mxCell><mxCell id="HTfFyQb_UptbYY3Wbt3t-1" value="Clientes Renta" style="swimlane;fontStyle=0;childLayout=stackLayout;horizontal=1;startSize=20;fillColor=#d5e8d4;horizontalStack=0;resizeParent=1;resizeParentMax=0;resizeLast=0;collapsible=1;marginBottom=0;strokeColor=#82b366;" parent="1" vertex="1"><mxGeometry x="760" y="80" width="220" height="358" as="geometry"><mxRectangle x="320" y="80" width="100" height="26" as="alternateBounds"/></mxGeometry></mxCell><mxCell id="HTfFyQb_UptbYY3Wbt3t-2" value="PK IdClienteRenta: autoincrement int" style="text;strokeColor=#b85450;fillColor=#f8cecc;align=left;verticalAlign=top;spacingLeft=4;spacingRight=4;overflow=hidden;rotatable=0;points=[[0,0.5],[1,0.5]];portConstraint=eastwest;" parent="HTfFyQb_UptbYY3Wbt3t-1" vertex="1"><mxGeometry y="20" width="220" height="26" as="geometry"/></mxCell><mxCell id="HTfFyQb_UptbYY3Wbt3t-3" value="Nombre: varchar(30)" style="text;strokeColor=#666666;fillColor=#f5f5f5;align=left;verticalAlign=top;spacingLeft=4;spacingRight=4;overflow=hidden;rotatable=0;points=[[0,0.5],[1,0.5]];portConstraint=eastwest;fontColor=#333333;" parent="HTfFyQb_UptbYY3Wbt3t-1" vertex="1"><mxGeometry y="46" width="220" height="26" as="geometry"/></mxCell><mxCell id="HTfFyQb_UptbYY3Wbt3t-4" value="ApellidoPaterno: varchar(30)" style="text;strokeColor=#666666;fillColor=#f5f5f5;align=left;verticalAlign=top;spacingLeft=4;spacingRight=4;overflow=hidden;rotatable=0;points=[[0,0.5],[1,0.5]];portConstraint=eastwest;fontColor=#333333;" parent="HTfFyQb_UptbYY3Wbt3t-1" vertex="1"><mxGeometry y="72" width="220" height="26" as="geometry"/></mxCell><mxCell id="HTfFyQb_UptbYY3Wbt3t-5" value="ApellidoMaterno: varchar(30)" style="text;strokeColor=#666666;fillColor=#f5f5f5;align=left;verticalAlign=top;spacingLeft=4;spacingRight=4;overflow=hidden;rotatable=0;points=[[0,0.5],[1,0.5]];portConstraint=eastwest;fontColor=#333333;" parent="HTfFyQb_UptbYY3Wbt3t-1" vertex="1"><mxGeometry y="98" width="220" height="26" as="geometry"/></mxCell><mxCell id="HTfFyQb_UptbYY3Wbt3t-7" value="FechaNacimiento: dateTime" style="text;strokeColor=#666666;fillColor=#f5f5f5;align=left;verticalAlign=top;spacingLeft=4;spacingRight=4;overflow=hidden;rotatable=0;points=[[0,0.5],[1,0.5]];portConstraint=eastwest;fontColor=#333333;" parent="HTfFyQb_UptbYY3Wbt3t-1" vertex="1"><mxGeometry y="124" width="220" height="26" as="geometry"/></mxCell><mxCell id="HTfFyQb_UptbYY3Wbt3t-8" value="Telefono: varchar(10)" style="text;strokeColor=#666666;fillColor=#f5f5f5;align=left;verticalAlign=top;spacingLeft=4;spacingRight=4;overflow=hidden;rotatable=0;points=[[0,0.5],[1,0.5]];portConstraint=eastwest;fontColor=#333333;" parent="HTfFyQb_UptbYY3Wbt3t-1" vertex="1"><mxGeometry y="150" width="220" height="26" as="geometry"/></mxCell><mxCell id="HTfFyQb_UptbYY3Wbt3t-9" value="CondicionEspecial: bool" style="text;strokeColor=#666666;fillColor=#f5f5f5;align=left;verticalAlign=top;spacingLeft=4;spacingRight=4;overflow=hidden;rotatable=0;points=[[0,0.5],[1,0.5]];portConstraint=eastwest;fontColor=#333333;" parent="HTfFyQb_UptbYY3Wbt3t-1" vertex="1"><mxGeometry y="176" width="220" height="26" as="geometry"/></mxCell><mxCell id="HTfFyQb_UptbYY3Wbt3t-10" value="NombreContacto: varchar(30)" style="text;strokeColor=#666666;fillColor=#f5f5f5;align=left;verticalAlign=top;spacingLeft=4;spacingRight=4;overflow=hidden;rotatable=0;points=[[0,0.5],[1,0.5]];portConstraint=eastwest;fontColor=#333333;" parent="HTfFyQb_UptbYY3Wbt3t-1" vertex="1"><mxGeometry y="202" width="220" height="26" as="geometry"/></mxCell><mxCell id="HTfFyQb_UptbYY3Wbt3t-11" value="TelefonoContacto: varchar(10)" style="text;strokeColor=#666666;fillColor=#f5f5f5;align=left;verticalAlign=top;spacingLeft=4;spacingRight=4;overflow=hidden;rotatable=0;points=[[0,0.5],[1,0.5]];portConstraint=eastwest;fontColor=#333333;" parent="HTfFyQb_UptbYY3Wbt3t-1" vertex="1"><mxGeometry y="228" width="220" height="26" as="geometry"/></mxCell><mxCell id="HTfFyQb_UptbYY3Wbt3t-12" value="Foto: blob" style="text;strokeColor=#666666;fillColor=#f5f5f5;align=left;verticalAlign=top;spacingLeft=4;spacingRight=4;overflow=hidden;rotatable=0;points=[[0,0.5],[1,0.5]];portConstraint=eastwest;fontColor=#333333;" parent="HTfFyQb_UptbYY3Wbt3t-1" vertex="1"><mxGeometry y="254" width="220" height="26" as="geometry"/></mxCell><mxCell id="HTfFyQb_UptbYY3Wbt3t-16" value="FechaUltimoPago: datetime" style="text;strokeColor=#666666;fillColor=#f5f5f5;align=left;verticalAlign=top;spacingLeft=4;spacingRight=4;overflow=hidden;rotatable=0;points=[[0,0.5],[1,0.5]];portConstraint=eastwest;fontColor=#333333;" parent="HTfFyQb_UptbYY3Wbt3t-1" vertex="1"><mxGeometry y="280" width="220" height="26" as="geometry"/></mxCell><mxCell id="HTfFyQb_UptbYY3Wbt3t-17" value="MontoUltimoPago: decimal" style="text;strokeColor=#666666;fillColor=#f5f5f5;align=left;verticalAlign=top;spacingLeft=4;spacingRight=4;overflow=hidden;rotatable=0;points=[[0,0.5],[1,0.5]];portConstraint=eastwest;fontColor=#333333;" parent="HTfFyQb_UptbYY3Wbt3t-1" vertex="1"><mxGeometry y="306" width="220" height="26" as="geometry"/></mxCell><mxCell id="8nuWftlueAQ6h4vAB7fU-2" value="DeudaCliente: decimal" style="text;strokeColor=#666666;fillColor=#f5f5f5;align=left;verticalAlign=top;spacingLeft=4;spacingRight=4;overflow=hidden;rotatable=0;points=[[0,0.5],[1,0.5]];portConstraint=eastwest;fontColor=#333333;" parent="HTfFyQb_UptbYY3Wbt3t-1" vertex="1"><mxGeometry y="332" width="220" height="26" as="geometry"/></mxCell><mxCell id="HTfFyQb_UptbYY3Wbt3t-21" value="Usuarios" style="swimlane;fontStyle=0;childLayout=stackLayout;horizontal=1;startSize=20;fillColor=#d5e8d4;horizontalStack=0;resizeParent=1;resizeParentMax=0;resizeLast=0;collapsible=1;marginBottom=0;strokeColor=#82b366;" parent="1" vertex="1"><mxGeometry x="1000" y="80" width="220" height="384" as="geometry"><mxRectangle x="320" y="80" width="100" height="26" as="alternateBounds"/></mxGeometry></mxCell><mxCell id="HTfFyQb_UptbYY3Wbt3t-22" value="PK IdUsuario: autoincrement int" style="text;strokeColor=#b85450;fillColor=#f8cecc;align=left;verticalAlign=top;spacingLeft=4;spacingRight=4;overflow=hidden;rotatable=0;points=[[0,0.5],[1,0.5]];portConstraint=eastwest;" parent="HTfFyQb_UptbYY3Wbt3t-21" vertex="1"><mxGeometry y="20" width="220" height="26" as="geometry"/></mxCell><mxCell id="HTfFyQb_UptbYY3Wbt3t-23" value="Nombre: varchar(30)" style="text;strokeColor=#666666;fillColor=#f5f5f5;align=left;verticalAlign=top;spacingLeft=4;spacingRight=4;overflow=hidden;rotatable=0;points=[[0,0.5],[1,0.5]];portConstraint=eastwest;fontColor=#333333;" parent="HTfFyQb_UptbYY3Wbt3t-21" vertex="1"><mxGeometry y="46" width="220" height="26" as="geometry"/></mxCell><mxCell id="HTfFyQb_UptbYY3Wbt3t-24" value="ApellidoPaterno: varchar(30)" style="text;strokeColor=#666666;fillColor=#f5f5f5;align=left;verticalAlign=top;spacingLeft=4;spacingRight=4;overflow=hidden;rotatable=0;points=[[0,0.5],[1,0.5]];portConstraint=eastwest;fontColor=#333333;" parent="HTfFyQb_UptbYY3Wbt3t-21" vertex="1"><mxGeometry y="72" width="220" height="26" as="geometry"/></mxCell><mxCell id="HTfFyQb_UptbYY3Wbt3t-25" value="ApellidoMaterno: varchar(30)" style="text;strokeColor=#666666;fillColor=#f5f5f5;align=left;verticalAlign=top;spacingLeft=4;spacingRight=4;overflow=hidden;rotatable=0;points=[[0,0.5],[1,0.5]];portConstraint=eastwest;fontColor=#333333;" parent="HTfFyQb_UptbYY3Wbt3t-21" vertex="1"><mxGeometry y="98" width="220" height="26" as="geometry"/></mxCell><mxCell id="HTfFyQb_UptbYY3Wbt3t-26" value="Username: varchar(20)" style="text;strokeColor=#666666;fillColor=#f5f5f5;align=left;verticalAlign=top;spacingLeft=4;spacingRight=4;overflow=hidden;rotatable=0;points=[[0,0.5],[1,0.5]];portConstraint=eastwest;fontColor=#333333;" parent="HTfFyQb_UptbYY3Wbt3t-21" vertex="1"><mxGeometry y="124" width="220" height="26" as="geometry"/></mxCell><mxCell id="_xNl5C3_6cxPlU6vgk9X-1" value="Password: varchar(15)" style="text;strokeColor=#666666;fillColor=#f5f5f5;align=left;verticalAlign=top;spacingLeft=4;spacingRight=4;overflow=hidden;rotatable=0;points=[[0,0.5],[1,0.5]];portConstraint=eastwest;fontColor=#333333;" parent="HTfFyQb_UptbYY3Wbt3t-21" vertex="1"><mxGeometry y="150" width="220" height="26" as="geometry"/></mxCell><mxCell id="HTfFyQb_UptbYY3Wbt3t-27" value="FechaNacimiento: dateTime" style="text;strokeColor=#666666;fillColor=#f5f5f5;align=left;verticalAlign=top;spacingLeft=4;spacingRight=4;overflow=hidden;rotatable=0;points=[[0,0.5],[1,0.5]];portConstraint=eastwest;fontColor=#333333;" parent="HTfFyQb_UptbYY3Wbt3t-21" vertex="1"><mxGeometry y="176" width="220" height="26" as="geometry"/></mxCell><mxCell id="HTfFyQb_UptbYY3Wbt3t-28" value="Telefono: varchar(10)" style="text;strokeColor=#666666;fillColor=#f5f5f5;align=left;verticalAlign=top;spacingLeft=4;spacingRight=4;overflow=hidden;rotatable=0;points=[[0,0.5],[1,0.5]];portConstraint=eastwest;fontColor=#333333;" parent="HTfFyQb_UptbYY3Wbt3t-21" vertex="1"><mxGeometry y="202" width="220" height="26" as="geometry"/></mxCell><mxCell id="HTfFyQb_UptbYY3Wbt3t-30" value="NombreContacto: varchar(30)" style="text;strokeColor=#666666;fillColor=#f5f5f5;align=left;verticalAlign=top;spacingLeft=4;spacingRight=4;overflow=hidden;rotatable=0;points=[[0,0.5],[1,0.5]];portConstraint=eastwest;fontColor=#333333;" parent="HTfFyQb_UptbYY3Wbt3t-21" vertex="1"><mxGeometry y="228" width="220" height="26" as="geometry"/></mxCell><mxCell id="HTfFyQb_UptbYY3Wbt3t-31" value="TelefonoContacto: varchar(10)" style="text;strokeColor=#666666;fillColor=#f5f5f5;align=left;verticalAlign=top;spacingLeft=4;spacingRight=4;overflow=hidden;rotatable=0;points=[[0,0.5],[1,0.5]];portConstraint=eastwest;fontColor=#333333;" parent="HTfFyQb_UptbYY3Wbt3t-21" vertex="1"><mxGeometry y="254" width="220" height="26" as="geometry"/></mxCell><mxCell id="HTfFyQb_UptbYY3Wbt3t-32" value="Foto: blob" style="text;strokeColor=#666666;fillColor=#f5f5f5;align=left;verticalAlign=top;spacingLeft=4;spacingRight=4;overflow=hidden;rotatable=0;points=[[0,0.5],[1,0.5]];portConstraint=eastwest;fontColor=#333333;" parent="HTfFyQb_UptbYY3Wbt3t-21" vertex="1"><mxGeometry y="280" width="220" height="26" as="geometry"/></mxCell><mxCell id="HTfFyQb_UptbYY3Wbt3t-35" value="FechaUltimoAcceso: datetime" style="text;strokeColor=#666666;fillColor=#f5f5f5;align=left;verticalAlign=top;spacingLeft=4;spacingRight=4;overflow=hidden;rotatable=0;points=[[0,0.5],[1,0.5]];portConstraint=eastwest;fontColor=#333333;" parent="HTfFyQb_UptbYY3Wbt3t-21" vertex="1"><mxGeometry y="306" width="220" height="26" as="geometry"/></mxCell><mxCell id="HTfFyQb_UptbYY3Wbt3t-36" value="FechaUltimoPago: datetime" style="text;strokeColor=#666666;fillColor=#f5f5f5;align=left;verticalAlign=top;spacingLeft=4;spacingRight=4;overflow=hidden;rotatable=0;points=[[0,0.5],[1,0.5]];portConstraint=eastwest;fontColor=#333333;" parent="HTfFyQb_UptbYY3Wbt3t-21" vertex="1"><mxGeometry y="332" width="220" height="26" as="geometry"/></mxCell><mxCell id="HTfFyQb_UptbYY3Wbt3t-37" value="MontoUltimoPago: decimal" style="text;strokeColor=#666666;fillColor=#f5f5f5;align=left;verticalAlign=top;spacingLeft=4;spacingRight=4;overflow=hidden;rotatable=0;points=[[0,0.5],[1,0.5]];portConstraint=eastwest;fontColor=#333333;" parent="HTfFyQb_UptbYY3Wbt3t-21" vertex="1"><mxGeometry y="358" width="220" height="26" as="geometry"/></mxCell><mxCell id="B8Yzs6A0B9BF0SxUaHeb-1" value="Rentas" style="swimlane;fontStyle=0;childLayout=stackLayout;horizontal=1;startSize=26;fillColor=#d5e8d4;horizontalStack=0;resizeParent=1;resizeParentMax=0;resizeLast=0;collapsible=1;marginBottom=0;strokeColor=#82b366;" parent="1" vertex="1"><mxGeometry x="760" y="478" width="220" height="182" as="geometry"/></mxCell><mxCell id="B8Yzs6A0B9BF0SxUaHeb-2" value="PK IdRenta: autoincrement int" style="text;strokeColor=#b85450;fillColor=#f8cecc;align=left;verticalAlign=top;spacingLeft=4;spacingRight=4;overflow=hidden;rotatable=0;points=[[0,0.5],[1,0.5]];portConstraint=eastwest;" parent="B8Yzs6A0B9BF0SxUaHeb-1" vertex="1"><mxGeometry y="26" width="220" height="26" as="geometry"/></mxCell><mxCell id="MtLlCiF0mK9_kj_gZ3NP-1" value="FechaRenta: datetime not null" style="text;strokeColor=#666666;fillColor=#f5f5f5;align=left;verticalAlign=top;spacingLeft=4;spacingRight=4;overflow=hidden;rotatable=0;points=[[0,0.5],[1,0.5]];portConstraint=eastwest;fontColor=#333333;" parent="B8Yzs6A0B9BF0SxUaHeb-1" vertex="1"><mxGeometry y="52" width="220" height="26" as="geometry"/></mxCell><mxCell id="B8Yzs6A0B9BF0SxUaHeb-3" value="FK IdClienteRenta: int" style="text;strokeColor=#6c8ebf;fillColor=#dae8fc;align=left;verticalAlign=top;spacingLeft=4;spacingRight=4;overflow=hidden;rotatable=0;points=[[0,0.5],[1,0.5]];portConstraint=eastwest;" parent="B8Yzs6A0B9BF0SxUaHeb-1" vertex="1"><mxGeometry y="78" width="220" height="26" as="geometry"/></mxCell><mxCell id="B8Yzs6A0B9BF0SxUaHeb-4" value="FK IdEspacio: int" style="text;strokeColor=#6c8ebf;fillColor=#dae8fc;align=left;verticalAlign=top;spacingLeft=4;spacingRight=4;overflow=hidden;rotatable=0;points=[[0,0.5],[1,0.5]];portConstraint=eastwest;" parent="B8Yzs6A0B9BF0SxUaHeb-1" vertex="1"><mxGeometry y="104" width="220" height="26" as="geometry"/></mxCell><mxCell id="CkZUoxkiraXaLRMdNK0o-17" value="FK IdHorario: int" style="text;strokeColor=#6c8ebf;fillColor=#dae8fc;align=left;verticalAlign=top;spacingLeft=4;spacingRight=4;overflow=hidden;rotatable=0;points=[[0,0.5],[1,0.5]];portConstraint=eastwest;" parent="B8Yzs6A0B9BF0SxUaHeb-1" vertex="1"><mxGeometry y="130" width="220" height="26" as="geometry"/></mxCell><mxCell id="dfbeT16c1CGahRMl34fM-2" value="Costo: Decimal not null" style="text;strokeColor=#666666;fillColor=#f5f5f5;align=left;verticalAlign=top;spacingLeft=4;spacingRight=4;overflow=hidden;rotatable=0;points=[[0,0.5],[1,0.5]];portConstraint=eastwest;fontColor=#333333;" parent="B8Yzs6A0B9BF0SxUaHeb-1" vertex="1"><mxGeometry y="156" width="220" height="26" as="geometry"/></mxCell><mxCell id="y9ImKeT9CvottiBeOZA1-1" value="Paquetes" style="swimlane;fontStyle=0;childLayout=stackLayout;horizontal=1;startSize=26;fillColor=#d5e8d4;horizontalStack=0;resizeParent=1;resizeParentMax=0;resizeLast=0;collapsible=1;marginBottom=0;strokeColor=#82b366;" parent="1" vertex="1"><mxGeometry x="280" y="220" width="220" height="208" as="geometry"/></mxCell><mxCell id="y9ImKeT9CvottiBeOZA1-2" value="PK IdPaquete: autoincrement int" style="text;strokeColor=#b85450;fillColor=#f8cecc;align=left;verticalAlign=top;spacingLeft=4;spacingRight=4;overflow=hidden;rotatable=0;points=[[0,0.5],[1,0.5]];portConstraint=eastwest;" parent="y9ImKeT9CvottiBeOZA1-1" vertex="1"><mxGeometry y="26" width="220" height="26" as="geometry"/></mxCell><mxCell id="y9ImKeT9CvottiBeOZA1-7" value="Gym: bool" style="text;strokeColor=#666666;fillColor=#f5f5f5;align=left;verticalAlign=top;spacingLeft=4;spacingRight=4;overflow=hidden;rotatable=0;points=[[0,0.5],[1,0.5]];portConstraint=eastwest;fontColor=#333333;" parent="y9ImKeT9CvottiBeOZA1-1" vertex="1"><mxGeometry y="52" width="220" height="26" as="geometry"/></mxCell><mxCell id="y9ImKeT9CvottiBeOZA1-3" value="Nombre: varchar(150) not null" style="text;strokeColor=#666666;fillColor=#f5f5f5;align=left;verticalAlign=top;spacingLeft=4;spacingRight=4;overflow=hidden;rotatable=0;points=[[0,0.5],[1,0.5]];portConstraint=eastwest;fontColor=#333333;" parent="y9ImKeT9CvottiBeOZA1-1" vertex="1"><mxGeometry y="78" width="220" height="26" as="geometry"/></mxCell><mxCell id="y9ImKeT9CvottiBeOZA1-5" value="NumClases: int not null" style="text;strokeColor=#666666;fillColor=#f5f5f5;align=left;verticalAlign=top;spacingLeft=4;spacingRight=4;overflow=hidden;rotatable=0;points=[[0,0.5],[1,0.5]];portConstraint=eastwest;fontColor=#333333;" parent="y9ImKeT9CvottiBeOZA1-1" vertex="1"><mxGeometry y="104" width="220" height="26" as="geometry"/></mxCell><mxCell id="etsHt23ldngnbve_LG4j-3" value="NumClasesSemana: int" style="text;strokeColor=#666666;fillColor=#f5f5f5;align=left;verticalAlign=top;spacingLeft=4;spacingRight=4;overflow=hidden;rotatable=0;points=[[0,0.5],[1,0.5]];portConstraint=eastwest;fontColor=#333333;" parent="y9ImKeT9CvottiBeOZA1-1" vertex="1"><mxGeometry y="130" width="220" height="26" as="geometry"/></mxCell><mxCell id="y9ImKeT9CvottiBeOZA1-6" value="Costo: int not null" style="text;strokeColor=#666666;fillColor=#f5f5f5;align=left;verticalAlign=top;spacingLeft=4;spacingRight=4;overflow=hidden;rotatable=0;points=[[0,0.5],[1,0.5]];portConstraint=eastwest;fontColor=#333333;" parent="y9ImKeT9CvottiBeOZA1-1" vertex="1"><mxGeometry y="156" width="220" height="26" as="geometry"/></mxCell><mxCell id="CkZUoxkiraXaLRMdNK0o-10" value="FK IdClase: int" style="text;strokeColor=#6c8ebf;fillColor=#dae8fc;align=left;verticalAlign=top;spacingLeft=4;spacingRight=4;overflow=hidden;rotatable=0;points=[[0,0.5],[1,0.5]];portConstraint=eastwest;" parent="y9ImKeT9CvottiBeOZA1-1" vertex="1"><mxGeometry y="182" width="220" height="26" as="geometry"/></mxCell><mxCell id="y9ImKeT9CvottiBeOZA1-8" value="Lockers" style="swimlane;fontStyle=0;childLayout=stackLayout;horizontal=1;startSize=26;fillColor=#d5e8d4;horizontalStack=0;resizeParent=1;resizeParentMax=0;resizeLast=0;collapsible=1;marginBottom=0;strokeColor=#82b366;" parent="1" vertex="1"><mxGeometry x="40" y="800" width="220" height="104" as="geometry"/></mxCell><mxCell id="y9ImKeT9CvottiBeOZA1-9" value="PK IdLocker: autoincrement int" style="text;strokeColor=#b85450;fillColor=#f8cecc;align=left;verticalAlign=top;spacingLeft=4;spacingRight=4;overflow=hidden;rotatable=0;points=[[0,0.5],[1,0.5]];portConstraint=eastwest;" parent="y9ImKeT9CvottiBeOZA1-8" vertex="1"><mxGeometry y="26" width="220" height="26" as="geometry"/></mxCell><mxCell id="y9ImKeT9CvottiBeOZA1-10" value="Nombre: varchar(10) not null" style="text;strokeColor=#666666;fillColor=#f5f5f5;align=left;verticalAlign=top;spacingLeft=4;spacingRight=4;overflow=hidden;rotatable=0;points=[[0,0.5],[1,0.5]];portConstraint=eastwest;fontColor=#333333;" parent="y9ImKeT9CvottiBeOZA1-8" vertex="1"><mxGeometry y="52" width="220" height="26" as="geometry"/></mxCell><mxCell id="y9ImKeT9CvottiBeOZA1-11" value="IdCliente: int not null" style="text;strokeColor=#666666;fillColor=#f5f5f5;align=left;verticalAlign=top;spacingLeft=4;spacingRight=4;overflow=hidden;rotatable=0;points=[[0,0.5],[1,0.5]];portConstraint=eastwest;fontColor=#333333;" parent="y9ImKeT9CvottiBeOZA1-8" vertex="1"><mxGeometry y="78" width="220" height="26" as="geometry"/></mxCell><mxCell id="CkZUoxkiraXaLRMdNK0o-1" value="Horarios" style="swimlane;fontStyle=0;childLayout=stackLayout;horizontal=1;startSize=26;fillColor=#d5e8d4;horizontalStack=0;resizeParent=1;resizeParentMax=0;resizeLast=0;collapsible=1;marginBottom=0;strokeColor=#82b366;" parent="1" vertex="1"><mxGeometry x="280" y="840" width="220" height="182" as="geometry"/></mxCell><mxCell id="CkZUoxkiraXaLRMdNK0o-2" value="PK IdHorario: autoincrement int" style="text;strokeColor=#b85450;fillColor=#f8cecc;align=left;verticalAlign=top;spacingLeft=4;spacingRight=4;overflow=hidden;rotatable=0;points=[[0,0.5],[1,0.5]];portConstraint=eastwest;" parent="CkZUoxkiraXaLRMdNK0o-1" vertex="1"><mxGeometry y="26" width="220" height="26" as="geometry"/></mxCell><mxCell id="CkZUoxkiraXaLRMdNK0o-3" value="Dia: varchar(50)" style="text;strokeColor=#666666;fillColor=#f5f5f5;align=left;verticalAlign=top;spacingLeft=4;spacingRight=4;overflow=hidden;rotatable=0;points=[[0,0.5],[1,0.5]];portConstraint=eastwest;fontColor=#333333;" parent="CkZUoxkiraXaLRMdNK0o-1" vertex="1"><mxGeometry y="52" width="220" height="26" as="geometry"/></mxCell><mxCell id="CkZUoxkiraXaLRMdNK0o-4" value="HoraInicio: varchar(10)" style="text;strokeColor=#666666;fillColor=#f5f5f5;align=left;verticalAlign=top;spacingLeft=4;spacingRight=4;overflow=hidden;rotatable=0;points=[[0,0.5],[1,0.5]];portConstraint=eastwest;fontColor=#333333;" parent="CkZUoxkiraXaLRMdNK0o-1" vertex="1"><mxGeometry y="78" width="220" height="26" as="geometry"/></mxCell><mxCell id="CkZUoxkiraXaLRMdNK0o-5" value="HoraFin: varchar(10)" style="text;strokeColor=#666666;fillColor=#f5f5f5;align=left;verticalAlign=top;spacingLeft=4;spacingRight=4;overflow=hidden;rotatable=0;points=[[0,0.5],[1,0.5]];portConstraint=eastwest;fontColor=#333333;" parent="CkZUoxkiraXaLRMdNK0o-1" vertex="1"><mxGeometry y="104" width="220" height="26" as="geometry"/></mxCell><mxCell id="5SahaQXDkVGtIxy-Vm8O-1" value="CupoActual: int" style="text;strokeColor=#666666;fillColor=#f5f5f5;align=left;verticalAlign=top;spacingLeft=4;spacingRight=4;overflow=hidden;rotatable=0;points=[[0,0.5],[1,0.5]];portConstraint=eastwest;fontColor=#333333;" parent="CkZUoxkiraXaLRMdNK0o-1" vertex="1"><mxGeometry y="130" width="220" height="26" as="geometry"/></mxCell><mxCell id="CkZUoxkiraXaLRMdNK0o-8" value="FK IdClase: int" style="text;strokeColor=#6c8ebf;fillColor=#dae8fc;align=left;verticalAlign=top;spacingLeft=4;spacingRight=4;overflow=hidden;rotatable=0;points=[[0,0.5],[1,0.5]];portConstraint=eastwest;" parent="CkZUoxkiraXaLRMdNK0o-1" vertex="1"><mxGeometry y="156" width="220" height="26" as="geometry"/></mxCell><mxCell id="CkZUoxkiraXaLRMdNK0o-12" value="TipoInstructores" style="swimlane;fontStyle=0;childLayout=stackLayout;horizontal=1;startSize=26;fillColor=#d5e8d4;horizontalStack=0;resizeParent=1;resizeParentMax=0;resizeLast=0;collapsible=1;marginBottom=0;strokeColor=#82b366;" parent="1" vertex="1"><mxGeometry x="520" y="640" width="220" height="104" as="geometry"/></mxCell><mxCell id="CkZUoxkiraXaLRMdNK0o-13" value="PK IdTipoInstructor: autoincrement int" style="text;strokeColor=#b85450;fillColor=#f8cecc;align=left;verticalAlign=top;spacingLeft=4;spacingRight=4;overflow=hidden;rotatable=0;points=[[0,0.5],[1,0.5]];portConstraint=eastwest;" parent="CkZUoxkiraXaLRMdNK0o-12" vertex="1"><mxGeometry y="26" width="220" height="26" as="geometry"/></mxCell><mxCell id="CkZUoxkiraXaLRMdNK0o-14" value="NombreTipoInstructor: varchar(30)" style="text;strokeColor=#666666;fillColor=#f5f5f5;align=left;verticalAlign=top;spacingLeft=4;spacingRight=4;overflow=hidden;rotatable=0;points=[[0,0.5],[1,0.5]];portConstraint=eastwest;fontColor=#333333;" parent="CkZUoxkiraXaLRMdNK0o-12" vertex="1"><mxGeometry y="52" width="220" height="26" as="geometry"/></mxCell><mxCell id="PRvqTG5W2udk6JEXw8GG-1" value="Descripcion: varchar(500)" style="text;strokeColor=#666666;fillColor=#f5f5f5;align=left;verticalAlign=top;spacingLeft=4;spacingRight=4;overflow=hidden;rotatable=0;points=[[0,0.5],[1,0.5]];portConstraint=eastwest;fontColor=#333333;" parent="CkZUoxkiraXaLRMdNK0o-12" vertex="1"><mxGeometry y="78" width="220" height="26" as="geometry"/></mxCell><mxCell id="CkZUoxkiraXaLRMdNK0o-18" value="Ventas" style="swimlane;fontStyle=0;childLayout=stackLayout;horizontal=1;startSize=26;fillColor=#d5e8d4;horizontalStack=0;resizeParent=1;resizeParentMax=0;resizeLast=0;collapsible=1;marginBottom=0;strokeColor=#82b366;" parent="1" vertex="1"><mxGeometry x="1000" y="480" width="220" height="130" as="geometry"/></mxCell><mxCell id="CkZUoxkiraXaLRMdNK0o-19" value="PK IdVenta: autoincrement int" style="text;strokeColor=#b85450;fillColor=#f8cecc;align=left;verticalAlign=top;spacingLeft=4;spacingRight=4;overflow=hidden;rotatable=0;points=[[0,0.5],[1,0.5]];portConstraint=eastwest;" parent="CkZUoxkiraXaLRMdNK0o-18" vertex="1"><mxGeometry y="26" width="220" height="26" as="geometry"/></mxCell><mxCell id="CkZUoxkiraXaLRMdNK0o-25" value="FechaVenta: datetime" style="text;strokeColor=#666666;fillColor=#f5f5f5;align=left;verticalAlign=top;spacingLeft=4;spacingRight=4;overflow=hidden;rotatable=0;points=[[0,0.5],[1,0.5]];portConstraint=eastwest;fontColor=#333333;" parent="CkZUoxkiraXaLRMdNK0o-18" vertex="1"><mxGeometry y="52" width="220" height="26" as="geometry"/></mxCell><mxCell id="CkZUoxkiraXaLRMdNK0o-20" value="Concepto: varchar(300)" style="text;strokeColor=#666666;fillColor=#f5f5f5;align=left;verticalAlign=top;spacingLeft=4;spacingRight=4;overflow=hidden;rotatable=0;points=[[0,0.5],[1,0.5]];portConstraint=eastwest;fontColor=#333333;" parent="CkZUoxkiraXaLRMdNK0o-18" vertex="1"><mxGeometry y="78" width="220" height="26" as="geometry"/></mxCell><mxCell id="CkZUoxkiraXaLRMdNK0o-21" value="Costo: int" style="text;strokeColor=#666666;fillColor=#f5f5f5;align=left;verticalAlign=top;spacingLeft=4;spacingRight=4;overflow=hidden;rotatable=0;points=[[0,0.5],[1,0.5]];portConstraint=eastwest;fontColor=#333333;" parent="CkZUoxkiraXaLRMdNK0o-18" vertex="1"><mxGeometry y="104" width="220" height="26" as="geometry"/></mxCell><mxCell id="Z4tNY2yRR-SMC4R6Pv2s-1" value="" style="rounded=0;whiteSpace=wrap;html=1;" parent="1" vertex="1"><mxGeometry x="1242.5" y="160" width="300" height="440" as="geometry"/></mxCell></root></mxGraphModel></diagram><diagram id="EvaSUCaE0S8vCjBPK-AN" name="Documentación"><mxGraphModel dx="1778" dy="1194" grid="1" gridSize="10" guides="1" tooltips="1" connect="1" arrows="1" fold="1" page="1" pageScale="1" pageWidth="850" pageHeight="1100" math="0" shadow="0"><root><mxCell id="wy_5gq077cGIpCPUV1k1-0"/><mxCell id="wy_5gq077cGIpCPUV1k1-1" parent="wy_5gq077cGIpCPUV1k1-0"/><mxCell id="kSaR8KAJzyfKxwCrd4_y-1" value="Clientes" style="swimlane;startSize=23;" parent="wy_5gq077cGIpCPUV1k1-1" vertex="1"><mxGeometry x="40" y="40" width="240" height="240" as="geometry"><mxRectangle x="40" y="40" width="80" height="23" as="alternateBounds"/></mxGeometry></mxCell><mxCell id="kSaR8KAJzyfKxwCrd4_y-4" value="&lt;ul&gt;&lt;li&gt;Dentro de esta tabla se guardaran todos los datos relativos a los clientes&lt;/li&gt;&lt;li&gt;Cada cliente tiene asociado o contrata un paquete&lt;/li&gt;&lt;li&gt;Cada cliente tiene asociado un tipo&lt;/li&gt;&lt;li&gt;Cada cliente puede o no contratar un locker&lt;/li&gt;&lt;li&gt;Cada cliente tiene un total de clases al mes (acumulativas)&lt;/li&gt;&lt;li&gt;Pero a su vez dichas clases puede ocuparlas un número limitado de ocasiones a la semana&lt;/li&gt;&lt;li&gt;Se les puede aplicar un descuento por promoción (si aplica)&lt;/li&gt;&lt;/ul&gt;" style="rounded=0;whiteSpace=wrap;html=1;" parent="kSaR8KAJzyfKxwCrd4_y-1" vertex="1"><mxGeometry y="20" width="240" height="220" as="geometry"/></mxCell><mxCell id="dcKL_iv2bOapOrUfM-JT-0" value="TipoClientes" style="swimlane;" parent="wy_5gq077cGIpCPUV1k1-1" vertex="1"><mxGeometry x="320" y="40" width="240" height="240" as="geometry"/></mxCell><mxCell id="dcKL_iv2bOapOrUfM-JT-1" value="Existen 3 tipos de clientes hasta el momento:&lt;br&gt;&lt;ul&gt;&lt;li&gt;Con membresía&lt;/li&gt;&lt;li&gt;Membresía con promoción&lt;/li&gt;&lt;li&gt;De clase&lt;/li&gt;&lt;/ul&gt;" style="rounded=0;whiteSpace=wrap;html=1;" parent="dcKL_iv2bOapOrUfM-JT-0" vertex="1"><mxGeometry y="20" width="240" height="220" as="geometry"/></mxCell><mxCell id="UnZHhiHjsF016oRjrmDC-0" value="Paquetes" style="swimlane;" parent="wy_5gq077cGIpCPUV1k1-1" vertex="1"><mxGeometry x="600" y="40" width="240" height="240" as="geometry"/></mxCell><mxCell id="UnZHhiHjsF016oRjrmDC-1" value="Existen distintos tipos de paquetes, los cuales tiene en cuenta las siguientes características:&lt;br&gt;&lt;ul&gt;&lt;li&gt;Nombre&lt;/li&gt;&lt;li&gt;Número de clases (totales y por semana)&lt;/li&gt;&lt;li&gt;Costo&lt;/li&gt;&lt;li&gt;Posibilidad de ir al Gym&lt;/li&gt;&lt;/ul&gt;&lt;div&gt;Por el planteamiento realizado, la solución que encontramos fue crear un paquete gym como paquete cero el cual solo tiene como atributo el poder ir al gym&amp;nbsp;&lt;/div&gt;" style="rounded=0;whiteSpace=wrap;html=1;" parent="UnZHhiHjsF016oRjrmDC-0" vertex="1"><mxGeometry y="20" width="240" height="220" as="geometry"/></mxCell><mxCell id="oOouI2NGIm0pgpxXi5n2-0" value="Lockers" style="swimlane;" parent="wy_5gq077cGIpCPUV1k1-1" vertex="1"><mxGeometry x="40" y="320" width="240" height="240" as="geometry"/></mxCell><mxCell id="vssldQkRXO0Bk5NddsnY-0" value="Los lockers al tener desconocimiento de como estaban etiquetados no solo contarán con un id, si no que además agregados un atributo nombre por si tiene un etiquetado específico y además un atributo idcliente con el cual se relacionará con el cliente" style="rounded=0;whiteSpace=wrap;html=1;" parent="oOouI2NGIm0pgpxXi5n2-0" vertex="1"><mxGeometry y="20" width="240" height="220" as="geometry"/></mxCell><mxCell id="UQBIfc0GWsV6FO_dUoig-0" value="Clases" style="swimlane;" parent="wy_5gq077cGIpCPUV1k1-1" vertex="1"><mxGeometry x="320" y="320" width="240" height="240" as="geometry"/></mxCell><mxCell id="UQBIfc0GWsV6FO_dUoig-1" value="Cada clase puede tener lo siguiente:&lt;br&gt;&lt;ul&gt;&lt;li&gt;Nombre&lt;/li&gt;&lt;li&gt;Descripción&lt;/li&gt;&lt;li&gt;Un pago para los instructores que den dicha clase&lt;/li&gt;&lt;li&gt;Un atributo de actividad para saber si dicha clase se da de baja&lt;/li&gt;&lt;li&gt;Un cupo maximo para saber si la clase está llena&lt;/li&gt;&lt;li&gt;El id del instructor que la imparte&lt;/li&gt;&lt;li&gt;El id del espacio en que se imparte&lt;/li&gt;&lt;/ul&gt;" style="rounded=0;whiteSpace=wrap;html=1;" parent="UQBIfc0GWsV6FO_dUoig-0" vertex="1"><mxGeometry y="20" width="240" height="220" as="geometry"/></mxCell><mxCell id="MmmwlbNzp3GYsyGbjeNg-0" value="Espacios" style="swimlane;" parent="wy_5gq077cGIpCPUV1k1-1" vertex="1"><mxGeometry x="600" y="320" width="240" height="240" as="geometry"/></mxCell><mxCell id="YA9Z2wx4e_lEEGl6CDv_-0" value="Los espacios tendrán un identificador único, un nombre con el cual puede ser marcado y una descripción" style="rounded=0;whiteSpace=wrap;html=1;" parent="MmmwlbNzp3GYsyGbjeNg-0" vertex="1"><mxGeometry y="20" width="240" height="220" as="geometry"/></mxCell><mxCell id="4pf3hI99ujw_lRICyok2-0" value="Horarios" style="swimlane;" parent="wy_5gq077cGIpCPUV1k1-1" vertex="1"><mxGeometry x="40" y="600" width="240" height="240" as="geometry"/></mxCell><mxCell id="4pf3hI99ujw_lRICyok2-1" value="" style="rounded=0;whiteSpace=wrap;html=1;" parent="4pf3hI99ujw_lRICyok2-0" vertex="1"><mxGeometry y="20" width="240" height="220" as="geometry"/></mxCell><mxCell id="4iw14XW7xRb14RQsppKE-0" value="Aquí se almacenarán los horarios con los siguientes atributos:&lt;br&gt;&lt;ul&gt;&lt;li&gt;Día&lt;/li&gt;&lt;li&gt;La hora en la que inicia&lt;/li&gt;&lt;li&gt;La hora en la que termina&lt;/li&gt;&lt;li&gt;Cupo&amp;nbsp; actual(este cupo es el cupo de personas por hora que tendrá cada clase)&lt;/li&gt;&lt;/ul&gt;" style="rounded=0;whiteSpace=wrap;html=1;" parent="4pf3hI99ujw_lRICyok2-0" vertex="1"><mxGeometry y="20" width="240" height="220" as="geometry"/></mxCell><mxCell id="wmCGnQsnYzOg9gajgnfc-0" value="Instructores" style="swimlane;" parent="wy_5gq077cGIpCPUV1k1-1" vertex="1"><mxGeometry x="320" y="600" width="240" height="240" as="geometry"/></mxCell><mxCell id="Oe5TIyqbxBm1fSxptc7o-0" value="Todos los datos relativos a instructores y cosas importantes a tomar en cuenta:&lt;br&gt;&lt;ul&gt;&lt;li&gt;Hora entrada&lt;/li&gt;&lt;li&gt;Hora salida&lt;/li&gt;&lt;li&gt;Días a laborar, donde se marcará cuantos días trabaja a la semana/mes&lt;/li&gt;&lt;li&gt;Días laborados, donde se marcará cuantos días asistió para saber si debemos descontar su sueldo&lt;/li&gt;&lt;li&gt;Sueldo a descontar, este se calculará en base a lo anterior&lt;/li&gt;&lt;li&gt;Tipo de instructor&lt;/li&gt;&lt;/ul&gt;" style="rounded=0;whiteSpace=wrap;html=1;" parent="wmCGnQsnYzOg9gajgnfc-0" vertex="1"><mxGeometry y="20" width="240" height="220" as="geometry"/></mxCell><mxCell id="0g_by39d3XRrvEGT_Q0H-0" value="TipoInstructores" style="swimlane;" parent="wy_5gq077cGIpCPUV1k1-1" vertex="1"><mxGeometry x="600" y="600" width="240" height="240" as="geometry"/></mxCell><mxCell id="Xs-qc1Bx0y8M86DMKtbp-1" value="Existen varios tipos de instructores documentados:&lt;br&gt;&lt;ul&gt;&lt;li&gt;De clase&lt;/li&gt;&lt;li&gt;Instructor&lt;/li&gt;&lt;li&gt;Instructor personal&lt;/li&gt;&lt;li&gt;Otros (supongo que con la capacidad de establecer otro)&lt;/li&gt;&lt;/ul&gt;" style="rounded=0;whiteSpace=wrap;html=1;" parent="0g_by39d3XRrvEGT_Q0H-0" vertex="1"><mxGeometry y="20" width="240" height="220" as="geometry"/></mxCell><mxCell id="X2N6sDGrqvu8-S3oNUMz-0" value="Pagos" style="swimlane;" parent="wy_5gq077cGIpCPUV1k1-1" vertex="1"><mxGeometry x="40" y="880" width="240" height="240" as="geometry"/></mxCell><mxCell id="DR5kMh3YMtFzTdMQSDRj-0" value="Tienen:&lt;br&gt;&lt;ul&gt;&lt;li&gt;Fecha en que son realizados&lt;/li&gt;&lt;li&gt;Quien los realizó&lt;/li&gt;&lt;li&gt;Si es de servicios (opcional)&lt;/li&gt;&lt;li&gt;Si es de nomina (opcional)&lt;/li&gt;&lt;li&gt;Si es de nomina posibilidad de elegir entre:&lt;/li&gt;&lt;li&gt;Usuarios / Instructores&lt;/li&gt;&lt;li&gt;Otros (opcional)&lt;/li&gt;&lt;li&gt;Concepto&lt;/li&gt;&lt;li&gt;Número de recibo&lt;/li&gt;&lt;li&gt;Monto&lt;/li&gt;&lt;/ul&gt;" style="rounded=0;whiteSpace=wrap;html=1;" parent="X2N6sDGrqvu8-S3oNUMz-0" vertex="1"><mxGeometry y="20" width="240" height="220" as="geometry"/></mxCell><mxCell id="DQOeHCwNI6t7UljtwRZB-0" value="ClientesRenta" style="swimlane;" parent="wy_5gq077cGIpCPUV1k1-1" vertex="1"><mxGeometry x="320" y="880" width="240" height="240" as="geometry"/></mxCell><mxCell id="yjeOMqsgu9NqZn0n9fcK-0" value="Todos los datos relativos a los clientes que rentan un espacio, nada especial a mencionar" style="rounded=0;whiteSpace=wrap;html=1;" parent="DQOeHCwNI6t7UljtwRZB-0" vertex="1"><mxGeometry y="20" width="240" height="220" as="geometry"/></mxCell><mxCell id="aZQaFmF9hEE4pcIJNH0Y-0" value="Rentas" style="swimlane;" parent="wy_5gq077cGIpCPUV1k1-1" vertex="1"><mxGeometry x="600" y="880" width="240" height="240" as="geometry"/></mxCell><mxCell id="3m9c__z9MkPNu81ey9qc-0" value="Tiene:&lt;br&gt;&lt;ul&gt;&lt;li&gt;Un identificador, cada renta es única&lt;/li&gt;&lt;li&gt;Fecha en que se realizó&lt;/li&gt;&lt;li&gt;Quién la rentó o rentará&lt;/li&gt;&lt;li&gt;Que espacio se usó o usará&lt;/li&gt;&lt;li&gt;Y en que horario se hizo dicha renta&lt;/li&gt;&lt;/ul&gt;" style="rounded=0;whiteSpace=wrap;html=1;" parent="aZQaFmF9hEE4pcIJNH0Y-0" vertex="1"><mxGeometry y="20" width="240" height="220" as="geometry"/></mxCell><mxCell id="EY5id2lmynLq5xNKcr_q-0" value="Usuarios" style="swimlane;" parent="wy_5gq077cGIpCPUV1k1-1" vertex="1"><mxGeometry x="40" y="1160" width="240" height="240" as="geometry"/></mxCell><mxCell id="XvMZ4CeoUbej5sXzUkoy-0" value="" style="rounded=0;whiteSpace=wrap;html=1;" parent="EY5id2lmynLq5xNKcr_q-0" vertex="1"><mxGeometry y="20" width="240" height="220" as="geometry"/></mxCell><mxCell id="-oYjh3yAxuSpMv9tMk19-0" value="Todos los datos relativos a los usuarios con las siguientes peculiaridades:&lt;br&gt;&lt;ul&gt;&lt;li&gt;Nombre de usuario con el cual entrarán a sistema&lt;/li&gt;&lt;li&gt;Contraseña para entrar&lt;/li&gt;&lt;/ul&gt;" style="rounded=0;whiteSpace=wrap;html=1;" parent="EY5id2lmynLq5xNKcr_q-0" vertex="1"><mxGeometry y="20" width="240" height="220" as="geometry"/></mxCell><mxCell id="-oYjh3yAxuSpMv9tMk19-1" value="Ventas" style="swimlane;" parent="wy_5gq077cGIpCPUV1k1-1" vertex="1"><mxGeometry x="320" y="1160" width="240" height="240" as="geometry"/></mxCell><mxCell id="JTMvpe5anbtQXh5cLDfC-0" value="&lt;ul&gt;&lt;li&gt;Cada venta tiene un identificador&lt;/li&gt;&lt;li&gt;Una fecha en que se realizó&lt;/li&gt;&lt;li&gt;Un concepto, como: &quot;Visita de niño&quot;, &quot;Visita de adulto&quot;, etc.&lt;/li&gt;&lt;li&gt;Y un costo&lt;/li&gt;&lt;/ul&gt;" style="rounded=0;whiteSpace=wrap;html=1;" parent="-oYjh3yAxuSpMv9tMk19-1" vertex="1"><mxGeometry y="20" width="240" height="220" as="geometry"/></mxCell><mxCell id="W67_priyyIreuZJC3dBZ-0" value="Ingresos" style="swimlane;" parent="wy_5gq077cGIpCPUV1k1-1" vertex="1"><mxGeometry x="600" y="1160" width="240" height="240" as="geometry"/></mxCell><mxCell id="0PZtCvHK06uqfir9Dsqb-0" value="Todos los ingresos generados tienen los siguientes atributos:&lt;br&gt;&lt;ul&gt;&lt;li&gt;La fecha en que se realizó&lt;/li&gt;&lt;li&gt;El id renta si es que el ingreso es por una renta&lt;/li&gt;&lt;li&gt;El id venta si es por un ingreso de venta&lt;/li&gt;&lt;li&gt;El id cliente si es relativo a pago de paquetes o mensualidad de dicho cliente&lt;/li&gt;&lt;li&gt;Otros (opcional)&lt;/li&gt;&lt;li&gt;Concepto&lt;/li&gt;&lt;li&gt;El recibo y el monto&lt;/li&gt;&lt;/ul&gt;" style="rounded=0;whiteSpace=wrap;html=1;" parent="W67_priyyIreuZJC3dBZ-0" vertex="1"><mxGeometry y="20" width="240" height="220" as="geometry"/></mxCell></root></mxGraphModel></diagram><diagram id="7LcpJSEb2NOitDf3gMlm" name="In-Out"><mxGraphModel dx="1778" dy="1194" grid="1" gridSize="10" guides="1" tooltips="1" connect="1" arrows="1" fold="1" page="1" pageScale="1" pageWidth="827" pageHeight="1169" math="0" shadow="0"><root><mxCell id="EBrFU-9Dl6ynX_BoGAA2-0"/><mxCell id="EBrFU-9Dl6ynX_BoGAA2-1" parent="EBrFU-9Dl6ynX_BoGAA2-0"/><mxCell id="Ymm-aYq7ITdzIqag5qRW-0" value="Cliente" style="shape=table;startSize=30;container=1;collapsible=1;childLayout=tableLayout;fixedRows=1;rowLines=0;fontStyle=1;align=center;resizeLast=1;" parent="EBrFU-9Dl6ynX_BoGAA2-1" vertex="1"><mxGeometry x="10" y="130" width="320" height="730" as="geometry"/></mxCell><mxCell id="Ymm-aYq7ITdzIqag5qRW-1" value="" style="shape=partialRectangle;collapsible=0;dropTarget=0;pointerEvents=0;fillColor=none;points=[[0,0.5],[1,0.5]];portConstraint=eastwest;top=0;left=0;right=0;bottom=1;" parent="Ymm-aYq7ITdzIqag5qRW-0" vertex="1"><mxGeometry y="30" width="320" height="30" as="geometry"/></mxCell><mxCell id="Ymm-aYq7ITdzIqag5qRW-2" value="A" style="shape=partialRectangle;overflow=hidden;connectable=0;fillColor=none;top=0;left=0;bottom=0;right=0;fontStyle=1;" parent="Ymm-aYq7ITdzIqag5qRW-1" vertex="1"><mxGeometry width="30" height="30" as="geometry"><mxRectangle width="30" height="30" as="alternateBounds"/></mxGeometry></mxCell><mxCell id="Ymm-aYq7ITdzIqag5qRW-3" value="IdCliente int AUTO_INCREMENT " style="shape=partialRectangle;overflow=hidden;connectable=0;fillColor=none;top=0;left=0;bottom=0;right=0;align=left;spacingLeft=6;fontStyle=5;" parent="Ymm-aYq7ITdzIqag5qRW-1" vertex="1"><mxGeometry x="30" width="290" height="30" as="geometry"><mxRectangle width="290" height="30" as="alternateBounds"/></mxGeometry></mxCell><mxCell id="Ymm-aYq7ITdzIqag5qRW-4" value="" style="shape=partialRectangle;collapsible=0;dropTarget=0;pointerEvents=0;fillColor=none;points=[[0,0.5],[1,0.5]];portConstraint=eastwest;top=0;left=0;right=0;bottom=0;" parent="Ymm-aYq7ITdzIqag5qRW-0" vertex="1"><mxGeometry y="60" width="320" height="30" as="geometry"/></mxCell><mxCell id="Ymm-aYq7ITdzIqag5qRW-5" value="NE" style="shape=partialRectangle;overflow=hidden;connectable=0;fillColor=none;top=0;left=0;bottom=0;right=0;" parent="Ymm-aYq7ITdzIqag5qRW-4" vertex="1"><mxGeometry width="30" height="30" as="geometry"><mxRectangle width="30" height="30" as="alternateBounds"/></mxGeometry></mxCell><mxCell id="Ymm-aYq7ITdzIqag5qRW-6" value="Nombre varchar(30) not null not null" style="shape=partialRectangle;overflow=hidden;connectable=0;fillColor=none;top=0;left=0;bottom=0;right=0;align=left;spacingLeft=6;" parent="Ymm-aYq7ITdzIqag5qRW-4" vertex="1"><mxGeometry x="30" width="290" height="30" as="geometry"><mxRectangle width="290" height="30" as="alternateBounds"/></mxGeometry></mxCell><mxCell id="Ymm-aYq7ITdzIqag5qRW-7" value="" style="shape=partialRectangle;collapsible=0;dropTarget=0;pointerEvents=0;fillColor=none;points=[[0,0.5],[1,0.5]];portConstraint=eastwest;top=0;left=0;right=0;bottom=0;" parent="Ymm-aYq7ITdzIqag5qRW-0" vertex="1"><mxGeometry y="90" width="320" height="30" as="geometry"/></mxCell><mxCell id="Ymm-aYq7ITdzIqag5qRW-8" value="NE" style="shape=partialRectangle;overflow=hidden;connectable=0;fillColor=none;top=0;left=0;bottom=0;right=0;" parent="Ymm-aYq7ITdzIqag5qRW-7" vertex="1"><mxGeometry width="30" height="30" as="geometry"><mxRectangle width="30" height="30" as="alternateBounds"/></mxGeometry></mxCell><mxCell id="Ymm-aYq7ITdzIqag5qRW-9" value="ApellidoPaterno varchar(30) not null" style="shape=partialRectangle;overflow=hidden;connectable=0;fillColor=none;top=0;left=0;bottom=0;right=0;align=left;spacingLeft=6;" parent="Ymm-aYq7ITdzIqag5qRW-7" vertex="1"><mxGeometry x="30" width="290" height="30" as="geometry"><mxRectangle width="290" height="30" as="alternateBounds"/></mxGeometry></mxCell><mxCell id="Ymm-aYq7ITdzIqag5qRW-10" value="" style="shape=partialRectangle;collapsible=0;dropTarget=0;pointerEvents=0;fillColor=none;points=[[0,0.5],[1,0.5]];portConstraint=eastwest;top=0;left=0;right=0;bottom=0;" parent="Ymm-aYq7ITdzIqag5qRW-0" vertex="1"><mxGeometry y="120" width="320" height="30" as="geometry"/></mxCell><mxCell id="Ymm-aYq7ITdzIqag5qRW-11" value="NE" style="shape=partialRectangle;overflow=hidden;connectable=0;fillColor=none;top=0;left=0;bottom=0;right=0;" parent="Ymm-aYq7ITdzIqag5qRW-10" vertex="1"><mxGeometry width="30" height="30" as="geometry"><mxRectangle width="30" height="30" as="alternateBounds"/></mxGeometry></mxCell><mxCell id="Ymm-aYq7ITdzIqag5qRW-12" value="ApellidoMaterno varchar(30) not null" style="shape=partialRectangle;overflow=hidden;connectable=0;fillColor=none;top=0;left=0;bottom=0;right=0;align=left;spacingLeft=6;" parent="Ymm-aYq7ITdzIqag5qRW-10" vertex="1"><mxGeometry x="30" width="290" height="30" as="geometry"><mxRectangle width="290" height="30" as="alternateBounds"/></mxGeometry></mxCell><mxCell id="Ymm-aYq7ITdzIqag5qRW-13" value="" style="shape=partialRectangle;collapsible=0;dropTarget=0;pointerEvents=0;fillColor=none;points=[[0,0.5],[1,0.5]];portConstraint=eastwest;top=0;left=0;right=0;bottom=0;" parent="Ymm-aYq7ITdzIqag5qRW-0" vertex="1"><mxGeometry y="150" width="320" height="30" as="geometry"/></mxCell><mxCell id="Ymm-aYq7ITdzIqag5qRW-14" value="E" style="shape=partialRectangle;overflow=hidden;connectable=0;fillColor=none;top=0;left=0;bottom=0;right=0;" parent="Ymm-aYq7ITdzIqag5qRW-13" vertex="1"><mxGeometry width="30" height="30" as="geometry"><mxRectangle width="30" height="30" as="alternateBounds"/></mxGeometry></mxCell><mxCell id="Ymm-aYq7ITdzIqag5qRW-15" value="Domicilio varchar(150) not null" style="shape=partialRectangle;overflow=hidden;connectable=0;fillColor=none;top=0;left=0;bottom=0;right=0;align=left;spacingLeft=6;" parent="Ymm-aYq7ITdzIqag5qRW-13" vertex="1"><mxGeometry x="30" width="290" height="30" as="geometry"><mxRectangle width="290" height="30" as="alternateBounds"/></mxGeometry></mxCell><mxCell id="Ymm-aYq7ITdzIqag5qRW-16" value="" style="shape=partialRectangle;collapsible=0;dropTarget=0;pointerEvents=0;fillColor=none;points=[[0,0.5],[1,0.5]];portConstraint=eastwest;top=0;left=0;right=0;bottom=0;" parent="Ymm-aYq7ITdzIqag5qRW-0" vertex="1"><mxGeometry y="180" width="320" height="30" as="geometry"/></mxCell><mxCell id="Ymm-aYq7ITdzIqag5qRW-17" value="NE" style="shape=partialRectangle;overflow=hidden;connectable=0;fillColor=none;top=0;left=0;bottom=0;right=0;" parent="Ymm-aYq7ITdzIqag5qRW-16" vertex="1"><mxGeometry width="30" height="30" as="geometry"><mxRectangle width="30" height="30" as="alternateBounds"/></mxGeometry></mxCell><mxCell id="Ymm-aYq7ITdzIqag5qRW-18" value="FechaNacimiento datetime not null" style="shape=partialRectangle;overflow=hidden;connectable=0;fillColor=none;top=0;left=0;bottom=0;right=0;align=left;spacingLeft=6;" parent="Ymm-aYq7ITdzIqag5qRW-16" vertex="1"><mxGeometry x="30" width="290" height="30" as="geometry"><mxRectangle width="290" height="30" as="alternateBounds"/></mxGeometry></mxCell><mxCell id="Ymm-aYq7ITdzIqag5qRW-19" value="" style="shape=partialRectangle;collapsible=0;dropTarget=0;pointerEvents=0;fillColor=none;points=[[0,0.5],[1,0.5]];portConstraint=eastwest;top=0;left=0;right=0;bottom=0;" parent="Ymm-aYq7ITdzIqag5qRW-0" vertex="1"><mxGeometry y="210" width="320" height="30" as="geometry"/></mxCell><mxCell id="Ymm-aYq7ITdzIqag5qRW-20" value="E" style="shape=partialRectangle;overflow=hidden;connectable=0;fillColor=none;top=0;left=0;bottom=0;right=0;" parent="Ymm-aYq7ITdzIqag5qRW-19" vertex="1"><mxGeometry width="30" height="30" as="geometry"><mxRectangle width="30" height="30" as="alternateBounds"/></mxGeometry></mxCell><mxCell id="Ymm-aYq7ITdzIqag5qRW-21" value="Telefono varchar(10) unique not null" style="shape=partialRectangle;overflow=hidden;connectable=0;fillColor=none;top=0;left=0;bottom=0;right=0;align=left;spacingLeft=6;" parent="Ymm-aYq7ITdzIqag5qRW-19" vertex="1"><mxGeometry x="30" width="290" height="30" as="geometry"><mxRectangle width="290" height="30" as="alternateBounds"/></mxGeometry></mxCell><mxCell id="Ymm-aYq7ITdzIqag5qRW-22" value="" style="shape=partialRectangle;collapsible=0;dropTarget=0;pointerEvents=0;fillColor=none;points=[[0,0.5],[1,0.5]];portConstraint=eastwest;top=0;left=0;right=0;bottom=0;" parent="Ymm-aYq7ITdzIqag5qRW-0" vertex="1"><mxGeometry y="240" width="320" height="30" as="geometry"/></mxCell><mxCell id="Ymm-aYq7ITdzIqag5qRW-23" value="E" style="shape=partialRectangle;overflow=hidden;connectable=0;fillColor=none;top=0;left=0;bottom=0;right=0;" parent="Ymm-aYq7ITdzIqag5qRW-22" vertex="1"><mxGeometry width="30" height="30" as="geometry"><mxRectangle width="30" height="30" as="alternateBounds"/></mxGeometry></mxCell><mxCell id="Ymm-aYq7ITdzIqag5qRW-24" value="CondicionEspecial bool not null" style="shape=partialRectangle;overflow=hidden;connectable=0;fillColor=none;top=0;left=0;bottom=0;right=0;align=left;spacingLeft=6;" parent="Ymm-aYq7ITdzIqag5qRW-22" vertex="1"><mxGeometry x="30" width="290" height="30" as="geometry"><mxRectangle width="290" height="30" as="alternateBounds"/></mxGeometry></mxCell><mxCell id="Ymm-aYq7ITdzIqag5qRW-25" value="" style="shape=partialRectangle;collapsible=0;dropTarget=0;pointerEvents=0;fillColor=none;points=[[0,0.5],[1,0.5]];portConstraint=eastwest;top=0;left=0;right=0;bottom=0;" parent="Ymm-aYq7ITdzIqag5qRW-0" vertex="1"><mxGeometry y="270" width="320" height="30" as="geometry"/></mxCell><mxCell id="Ymm-aYq7ITdzIqag5qRW-26" value="E" style="shape=partialRectangle;overflow=hidden;connectable=0;fillColor=none;top=0;left=0;bottom=0;right=0;" parent="Ymm-aYq7ITdzIqag5qRW-25" vertex="1"><mxGeometry width="30" height="30" as="geometry"><mxRectangle width="30" height="30" as="alternateBounds"/></mxGeometry></mxCell><mxCell id="Ymm-aYq7ITdzIqag5qRW-27" value="NombreContacto varchar(30)" style="shape=partialRectangle;overflow=hidden;connectable=0;fillColor=none;top=0;left=0;bottom=0;right=0;align=left;spacingLeft=6;" parent="Ymm-aYq7ITdzIqag5qRW-25" vertex="1"><mxGeometry x="30" width="290" height="30" as="geometry"><mxRectangle width="290" height="30" as="alternateBounds"/></mxGeometry></mxCell><mxCell id="Ymm-aYq7ITdzIqag5qRW-28" value="" style="shape=partialRectangle;collapsible=0;dropTarget=0;pointerEvents=0;fillColor=none;points=[[0,0.5],[1,0.5]];portConstraint=eastwest;top=0;left=0;right=0;bottom=0;" parent="Ymm-aYq7ITdzIqag5qRW-0" vertex="1"><mxGeometry y="300" width="320" height="30" as="geometry"/></mxCell><mxCell id="Ymm-aYq7ITdzIqag5qRW-29" value="E" style="shape=partialRectangle;overflow=hidden;connectable=0;fillColor=none;top=0;left=0;bottom=0;right=0;" parent="Ymm-aYq7ITdzIqag5qRW-28" vertex="1"><mxGeometry width="30" height="30" as="geometry"><mxRectangle width="30" height="30" as="alternateBounds"/></mxGeometry></mxCell><mxCell id="Ymm-aYq7ITdzIqag5qRW-30" value="TelefonoContacto varchar(10)" style="shape=partialRectangle;overflow=hidden;connectable=0;fillColor=none;top=0;left=0;bottom=0;right=0;align=left;spacingLeft=6;" parent="Ymm-aYq7ITdzIqag5qRW-28" vertex="1"><mxGeometry x="30" width="290" height="30" as="geometry"><mxRectangle width="290" height="30" as="alternateBounds"/></mxGeometry></mxCell><mxCell id="Ymm-aYq7ITdzIqag5qRW-31" value="" style="shape=partialRectangle;collapsible=0;dropTarget=0;pointerEvents=0;fillColor=none;points=[[0,0.5],[1,0.5]];portConstraint=eastwest;top=0;left=0;right=0;bottom=0;" parent="Ymm-aYq7ITdzIqag5qRW-0" vertex="1"><mxGeometry y="330" width="320" height="30" as="geometry"/></mxCell><mxCell id="Ymm-aYq7ITdzIqag5qRW-32" value="E" style="shape=partialRectangle;overflow=hidden;connectable=0;fillColor=none;top=0;left=0;bottom=0;right=0;" parent="Ymm-aYq7ITdzIqag5qRW-31" vertex="1"><mxGeometry width="30" height="30" as="geometry"><mxRectangle width="30" height="30" as="alternateBounds"/></mxGeometry></mxCell><mxCell id="Ymm-aYq7ITdzIqag5qRW-33" value="Foto blob" style="shape=partialRectangle;overflow=hidden;connectable=0;fillColor=none;top=0;left=0;bottom=0;right=0;align=left;spacingLeft=6;" parent="Ymm-aYq7ITdzIqag5qRW-31" vertex="1"><mxGeometry x="30" width="290" height="30" as="geometry"><mxRectangle width="290" height="30" as="alternateBounds"/></mxGeometry></mxCell><mxCell id="Ymm-aYq7ITdzIqag5qRW-34" value="" style="shape=partialRectangle;collapsible=0;dropTarget=0;pointerEvents=0;fillColor=none;points=[[0,0.5],[1,0.5]];portConstraint=eastwest;top=0;left=0;right=0;bottom=0;" parent="Ymm-aYq7ITdzIqag5qRW-0" vertex="1"><mxGeometry y="360" width="320" height="30" as="geometry"/></mxCell><mxCell id="Ymm-aYq7ITdzIqag5qRW-35" value="A" style="shape=partialRectangle;overflow=hidden;connectable=0;fillColor=none;top=0;left=0;bottom=0;right=0;" parent="Ymm-aYq7ITdzIqag5qRW-34" vertex="1"><mxGeometry width="30" height="30" as="geometry"><mxRectangle width="30" height="30" as="alternateBounds"/></mxGeometry></mxCell><mxCell id="Ymm-aYq7ITdzIqag5qRW-36" value="FechaUltimoAcceso datetime" style="shape=partialRectangle;overflow=hidden;connectable=0;fillColor=none;top=0;left=0;bottom=0;right=0;align=left;spacingLeft=6;" parent="Ymm-aYq7ITdzIqag5qRW-34" vertex="1"><mxGeometry x="30" width="290" height="30" as="geometry"><mxRectangle width="290" height="30" as="alternateBounds"/></mxGeometry></mxCell><mxCell id="Ymm-aYq7ITdzIqag5qRW-37" value="" style="shape=partialRectangle;collapsible=0;dropTarget=0;pointerEvents=0;fillColor=none;points=[[0,0.5],[1,0.5]];portConstraint=eastwest;top=0;left=0;right=0;bottom=0;" parent="Ymm-aYq7ITdzIqag5qRW-0" vertex="1"><mxGeometry y="390" width="320" height="30" as="geometry"/></mxCell><mxCell id="Ymm-aYq7ITdzIqag5qRW-38" value="A" style="shape=partialRectangle;overflow=hidden;connectable=0;fillColor=none;top=0;left=0;bottom=0;right=0;" parent="Ymm-aYq7ITdzIqag5qRW-37" vertex="1"><mxGeometry width="30" height="30" as="geometry"><mxRectangle width="30" height="30" as="alternateBounds"/></mxGeometry></mxCell><mxCell id="Ymm-aYq7ITdzIqag5qRW-39" value="MontoUltimoPago decimal" style="shape=partialRectangle;overflow=hidden;connectable=0;fillColor=none;top=0;left=0;bottom=0;right=0;align=left;spacingLeft=6;" parent="Ymm-aYq7ITdzIqag5qRW-37" vertex="1"><mxGeometry x="30" width="290" height="30" as="geometry"><mxRectangle width="290" height="30" as="alternateBounds"/></mxGeometry></mxCell><mxCell id="Ymm-aYq7ITdzIqag5qRW-40" value="" style="shape=partialRectangle;collapsible=0;dropTarget=0;pointerEvents=0;fillColor=none;points=[[0,0.5],[1,0.5]];portConstraint=eastwest;top=0;left=0;right=0;bottom=0;" parent="Ymm-aYq7ITdzIqag5qRW-0" vertex="1"><mxGeometry y="420" width="320" height="30" as="geometry"/></mxCell><mxCell id="Ymm-aYq7ITdzIqag5qRW-41" value="E" style="shape=partialRectangle;overflow=hidden;connectable=0;fillColor=none;top=0;left=0;bottom=0;right=0;" parent="Ymm-aYq7ITdzIqag5qRW-40" vertex="1"><mxGeometry width="30" height="30" as="geometry"><mxRectangle width="30" height="30" as="alternateBounds"/></mxGeometry></mxCell><mxCell id="Ymm-aYq7ITdzIqag5qRW-42" value="Activo bool" style="shape=partialRectangle;overflow=hidden;connectable=0;fillColor=none;top=0;left=0;bottom=0;right=0;align=left;spacingLeft=6;" parent="Ymm-aYq7ITdzIqag5qRW-40" vertex="1"><mxGeometry x="30" width="290" height="30" as="geometry"><mxRectangle width="290" height="30" as="alternateBounds"/></mxGeometry></mxCell><mxCell id="Ymm-aYq7ITdzIqag5qRW-43" value="" style="shape=partialRectangle;collapsible=0;dropTarget=0;pointerEvents=0;fillColor=none;points=[[0,0.5],[1,0.5]];portConstraint=eastwest;top=0;left=0;right=0;bottom=0;" parent="Ymm-aYq7ITdzIqag5qRW-0" vertex="1"><mxGeometry y="450" width="320" height="30" as="geometry"/></mxCell><mxCell id="Ymm-aYq7ITdzIqag5qRW-44" value="A" style="shape=partialRectangle;overflow=hidden;connectable=0;fillColor=none;top=0;left=0;bottom=0;right=0;" parent="Ymm-aYq7ITdzIqag5qRW-43" vertex="1"><mxGeometry width="30" height="30" as="geometry"><mxRectangle width="30" height="30" as="alternateBounds"/></mxGeometry></mxCell><mxCell id="Ymm-aYq7ITdzIqag5qRW-45" value="FechaVencimientoPago datetime" style="shape=partialRectangle;overflow=hidden;connectable=0;fillColor=none;top=0;left=0;bottom=0;right=0;align=left;spacingLeft=6;" parent="Ymm-aYq7ITdzIqag5qRW-43" vertex="1"><mxGeometry x="30" width="290" height="30" as="geometry"><mxRectangle width="290" height="30" as="alternateBounds"/></mxGeometry></mxCell><mxCell id="Ymm-aYq7ITdzIqag5qRW-46" value="" style="shape=partialRectangle;collapsible=0;dropTarget=0;pointerEvents=0;fillColor=none;points=[[0,0.5],[1,0.5]];portConstraint=eastwest;top=0;left=0;right=0;bottom=0;" parent="Ymm-aYq7ITdzIqag5qRW-0" vertex="1"><mxGeometry y="480" width="320" height="30" as="geometry"/></mxCell><mxCell id="Ymm-aYq7ITdzIqag5qRW-47" value="A" style="shape=partialRectangle;overflow=hidden;connectable=0;fillColor=none;top=0;left=0;bottom=0;right=0;" parent="Ymm-aYq7ITdzIqag5qRW-46" vertex="1"><mxGeometry width="30" height="30" as="geometry"><mxRectangle width="30" height="30" as="alternateBounds"/></mxGeometry></mxCell><mxCell id="Ymm-aYq7ITdzIqag5qRW-48" value="DeudaCliente decimal" style="shape=partialRectangle;overflow=hidden;connectable=0;fillColor=none;top=0;left=0;bottom=0;right=0;align=left;spacingLeft=6;" parent="Ymm-aYq7ITdzIqag5qRW-46" vertex="1"><mxGeometry x="30" width="290" height="30" as="geometry"><mxRectangle width="290" height="30" as="alternateBounds"/></mxGeometry></mxCell><mxCell id="Ymm-aYq7ITdzIqag5qRW-49" value="" style="shape=partialRectangle;collapsible=0;dropTarget=0;pointerEvents=0;fillColor=none;points=[[0,0.5],[1,0.5]];portConstraint=eastwest;top=0;left=0;right=0;bottom=0;" parent="Ymm-aYq7ITdzIqag5qRW-0" vertex="1"><mxGeometry y="510" width="320" height="30" as="geometry"/></mxCell><mxCell id="Ymm-aYq7ITdzIqag5qRW-50" value="NE" style="shape=partialRectangle;overflow=hidden;connectable=0;fillColor=none;top=0;left=0;bottom=0;right=0;" parent="Ymm-aYq7ITdzIqag5qRW-49" vertex="1"><mxGeometry width="30" height="30" as="geometry"><mxRectangle width="30" height="30" as="alternateBounds"/></mxGeometry></mxCell><mxCell id="Ymm-aYq7ITdzIqag5qRW-51" value="MedioConocio varchar(300)" style="shape=partialRectangle;overflow=hidden;connectable=0;fillColor=none;top=0;left=0;bottom=0;right=0;align=left;spacingLeft=6;" parent="Ymm-aYq7ITdzIqag5qRW-49" vertex="1"><mxGeometry x="30" width="290" height="30" as="geometry"><mxRectangle width="290" height="30" as="alternateBounds"/></mxGeometry></mxCell><mxCell id="Ymm-aYq7ITdzIqag5qRW-52" value="" style="shape=partialRectangle;collapsible=0;dropTarget=0;pointerEvents=0;fillColor=none;points=[[0,0.5],[1,0.5]];portConstraint=eastwest;top=0;left=0;right=0;bottom=0;" parent="Ymm-aYq7ITdzIqag5qRW-0" vertex="1"><mxGeometry y="540" width="320" height="30" as="geometry"/></mxCell><mxCell id="Ymm-aYq7ITdzIqag5qRW-53" value="A" style="shape=partialRectangle;overflow=hidden;connectable=0;fillColor=none;top=0;left=0;bottom=0;right=0;" parent="Ymm-aYq7ITdzIqag5qRW-52" vertex="1"><mxGeometry width="30" height="30" as="geometry"><mxRectangle width="30" height="30" as="alternateBounds"/></mxGeometry></mxCell><mxCell id="Ymm-aYq7ITdzIqag5qRW-54" value="ClasesTotalesDisponibles int, " style="shape=partialRectangle;overflow=hidden;connectable=0;fillColor=none;top=0;left=0;bottom=0;right=0;align=left;spacingLeft=6;" parent="Ymm-aYq7ITdzIqag5qRW-52" vertex="1"><mxGeometry x="30" width="290" height="30" as="geometry"><mxRectangle width="290" height="30" as="alternateBounds"/></mxGeometry></mxCell><mxCell id="Ymm-aYq7ITdzIqag5qRW-55" value="" style="shape=partialRectangle;collapsible=0;dropTarget=0;pointerEvents=0;fillColor=none;points=[[0,0.5],[1,0.5]];portConstraint=eastwest;top=0;left=0;right=0;bottom=0;" parent="Ymm-aYq7ITdzIqag5qRW-0" vertex="1"><mxGeometry y="570" width="320" height="30" as="geometry"/></mxCell><mxCell id="Ymm-aYq7ITdzIqag5qRW-56" value="A" style="shape=partialRectangle;overflow=hidden;connectable=0;fillColor=none;top=0;left=0;bottom=0;right=0;" parent="Ymm-aYq7ITdzIqag5qRW-55" vertex="1"><mxGeometry width="30" height="30" as="geometry"><mxRectangle width="30" height="30" as="alternateBounds"/></mxGeometry></mxCell><mxCell id="Ymm-aYq7ITdzIqag5qRW-57" value="ClasesSemanaDisponibles int, " style="shape=partialRectangle;overflow=hidden;connectable=0;fillColor=none;top=0;left=0;bottom=0;right=0;align=left;spacingLeft=6;" parent="Ymm-aYq7ITdzIqag5qRW-55" vertex="1"><mxGeometry x="30" width="290" height="30" as="geometry"><mxRectangle width="290" height="30" as="alternateBounds"/></mxGeometry></mxCell><mxCell id="Ymm-aYq7ITdzIqag5qRW-58" value="" style="shape=partialRectangle;collapsible=0;dropTarget=0;pointerEvents=0;fillColor=none;points=[[0,0.5],[1,0.5]];portConstraint=eastwest;top=0;left=0;right=0;bottom=0;" parent="Ymm-aYq7ITdzIqag5qRW-0" vertex="1"><mxGeometry y="600" width="320" height="30" as="geometry"/></mxCell><mxCell id="Ymm-aYq7ITdzIqag5qRW-59" value="E" style="shape=partialRectangle;overflow=hidden;connectable=0;fillColor=none;top=0;left=0;bottom=0;right=0;" parent="Ymm-aYq7ITdzIqag5qRW-58" vertex="1"><mxGeometry width="30" height="30" as="geometry"><mxRectangle width="30" height="30" as="alternateBounds"/></mxGeometry></mxCell><mxCell id="Ymm-aYq7ITdzIqag5qRW-60" value="Descuento decimal, " style="shape=partialRectangle;overflow=hidden;connectable=0;fillColor=none;top=0;left=0;bottom=0;right=0;align=left;spacingLeft=6;" parent="Ymm-aYq7ITdzIqag5qRW-58" vertex="1"><mxGeometry x="30" width="290" height="30" as="geometry"><mxRectangle width="290" height="30" as="alternateBounds"/></mxGeometry></mxCell><mxCell id="Ymm-aYq7ITdzIqag5qRW-61" value="" style="shape=partialRectangle;collapsible=0;dropTarget=0;pointerEvents=0;fillColor=none;points=[[0,0.5],[1,0.5]];portConstraint=eastwest;top=0;left=0;right=0;bottom=0;" parent="Ymm-aYq7ITdzIqag5qRW-0" vertex="1"><mxGeometry y="630" width="320" height="30" as="geometry"/></mxCell><mxCell id="Ymm-aYq7ITdzIqag5qRW-62" value="E" style="shape=partialRectangle;overflow=hidden;connectable=0;fillColor=none;top=0;left=0;bottom=0;right=0;" parent="Ymm-aYq7ITdzIqag5qRW-61" vertex="1"><mxGeometry width="30" height="30" as="geometry"><mxRectangle width="30" height="30" as="alternateBounds"/></mxGeometry></mxCell><mxCell id="Ymm-aYq7ITdzIqag5qRW-63" value="Nino bool, " style="shape=partialRectangle;overflow=hidden;connectable=0;fillColor=none;top=0;left=0;bottom=0;right=0;align=left;spacingLeft=6;" parent="Ymm-aYq7ITdzIqag5qRW-61" vertex="1"><mxGeometry x="30" width="290" height="30" as="geometry"><mxRectangle width="290" height="30" as="alternateBounds"/></mxGeometry></mxCell><mxCell id="Ymm-aYq7ITdzIqag5qRW-64" value="" style="shape=partialRectangle;collapsible=0;dropTarget=0;pointerEvents=0;fillColor=none;points=[[0,0.5],[1,0.5]];portConstraint=eastwest;top=0;left=0;right=0;bottom=0;" parent="Ymm-aYq7ITdzIqag5qRW-0" vertex="1"><mxGeometry y="660" width="320" height="30" as="geometry"/></mxCell><mxCell id="Ymm-aYq7ITdzIqag5qRW-65" value="E" style="shape=partialRectangle;overflow=hidden;connectable=0;fillColor=none;top=0;left=0;bottom=0;right=0;" parent="Ymm-aYq7ITdzIqag5qRW-64" vertex="1"><mxGeometry width="30" height="30" as="geometry"><mxRectangle width="30" height="30" as="alternateBounds"/></mxGeometry></mxCell><mxCell id="Ymm-aYq7ITdzIqag5qRW-66" value="IdTipoCliente int" style="shape=partialRectangle;overflow=hidden;connectable=0;fillColor=none;top=0;left=0;bottom=0;right=0;align=left;spacingLeft=6;" parent="Ymm-aYq7ITdzIqag5qRW-64" vertex="1"><mxGeometry x="30" width="290" height="30" as="geometry"><mxRectangle width="290" height="30" as="alternateBounds"/></mxGeometry></mxCell><mxCell id="Ymm-aYq7ITdzIqag5qRW-70" value="" style="shape=partialRectangle;collapsible=0;dropTarget=0;pointerEvents=0;fillColor=none;points=[[0,0.5],[1,0.5]];portConstraint=eastwest;top=0;left=0;right=0;bottom=0;" parent="Ymm-aYq7ITdzIqag5qRW-0" vertex="1"><mxGeometry y="690" width="320" height="30" as="geometry"/></mxCell><mxCell id="Ymm-aYq7ITdzIqag5qRW-71" value="E" style="shape=partialRectangle;overflow=hidden;connectable=0;fillColor=none;top=0;left=0;bottom=0;right=0;" parent="Ymm-aYq7ITdzIqag5qRW-70" vertex="1"><mxGeometry width="30" height="30" as="geometry"><mxRectangle width="30" height="30" as="alternateBounds"/></mxGeometry></mxCell><mxCell id="Ymm-aYq7ITdzIqag5qRW-72" value="IdPaquete int" style="shape=partialRectangle;overflow=hidden;connectable=0;fillColor=none;top=0;left=0;bottom=0;right=0;align=left;spacingLeft=6;" parent="Ymm-aYq7ITdzIqag5qRW-70" vertex="1"><mxGeometry x="30" width="290" height="30" as="geometry"><mxRectangle width="290" height="30" as="alternateBounds"/></mxGeometry></mxCell><mxCell id="Ymm-aYq7ITdzIqag5qRW-76" value="E: Editable&lt;br&gt;A: Automatico&lt;br&gt;NE: No editable despues de alta" style="rounded=1;whiteSpace=wrap;html=1;" parent="EBrFU-9Dl6ynX_BoGAA2-1" vertex="1"><mxGeometry x="30" y="20" width="280" height="90" as="geometry"/></mxCell><mxCell id="Ymm-aYq7ITdzIqag5qRW-77" value="Instructor" style="shape=table;startSize=30;container=1;collapsible=1;childLayout=tableLayout;fixedRows=1;rowLines=0;fontStyle=1;align=center;resizeLast=1;" parent="EBrFU-9Dl6ynX_BoGAA2-1" vertex="1"><mxGeometry x="360" y="130" width="250" height="640" as="geometry"/></mxCell><mxCell id="Ymm-aYq7ITdzIqag5qRW-78" value="" style="shape=partialRectangle;collapsible=0;dropTarget=0;pointerEvents=0;fillColor=none;points=[[0,0.5],[1,0.5]];portConstraint=eastwest;top=0;left=0;right=0;bottom=1;" parent="Ymm-aYq7ITdzIqag5qRW-77" vertex="1"><mxGeometry y="30" width="250" height="30" as="geometry"/></mxCell><mxCell id="Ymm-aYq7ITdzIqag5qRW-79" value="A" style="shape=partialRectangle;overflow=hidden;connectable=0;fillColor=none;top=0;left=0;bottom=0;right=0;fontStyle=1;" parent="Ymm-aYq7ITdzIqag5qRW-78" vertex="1"><mxGeometry width="30" height="30" as="geometry"><mxRectangle width="30" height="30" as="alternateBounds"/></mxGeometry></mxCell><mxCell id="Ymm-aYq7ITdzIqag5qRW-80" value="IdInstructor int AUTO_INCREMENT " style="shape=partialRectangle;overflow=hidden;connectable=0;fillColor=none;top=0;left=0;bottom=0;right=0;align=left;spacingLeft=6;fontStyle=5;" parent="Ymm-aYq7ITdzIqag5qRW-78" vertex="1"><mxGeometry x="30" width="220" height="30" as="geometry"><mxRectangle width="220" height="30" as="alternateBounds"/></mxGeometry></mxCell><mxCell id="Ymm-aYq7ITdzIqag5qRW-81" value="" style="shape=partialRectangle;collapsible=0;dropTarget=0;pointerEvents=0;fillColor=none;points=[[0,0.5],[1,0.5]];portConstraint=eastwest;top=0;left=0;right=0;bottom=0;" parent="Ymm-aYq7ITdzIqag5qRW-77" vertex="1"><mxGeometry y="60" width="250" height="30" as="geometry"/></mxCell><mxCell id="Ymm-aYq7ITdzIqag5qRW-82" value="NE" style="shape=partialRectangle;overflow=hidden;connectable=0;fillColor=none;top=0;left=0;bottom=0;right=0;" parent="Ymm-aYq7ITdzIqag5qRW-81" vertex="1"><mxGeometry width="30" height="30" as="geometry"><mxRectangle width="30" height="30" as="alternateBounds"/></mxGeometry></mxCell><mxCell id="Ymm-aYq7ITdzIqag5qRW-83" value="Nombre varchar(30) not null not null" style="shape=partialRectangle;overflow=hidden;connectable=0;fillColor=none;top=0;left=0;bottom=0;right=0;align=left;spacingLeft=6;" parent="Ymm-aYq7ITdzIqag5qRW-81" vertex="1"><mxGeometry x="30" width="220" height="30" as="geometry"><mxRectangle width="220" height="30" as="alternateBounds"/></mxGeometry></mxCell><mxCell id="Ymm-aYq7ITdzIqag5qRW-84" value="" style="shape=partialRectangle;collapsible=0;dropTarget=0;pointerEvents=0;fillColor=none;points=[[0,0.5],[1,0.5]];portConstraint=eastwest;top=0;left=0;right=0;bottom=0;" parent="Ymm-aYq7ITdzIqag5qRW-77" vertex="1"><mxGeometry y="90" width="250" height="30" as="geometry"/></mxCell><mxCell id="Ymm-aYq7ITdzIqag5qRW-85" value="NE" style="shape=partialRectangle;overflow=hidden;connectable=0;fillColor=none;top=0;left=0;bottom=0;right=0;" parent="Ymm-aYq7ITdzIqag5qRW-84" vertex="1"><mxGeometry width="30" height="30" as="geometry"><mxRectangle width="30" height="30" as="alternateBounds"/></mxGeometry></mxCell><mxCell id="Ymm-aYq7ITdzIqag5qRW-86" value="ApellidoPaterno varchar(30) not null" style="shape=partialRectangle;overflow=hidden;connectable=0;fillColor=none;top=0;left=0;bottom=0;right=0;align=left;spacingLeft=6;" parent="Ymm-aYq7ITdzIqag5qRW-84" vertex="1"><mxGeometry x="30" width="220" height="30" as="geometry"><mxRectangle width="220" height="30" as="alternateBounds"/></mxGeometry></mxCell><mxCell id="Ymm-aYq7ITdzIqag5qRW-87" value="" style="shape=partialRectangle;collapsible=0;dropTarget=0;pointerEvents=0;fillColor=none;points=[[0,0.5],[1,0.5]];portConstraint=eastwest;top=0;left=0;right=0;bottom=0;" parent="Ymm-aYq7ITdzIqag5qRW-77" vertex="1"><mxGeometry y="120" width="250" height="30" as="geometry"/></mxCell><mxCell id="Ymm-aYq7ITdzIqag5qRW-88" value="NE" style="shape=partialRectangle;overflow=hidden;connectable=0;fillColor=none;top=0;left=0;bottom=0;right=0;" parent="Ymm-aYq7ITdzIqag5qRW-87" vertex="1"><mxGeometry width="30" height="30" as="geometry"><mxRectangle width="30" height="30" as="alternateBounds"/></mxGeometry></mxCell><mxCell id="Ymm-aYq7ITdzIqag5qRW-89" value="ApellidoMaterno varchar(30) not null" style="shape=partialRectangle;overflow=hidden;connectable=0;fillColor=none;top=0;left=0;bottom=0;right=0;align=left;spacingLeft=6;" parent="Ymm-aYq7ITdzIqag5qRW-87" vertex="1"><mxGeometry x="30" width="220" height="30" as="geometry"><mxRectangle width="220" height="30" as="alternateBounds"/></mxGeometry></mxCell><mxCell id="Ymm-aYq7ITdzIqag5qRW-90" value="" style="shape=partialRectangle;collapsible=0;dropTarget=0;pointerEvents=0;fillColor=none;points=[[0,0.5],[1,0.5]];portConstraint=eastwest;top=0;left=0;right=0;bottom=0;" parent="Ymm-aYq7ITdzIqag5qRW-77" vertex="1"><mxGeometry y="150" width="250" height="30" as="geometry"/></mxCell><mxCell id="Ymm-aYq7ITdzIqag5qRW-91" value="E" style="shape=partialRectangle;overflow=hidden;connectable=0;fillColor=none;top=0;left=0;bottom=0;right=0;" parent="Ymm-aYq7ITdzIqag5qRW-90" vertex="1"><mxGeometry width="30" height="30" as="geometry"><mxRectangle width="30" height="30" as="alternateBounds"/></mxGeometry></mxCell><mxCell id="Ymm-aYq7ITdzIqag5qRW-92" value="Domicilio varchar(150) not null" style="shape=partialRectangle;overflow=hidden;connectable=0;fillColor=none;top=0;left=0;bottom=0;right=0;align=left;spacingLeft=6;" parent="Ymm-aYq7ITdzIqag5qRW-90" vertex="1"><mxGeometry x="30" width="220" height="30" as="geometry"><mxRectangle width="220" height="30" as="alternateBounds"/></mxGeometry></mxCell><mxCell id="Ymm-aYq7ITdzIqag5qRW-93" value="" style="shape=partialRectangle;collapsible=0;dropTarget=0;pointerEvents=0;fillColor=none;points=[[0,0.5],[1,0.5]];portConstraint=eastwest;top=0;left=0;right=0;bottom=0;" parent="Ymm-aYq7ITdzIqag5qRW-77" vertex="1"><mxGeometry y="180" width="250" height="30" as="geometry"/></mxCell><mxCell id="Ymm-aYq7ITdzIqag5qRW-94" value="NE" style="shape=partialRectangle;overflow=hidden;connectable=0;fillColor=none;top=0;left=0;bottom=0;right=0;" parent="Ymm-aYq7ITdzIqag5qRW-93" vertex="1"><mxGeometry width="30" height="30" as="geometry"><mxRectangle width="30" height="30" as="alternateBounds"/></mxGeometry></mxCell><mxCell id="Ymm-aYq7ITdzIqag5qRW-95" value="FechaNacimiento datetime not null" style="shape=partialRectangle;overflow=hidden;connectable=0;fillColor=none;top=0;left=0;bottom=0;right=0;align=left;spacingLeft=6;" parent="Ymm-aYq7ITdzIqag5qRW-93" vertex="1"><mxGeometry x="30" width="220" height="30" as="geometry"><mxRectangle width="220" height="30" as="alternateBounds"/></mxGeometry></mxCell><mxCell id="Ymm-aYq7ITdzIqag5qRW-96" value="" style="shape=partialRectangle;collapsible=0;dropTarget=0;pointerEvents=0;fillColor=none;points=[[0,0.5],[1,0.5]];portConstraint=eastwest;top=0;left=0;right=0;bottom=0;" parent="Ymm-aYq7ITdzIqag5qRW-77" vertex="1"><mxGeometry y="210" width="250" height="30" as="geometry"/></mxCell><mxCell id="Ymm-aYq7ITdzIqag5qRW-97" value="E" style="shape=partialRectangle;overflow=hidden;connectable=0;fillColor=none;top=0;left=0;bottom=0;right=0;" parent="Ymm-aYq7ITdzIqag5qRW-96" vertex="1"><mxGeometry width="30" height="30" as="geometry"><mxRectangle width="30" height="30" as="alternateBounds"/></mxGeometry></mxCell><mxCell id="Ymm-aYq7ITdzIqag5qRW-98" value="Telefono varchar(10) unique not null" style="shape=partialRectangle;overflow=hidden;connectable=0;fillColor=none;top=0;left=0;bottom=0;right=0;align=left;spacingLeft=6;" parent="Ymm-aYq7ITdzIqag5qRW-96" vertex="1"><mxGeometry x="30" width="220" height="30" as="geometry"><mxRectangle width="220" height="30" as="alternateBounds"/></mxGeometry></mxCell><mxCell id="Ymm-aYq7ITdzIqag5qRW-99" value="" style="shape=partialRectangle;collapsible=0;dropTarget=0;pointerEvents=0;fillColor=none;points=[[0,0.5],[1,0.5]];portConstraint=eastwest;top=0;left=0;right=0;bottom=0;" parent="Ymm-aYq7ITdzIqag5qRW-77" vertex="1"><mxGeometry y="240" width="250" height="30" as="geometry"/></mxCell><mxCell id="Ymm-aYq7ITdzIqag5qRW-100" value="E" style="shape=partialRectangle;overflow=hidden;connectable=0;fillColor=none;top=0;left=0;bottom=0;right=0;" parent="Ymm-aYq7ITdzIqag5qRW-99" vertex="1"><mxGeometry width="30" height="30" as="geometry"><mxRectangle width="30" height="30" as="alternateBounds"/></mxGeometry></mxCell><mxCell id="Ymm-aYq7ITdzIqag5qRW-101" value="NombreContacto varchar(30)" style="shape=partialRectangle;overflow=hidden;connectable=0;fillColor=none;top=0;left=0;bottom=0;right=0;align=left;spacingLeft=6;" parent="Ymm-aYq7ITdzIqag5qRW-99" vertex="1"><mxGeometry x="30" width="220" height="30" as="geometry"><mxRectangle width="220" height="30" as="alternateBounds"/></mxGeometry></mxCell><mxCell id="Ymm-aYq7ITdzIqag5qRW-102" value="" style="shape=partialRectangle;collapsible=0;dropTarget=0;pointerEvents=0;fillColor=none;points=[[0,0.5],[1,0.5]];portConstraint=eastwest;top=0;left=0;right=0;bottom=0;" parent="Ymm-aYq7ITdzIqag5qRW-77" vertex="1"><mxGeometry y="270" width="250" height="30" as="geometry"/></mxCell><mxCell id="Ymm-aYq7ITdzIqag5qRW-103" value="E" style="shape=partialRectangle;overflow=hidden;connectable=0;fillColor=none;top=0;left=0;bottom=0;right=0;" parent="Ymm-aYq7ITdzIqag5qRW-102" vertex="1"><mxGeometry width="30" height="30" as="geometry"><mxRectangle width="30" height="30" as="alternateBounds"/></mxGeometry></mxCell><mxCell id="Ymm-aYq7ITdzIqag5qRW-104" value="TelefonoContacto varchar(10)" style="shape=partialRectangle;overflow=hidden;connectable=0;fillColor=none;top=0;left=0;bottom=0;right=0;align=left;spacingLeft=6;" parent="Ymm-aYq7ITdzIqag5qRW-102" vertex="1"><mxGeometry x="30" width="220" height="30" as="geometry"><mxRectangle width="220" height="30" as="alternateBounds"/></mxGeometry></mxCell><mxCell id="Ymm-aYq7ITdzIqag5qRW-105" value="" style="shape=partialRectangle;collapsible=0;dropTarget=0;pointerEvents=0;fillColor=none;points=[[0,0.5],[1,0.5]];portConstraint=eastwest;top=0;left=0;right=0;bottom=0;" parent="Ymm-aYq7ITdzIqag5qRW-77" vertex="1"><mxGeometry y="300" width="250" height="30" as="geometry"/></mxCell><mxCell id="Ymm-aYq7ITdzIqag5qRW-106" value="E" style="shape=partialRectangle;overflow=hidden;connectable=0;fillColor=none;top=0;left=0;bottom=0;right=0;" parent="Ymm-aYq7ITdzIqag5qRW-105" vertex="1"><mxGeometry width="30" height="30" as="geometry"><mxRectangle width="30" height="30" as="alternateBounds"/></mxGeometry></mxCell><mxCell id="Ymm-aYq7ITdzIqag5qRW-107" value="Foto blob" style="shape=partialRectangle;overflow=hidden;connectable=0;fillColor=none;top=0;left=0;bottom=0;right=0;align=left;spacingLeft=6;" parent="Ymm-aYq7ITdzIqag5qRW-105" vertex="1"><mxGeometry x="30" width="220" height="30" as="geometry"><mxRectangle width="220" height="30" as="alternateBounds"/></mxGeometry></mxCell><mxCell id="Ymm-aYq7ITdzIqag5qRW-108" value="" style="shape=partialRectangle;collapsible=0;dropTarget=0;pointerEvents=0;fillColor=none;points=[[0,0.5],[1,0.5]];portConstraint=eastwest;top=0;left=0;right=0;bottom=0;" parent="Ymm-aYq7ITdzIqag5qRW-77" vertex="1"><mxGeometry y="330" width="250" height="30" as="geometry"/></mxCell><mxCell id="Ymm-aYq7ITdzIqag5qRW-109" value="A" style="shape=partialRectangle;overflow=hidden;connectable=0;fillColor=none;top=0;left=0;bottom=0;right=0;" parent="Ymm-aYq7ITdzIqag5qRW-108" vertex="1"><mxGeometry width="30" height="30" as="geometry"><mxRectangle width="30" height="30" as="alternateBounds"/></mxGeometry></mxCell><mxCell id="Ymm-aYq7ITdzIqag5qRW-110" value="FechaUltimoAcceso datetime" style="shape=partialRectangle;overflow=hidden;connectable=0;fillColor=none;top=0;left=0;bottom=0;right=0;align=left;spacingLeft=6;" parent="Ymm-aYq7ITdzIqag5qRW-108" vertex="1"><mxGeometry x="30" width="220" height="30" as="geometry"><mxRectangle width="220" height="30" as="alternateBounds"/></mxGeometry></mxCell><mxCell id="Ymm-aYq7ITdzIqag5qRW-111" value="" style="shape=partialRectangle;collapsible=0;dropTarget=0;pointerEvents=0;fillColor=none;points=[[0,0.5],[1,0.5]];portConstraint=eastwest;top=0;left=0;right=0;bottom=0;" parent="Ymm-aYq7ITdzIqag5qRW-77" vertex="1"><mxGeometry y="360" width="250" height="30" as="geometry"/></mxCell><mxCell id="Ymm-aYq7ITdzIqag5qRW-112" value="A" style="shape=partialRectangle;overflow=hidden;connectable=0;fillColor=none;top=0;left=0;bottom=0;right=0;" parent="Ymm-aYq7ITdzIqag5qRW-111" vertex="1"><mxGeometry width="30" height="30" as="geometry"><mxRectangle width="30" height="30" as="alternateBounds"/></mxGeometry></mxCell><mxCell id="Ymm-aYq7ITdzIqag5qRW-113" value="FechaUltimoPago datetime" style="shape=partialRectangle;overflow=hidden;connectable=0;fillColor=none;top=0;left=0;bottom=0;right=0;align=left;spacingLeft=6;" parent="Ymm-aYq7ITdzIqag5qRW-111" vertex="1"><mxGeometry x="30" width="220" height="30" as="geometry"><mxRectangle width="220" height="30" as="alternateBounds"/></mxGeometry></mxCell><mxCell id="Ymm-aYq7ITdzIqag5qRW-114" value="" style="shape=partialRectangle;collapsible=0;dropTarget=0;pointerEvents=0;fillColor=none;points=[[0,0.5],[1,0.5]];portConstraint=eastwest;top=0;left=0;right=0;bottom=0;" parent="Ymm-aYq7ITdzIqag5qRW-77" vertex="1"><mxGeometry y="390" width="250" height="30" as="geometry"/></mxCell><mxCell id="Ymm-aYq7ITdzIqag5qRW-115" value="A" style="shape=partialRectangle;overflow=hidden;connectable=0;fillColor=none;top=0;left=0;bottom=0;right=0;" parent="Ymm-aYq7ITdzIqag5qRW-114" vertex="1"><mxGeometry width="30" height="30" as="geometry"><mxRectangle width="30" height="30" as="alternateBounds"/></mxGeometry></mxCell><mxCell id="Ymm-aYq7ITdzIqag5qRW-116" value="MontoUltimoPago decimal" style="shape=partialRectangle;overflow=hidden;connectable=0;fillColor=none;top=0;left=0;bottom=0;right=0;align=left;spacingLeft=6;" parent="Ymm-aYq7ITdzIqag5qRW-114" vertex="1"><mxGeometry x="30" width="220" height="30" as="geometry"><mxRectangle width="220" height="30" as="alternateBounds"/></mxGeometry></mxCell><mxCell id="Ymm-aYq7ITdzIqag5qRW-117" value="" style="shape=partialRectangle;collapsible=0;dropTarget=0;pointerEvents=0;fillColor=none;points=[[0,0.5],[1,0.5]];portConstraint=eastwest;top=0;left=0;right=0;bottom=0;" parent="Ymm-aYq7ITdzIqag5qRW-77" vertex="1"><mxGeometry y="420" width="250" height="30" as="geometry"/></mxCell><mxCell id="Ymm-aYq7ITdzIqag5qRW-118" value="E" style="shape=partialRectangle;overflow=hidden;connectable=0;fillColor=none;top=0;left=0;bottom=0;right=0;" parent="Ymm-aYq7ITdzIqag5qRW-117" vertex="1"><mxGeometry width="30" height="30" as="geometry"><mxRectangle width="30" height="30" as="alternateBounds"/></mxGeometry></mxCell><mxCell id="Ymm-aYq7ITdzIqag5qRW-119" value="HoraEntrada varchar(4)" style="shape=partialRectangle;overflow=hidden;connectable=0;fillColor=none;top=0;left=0;bottom=0;right=0;align=left;spacingLeft=6;" parent="Ymm-aYq7ITdzIqag5qRW-117" vertex="1"><mxGeometry x="30" width="220" height="30" as="geometry"><mxRectangle width="220" height="30" as="alternateBounds"/></mxGeometry></mxCell><mxCell id="Ymm-aYq7ITdzIqag5qRW-120" value="" style="shape=partialRectangle;collapsible=0;dropTarget=0;pointerEvents=0;fillColor=none;points=[[0,0.5],[1,0.5]];portConstraint=eastwest;top=0;left=0;right=0;bottom=0;" parent="Ymm-aYq7ITdzIqag5qRW-77" vertex="1"><mxGeometry y="450" width="250" height="30" as="geometry"/></mxCell><mxCell id="Ymm-aYq7ITdzIqag5qRW-121" value="E" style="shape=partialRectangle;overflow=hidden;connectable=0;fillColor=none;top=0;left=0;bottom=0;right=0;" parent="Ymm-aYq7ITdzIqag5qRW-120" vertex="1"><mxGeometry width="30" height="30" as="geometry"><mxRectangle width="30" height="30" as="alternateBounds"/></mxGeometry></mxCell><mxCell id="Ymm-aYq7ITdzIqag5qRW-122" value="HoraSalida varchar(4)" style="shape=partialRectangle;overflow=hidden;connectable=0;fillColor=none;top=0;left=0;bottom=0;right=0;align=left;spacingLeft=6;" parent="Ymm-aYq7ITdzIqag5qRW-120" vertex="1"><mxGeometry x="30" width="220" height="30" as="geometry"><mxRectangle width="220" height="30" as="alternateBounds"/></mxGeometry></mxCell><mxCell id="Ymm-aYq7ITdzIqag5qRW-123" value="" style="shape=partialRectangle;collapsible=0;dropTarget=0;pointerEvents=0;fillColor=none;points=[[0,0.5],[1,0.5]];portConstraint=eastwest;top=0;left=0;right=0;bottom=0;" parent="Ymm-aYq7ITdzIqag5qRW-77" vertex="1"><mxGeometry y="480" width="250" height="30" as="geometry"/></mxCell><mxCell id="Ymm-aYq7ITdzIqag5qRW-124" value="A" style="shape=partialRectangle;overflow=hidden;connectable=0;fillColor=none;top=0;left=0;bottom=0;right=0;" parent="Ymm-aYq7ITdzIqag5qRW-123" vertex="1"><mxGeometry width="30" height="30" as="geometry"><mxRectangle width="30" height="30" as="alternateBounds"/></mxGeometry></mxCell><mxCell id="Ymm-aYq7ITdzIqag5qRW-125" value="DiasATrabajar int" style="shape=partialRectangle;overflow=hidden;connectable=0;fillColor=none;top=0;left=0;bottom=0;right=0;align=left;spacingLeft=6;" parent="Ymm-aYq7ITdzIqag5qRW-123" vertex="1"><mxGeometry x="30" width="220" height="30" as="geometry"><mxRectangle width="220" height="30" as="alternateBounds"/></mxGeometry></mxCell><mxCell id="Ymm-aYq7ITdzIqag5qRW-126" value="" style="shape=partialRectangle;collapsible=0;dropTarget=0;pointerEvents=0;fillColor=none;points=[[0,0.5],[1,0.5]];portConstraint=eastwest;top=0;left=0;right=0;bottom=0;" parent="Ymm-aYq7ITdzIqag5qRW-77" vertex="1"><mxGeometry y="510" width="250" height="30" as="geometry"/></mxCell><mxCell id="Ymm-aYq7ITdzIqag5qRW-127" value="A" style="shape=partialRectangle;overflow=hidden;connectable=0;fillColor=none;top=0;left=0;bottom=0;right=0;" parent="Ymm-aYq7ITdzIqag5qRW-126" vertex="1"><mxGeometry width="30" height="30" as="geometry"><mxRectangle width="30" height="30" as="alternateBounds"/></mxGeometry></mxCell><mxCell id="Ymm-aYq7ITdzIqag5qRW-128" value="DiasTrabajados int" style="shape=partialRectangle;overflow=hidden;connectable=0;fillColor=none;top=0;left=0;bottom=0;right=0;align=left;spacingLeft=6;" parent="Ymm-aYq7ITdzIqag5qRW-126" vertex="1"><mxGeometry x="30" width="220" height="30" as="geometry"><mxRectangle width="220" height="30" as="alternateBounds"/></mxGeometry></mxCell><mxCell id="Ymm-aYq7ITdzIqag5qRW-129" value="" style="shape=partialRectangle;collapsible=0;dropTarget=0;pointerEvents=0;fillColor=none;points=[[0,0.5],[1,0.5]];portConstraint=eastwest;top=0;left=0;right=0;bottom=0;" parent="Ymm-aYq7ITdzIqag5qRW-77" vertex="1"><mxGeometry y="540" width="250" height="30" as="geometry"/></mxCell><mxCell id="Ymm-aYq7ITdzIqag5qRW-130" value="E" style="shape=partialRectangle;overflow=hidden;connectable=0;fillColor=none;top=0;left=0;bottom=0;right=0;" parent="Ymm-aYq7ITdzIqag5qRW-129" vertex="1"><mxGeometry width="30" height="30" as="geometry"><mxRectangle width="30" height="30" as="alternateBounds"/></mxGeometry></mxCell><mxCell id="Ymm-aYq7ITdzIqag5qRW-131" value="Sueldo decimal not null" style="shape=partialRectangle;overflow=hidden;connectable=0;fillColor=none;top=0;left=0;bottom=0;right=0;align=left;spacingLeft=6;" parent="Ymm-aYq7ITdzIqag5qRW-129" vertex="1"><mxGeometry x="30" width="220" height="30" as="geometry"><mxRectangle width="220" height="30" as="alternateBounds"/></mxGeometry></mxCell><mxCell id="Ymm-aYq7ITdzIqag5qRW-132" value="" style="shape=partialRectangle;collapsible=0;dropTarget=0;pointerEvents=0;fillColor=none;points=[[0,0.5],[1,0.5]];portConstraint=eastwest;top=0;left=0;right=0;bottom=0;" parent="Ymm-aYq7ITdzIqag5qRW-77" vertex="1"><mxGeometry y="570" width="250" height="30" as="geometry"/></mxCell><mxCell id="Ymm-aYq7ITdzIqag5qRW-133" value="E" style="shape=partialRectangle;overflow=hidden;connectable=0;fillColor=none;top=0;left=0;bottom=0;right=0;" parent="Ymm-aYq7ITdzIqag5qRW-132" vertex="1"><mxGeometry width="30" height="30" as="geometry"><mxRectangle width="30" height="30" as="alternateBounds"/></mxGeometry></mxCell><mxCell id="Ymm-aYq7ITdzIqag5qRW-134" value="SueldoADescontar decimal" style="shape=partialRectangle;overflow=hidden;connectable=0;fillColor=none;top=0;left=0;bottom=0;right=0;align=left;spacingLeft=6;" parent="Ymm-aYq7ITdzIqag5qRW-132" vertex="1"><mxGeometry x="30" width="220" height="30" as="geometry"><mxRectangle width="220" height="30" as="alternateBounds"/></mxGeometry></mxCell><mxCell id="Ymm-aYq7ITdzIqag5qRW-135" value="" style="shape=partialRectangle;collapsible=0;dropTarget=0;pointerEvents=0;fillColor=none;points=[[0,0.5],[1,0.5]];portConstraint=eastwest;top=0;left=0;right=0;bottom=0;" parent="Ymm-aYq7ITdzIqag5qRW-77" vertex="1"><mxGeometry y="600" width="250" height="30" as="geometry"/></mxCell><mxCell id="Ymm-aYq7ITdzIqag5qRW-136" value="E" style="shape=partialRectangle;overflow=hidden;connectable=0;fillColor=none;top=0;left=0;bottom=0;right=0;" parent="Ymm-aYq7ITdzIqag5qRW-135" vertex="1"><mxGeometry width="30" height="30" as="geometry"><mxRectangle width="30" height="30" as="alternateBounds"/></mxGeometry></mxCell><mxCell id="Ymm-aYq7ITdzIqag5qRW-137" value="IdTipoInstructor int" style="shape=partialRectangle;overflow=hidden;connectable=0;fillColor=none;top=0;left=0;bottom=0;right=0;align=left;spacingLeft=6;" parent="Ymm-aYq7ITdzIqag5qRW-135" vertex="1"><mxGeometry x="30" width="220" height="30" as="geometry"><mxRectangle width="220" height="30" as="alternateBounds"/></mxGeometry></mxCell><mxCell id="Ymm-aYq7ITdzIqag5qRW-138" value="ClienteRenta" style="shape=table;startSize=30;container=1;collapsible=1;childLayout=tableLayout;fixedRows=1;rowLines=0;fontStyle=1;align=center;resizeLast=1;" parent="EBrFU-9Dl6ynX_BoGAA2-1" vertex="1"><mxGeometry x="640" y="130" width="270" height="430" as="geometry"/></mxCell><mxCell id="Ymm-aYq7ITdzIqag5qRW-139" value="" style="shape=partialRectangle;collapsible=0;dropTarget=0;pointerEvents=0;fillColor=none;points=[[0,0.5],[1,0.5]];portConstraint=eastwest;top=0;left=0;right=0;bottom=1;" parent="Ymm-aYq7ITdzIqag5qRW-138" vertex="1"><mxGeometry y="30" width="270" height="30" as="geometry"/></mxCell><mxCell id="Ymm-aYq7ITdzIqag5qRW-140" value="A" style="shape=partialRectangle;overflow=hidden;connectable=0;fillColor=none;top=0;left=0;bottom=0;right=0;fontStyle=1;" parent="Ymm-aYq7ITdzIqag5qRW-139" vertex="1"><mxGeometry width="30" height="30" as="geometry"><mxRectangle width="30" height="30" as="alternateBounds"/></mxGeometry></mxCell><mxCell id="Ymm-aYq7ITdzIqag5qRW-141" value="IdClienteRenta int AUTO_INCREMENT " style="shape=partialRectangle;overflow=hidden;connectable=0;fillColor=none;top=0;left=0;bottom=0;right=0;align=left;spacingLeft=6;fontStyle=5;" parent="Ymm-aYq7ITdzIqag5qRW-139" vertex="1"><mxGeometry x="30" width="240" height="30" as="geometry"><mxRectangle width="240" height="30" as="alternateBounds"/></mxGeometry></mxCell><mxCell id="Ymm-aYq7ITdzIqag5qRW-142" value="" style="shape=partialRectangle;collapsible=0;dropTarget=0;pointerEvents=0;fillColor=none;points=[[0,0.5],[1,0.5]];portConstraint=eastwest;top=0;left=0;right=0;bottom=0;" parent="Ymm-aYq7ITdzIqag5qRW-138" vertex="1"><mxGeometry y="60" width="270" height="30" as="geometry"/></mxCell><mxCell id="Ymm-aYq7ITdzIqag5qRW-143" value="NE" style="shape=partialRectangle;overflow=hidden;connectable=0;fillColor=none;top=0;left=0;bottom=0;right=0;" parent="Ymm-aYq7ITdzIqag5qRW-142" vertex="1"><mxGeometry width="30" height="30" as="geometry"><mxRectangle width="30" height="30" as="alternateBounds"/></mxGeometry></mxCell><mxCell id="Ymm-aYq7ITdzIqag5qRW-144" value="Nombre varchar(30) not null not null" style="shape=partialRectangle;overflow=hidden;connectable=0;fillColor=none;top=0;left=0;bottom=0;right=0;align=left;spacingLeft=6;" parent="Ymm-aYq7ITdzIqag5qRW-142" vertex="1"><mxGeometry x="30" width="240" height="30" as="geometry"><mxRectangle width="240" height="30" as="alternateBounds"/></mxGeometry></mxCell><mxCell id="Ymm-aYq7ITdzIqag5qRW-145" value="" style="shape=partialRectangle;collapsible=0;dropTarget=0;pointerEvents=0;fillColor=none;points=[[0,0.5],[1,0.5]];portConstraint=eastwest;top=0;left=0;right=0;bottom=0;" parent="Ymm-aYq7ITdzIqag5qRW-138" vertex="1"><mxGeometry y="90" width="270" height="30" as="geometry"/></mxCell><mxCell id="Ymm-aYq7ITdzIqag5qRW-146" value="NE" style="shape=partialRectangle;overflow=hidden;connectable=0;fillColor=none;top=0;left=0;bottom=0;right=0;" parent="Ymm-aYq7ITdzIqag5qRW-145" vertex="1"><mxGeometry width="30" height="30" as="geometry"><mxRectangle width="30" height="30" as="alternateBounds"/></mxGeometry></mxCell><mxCell id="Ymm-aYq7ITdzIqag5qRW-147" value="ApellidoPaterno varchar(30) not null" style="shape=partialRectangle;overflow=hidden;connectable=0;fillColor=none;top=0;left=0;bottom=0;right=0;align=left;spacingLeft=6;" parent="Ymm-aYq7ITdzIqag5qRW-145" vertex="1"><mxGeometry x="30" width="240" height="30" as="geometry"><mxRectangle width="240" height="30" as="alternateBounds"/></mxGeometry></mxCell><mxCell id="Ymm-aYq7ITdzIqag5qRW-148" value="" style="shape=partialRectangle;collapsible=0;dropTarget=0;pointerEvents=0;fillColor=none;points=[[0,0.5],[1,0.5]];portConstraint=eastwest;top=0;left=0;right=0;bottom=0;" parent="Ymm-aYq7ITdzIqag5qRW-138" vertex="1"><mxGeometry y="120" width="270" height="30" as="geometry"/></mxCell><mxCell id="Ymm-aYq7ITdzIqag5qRW-149" value="NE" style="shape=partialRectangle;overflow=hidden;connectable=0;fillColor=none;top=0;left=0;bottom=0;right=0;" parent="Ymm-aYq7ITdzIqag5qRW-148" vertex="1"><mxGeometry width="30" height="30" as="geometry"><mxRectangle width="30" height="30" as="alternateBounds"/></mxGeometry></mxCell><mxCell id="Ymm-aYq7ITdzIqag5qRW-150" value="ApellidoMaterno varchar(30) not null" style="shape=partialRectangle;overflow=hidden;connectable=0;fillColor=none;top=0;left=0;bottom=0;right=0;align=left;spacingLeft=6;" parent="Ymm-aYq7ITdzIqag5qRW-148" vertex="1"><mxGeometry x="30" width="240" height="30" as="geometry"><mxRectangle width="240" height="30" as="alternateBounds"/></mxGeometry></mxCell><mxCell id="Ymm-aYq7ITdzIqag5qRW-151" value="" style="shape=partialRectangle;collapsible=0;dropTarget=0;pointerEvents=0;fillColor=none;points=[[0,0.5],[1,0.5]];portConstraint=eastwest;top=0;left=0;right=0;bottom=0;" parent="Ymm-aYq7ITdzIqag5qRW-138" vertex="1"><mxGeometry y="150" width="270" height="30" as="geometry"/></mxCell><mxCell id="Ymm-aYq7ITdzIqag5qRW-152" value="E" style="shape=partialRectangle;overflow=hidden;connectable=0;fillColor=none;top=0;left=0;bottom=0;right=0;" parent="Ymm-aYq7ITdzIqag5qRW-151" vertex="1"><mxGeometry width="30" height="30" as="geometry"><mxRectangle width="30" height="30" as="alternateBounds"/></mxGeometry></mxCell><mxCell id="Ymm-aYq7ITdzIqag5qRW-153" value="Domicilio varchar(150) not null" style="shape=partialRectangle;overflow=hidden;connectable=0;fillColor=none;top=0;left=0;bottom=0;right=0;align=left;spacingLeft=6;" parent="Ymm-aYq7ITdzIqag5qRW-151" vertex="1"><mxGeometry x="30" width="240" height="30" as="geometry"><mxRectangle width="240" height="30" as="alternateBounds"/></mxGeometry></mxCell><mxCell id="Ymm-aYq7ITdzIqag5qRW-154" value="" style="shape=partialRectangle;collapsible=0;dropTarget=0;pointerEvents=0;fillColor=none;points=[[0,0.5],[1,0.5]];portConstraint=eastwest;top=0;left=0;right=0;bottom=0;" parent="Ymm-aYq7ITdzIqag5qRW-138" vertex="1"><mxGeometry y="180" width="270" height="30" as="geometry"/></mxCell><mxCell id="Ymm-aYq7ITdzIqag5qRW-155" value="NE" style="shape=partialRectangle;overflow=hidden;connectable=0;fillColor=none;top=0;left=0;bottom=0;right=0;" parent="Ymm-aYq7ITdzIqag5qRW-154" vertex="1"><mxGeometry width="30" height="30" as="geometry"><mxRectangle width="30" height="30" as="alternateBounds"/></mxGeometry></mxCell><mxCell id="Ymm-aYq7ITdzIqag5qRW-156" value="FechaNacimiento datetime not null" style="shape=partialRectangle;overflow=hidden;connectable=0;fillColor=none;top=0;left=0;bottom=0;right=0;align=left;spacingLeft=6;" parent="Ymm-aYq7ITdzIqag5qRW-154" vertex="1"><mxGeometry x="30" width="240" height="30" as="geometry"><mxRectangle width="240" height="30" as="alternateBounds"/></mxGeometry></mxCell><mxCell id="Ymm-aYq7ITdzIqag5qRW-157" value="" style="shape=partialRectangle;collapsible=0;dropTarget=0;pointerEvents=0;fillColor=none;points=[[0,0.5],[1,0.5]];portConstraint=eastwest;top=0;left=0;right=0;bottom=0;" parent="Ymm-aYq7ITdzIqag5qRW-138" vertex="1"><mxGeometry y="210" width="270" height="30" as="geometry"/></mxCell><mxCell id="Ymm-aYq7ITdzIqag5qRW-158" value="E" style="shape=partialRectangle;overflow=hidden;connectable=0;fillColor=none;top=0;left=0;bottom=0;right=0;" parent="Ymm-aYq7ITdzIqag5qRW-157" vertex="1"><mxGeometry width="30" height="30" as="geometry"><mxRectangle width="30" height="30" as="alternateBounds"/></mxGeometry></mxCell><mxCell id="Ymm-aYq7ITdzIqag5qRW-159" value="Telefono varchar(10) unique not null" style="shape=partialRectangle;overflow=hidden;connectable=0;fillColor=none;top=0;left=0;bottom=0;right=0;align=left;spacingLeft=6;" parent="Ymm-aYq7ITdzIqag5qRW-157" vertex="1"><mxGeometry x="30" width="240" height="30" as="geometry"><mxRectangle width="240" height="30" as="alternateBounds"/></mxGeometry></mxCell><mxCell id="Ymm-aYq7ITdzIqag5qRW-163" value="" style="shape=partialRectangle;collapsible=0;dropTarget=0;pointerEvents=0;fillColor=none;points=[[0,0.5],[1,0.5]];portConstraint=eastwest;top=0;left=0;right=0;bottom=0;" parent="Ymm-aYq7ITdzIqag5qRW-138" vertex="1"><mxGeometry y="240" width="270" height="30" as="geometry"/></mxCell><mxCell id="Ymm-aYq7ITdzIqag5qRW-164" value="E" style="shape=partialRectangle;overflow=hidden;connectable=0;fillColor=none;top=0;left=0;bottom=0;right=0;" parent="Ymm-aYq7ITdzIqag5qRW-163" vertex="1"><mxGeometry width="30" height="30" as="geometry"><mxRectangle width="30" height="30" as="alternateBounds"/></mxGeometry></mxCell><mxCell id="Ymm-aYq7ITdzIqag5qRW-165" value="NombreContacto varchar(30)" style="shape=partialRectangle;overflow=hidden;connectable=0;fillColor=none;top=0;left=0;bottom=0;right=0;align=left;spacingLeft=6;" parent="Ymm-aYq7ITdzIqag5qRW-163" vertex="1"><mxGeometry x="30" width="240" height="30" as="geometry"><mxRectangle width="240" height="30" as="alternateBounds"/></mxGeometry></mxCell><mxCell id="Ymm-aYq7ITdzIqag5qRW-166" value="" style="shape=partialRectangle;collapsible=0;dropTarget=0;pointerEvents=0;fillColor=none;points=[[0,0.5],[1,0.5]];portConstraint=eastwest;top=0;left=0;right=0;bottom=0;" parent="Ymm-aYq7ITdzIqag5qRW-138" vertex="1"><mxGeometry y="270" width="270" height="30" as="geometry"/></mxCell><mxCell id="Ymm-aYq7ITdzIqag5qRW-167" value="E" style="shape=partialRectangle;overflow=hidden;connectable=0;fillColor=none;top=0;left=0;bottom=0;right=0;" parent="Ymm-aYq7ITdzIqag5qRW-166" vertex="1"><mxGeometry width="30" height="30" as="geometry"><mxRectangle width="30" height="30" as="alternateBounds"/></mxGeometry></mxCell><mxCell id="Ymm-aYq7ITdzIqag5qRW-168" value="TelefonoContacto varchar(10)" style="shape=partialRectangle;overflow=hidden;connectable=0;fillColor=none;top=0;left=0;bottom=0;right=0;align=left;spacingLeft=6;" parent="Ymm-aYq7ITdzIqag5qRW-166" vertex="1"><mxGeometry x="30" width="240" height="30" as="geometry"><mxRectangle width="240" height="30" as="alternateBounds"/></mxGeometry></mxCell><mxCell id="Ymm-aYq7ITdzIqag5qRW-169" value="" style="shape=partialRectangle;collapsible=0;dropTarget=0;pointerEvents=0;fillColor=none;points=[[0,0.5],[1,0.5]];portConstraint=eastwest;top=0;left=0;right=0;bottom=0;" parent="Ymm-aYq7ITdzIqag5qRW-138" vertex="1"><mxGeometry y="300" width="270" height="30" as="geometry"/></mxCell><mxCell id="Ymm-aYq7ITdzIqag5qRW-170" value="E" style="shape=partialRectangle;overflow=hidden;connectable=0;fillColor=none;top=0;left=0;bottom=0;right=0;" parent="Ymm-aYq7ITdzIqag5qRW-169" vertex="1"><mxGeometry width="30" height="30" as="geometry"><mxRectangle width="30" height="30" as="alternateBounds"/></mxGeometry></mxCell><mxCell id="Ymm-aYq7ITdzIqag5qRW-171" value="Foto blob" style="shape=partialRectangle;overflow=hidden;connectable=0;fillColor=none;top=0;left=0;bottom=0;right=0;align=left;spacingLeft=6;" parent="Ymm-aYq7ITdzIqag5qRW-169" vertex="1"><mxGeometry x="30" width="240" height="30" as="geometry"><mxRectangle width="240" height="30" as="alternateBounds"/></mxGeometry></mxCell><mxCell id="Ymm-aYq7ITdzIqag5qRW-172" value="" style="shape=partialRectangle;collapsible=0;dropTarget=0;pointerEvents=0;fillColor=none;points=[[0,0.5],[1,0.5]];portConstraint=eastwest;top=0;left=0;right=0;bottom=0;" parent="Ymm-aYq7ITdzIqag5qRW-138" vertex="1"><mxGeometry y="330" width="270" height="30" as="geometry"/></mxCell><mxCell id="Ymm-aYq7ITdzIqag5qRW-173" value="A" style="shape=partialRectangle;overflow=hidden;connectable=0;fillColor=none;top=0;left=0;bottom=0;right=0;" parent="Ymm-aYq7ITdzIqag5qRW-172" vertex="1"><mxGeometry width="30" height="30" as="geometry"><mxRectangle width="30" height="30" as="alternateBounds"/></mxGeometry></mxCell><mxCell id="Ymm-aYq7ITdzIqag5qRW-174" value="FechaUltimoPago datetime" style="shape=partialRectangle;overflow=hidden;connectable=0;fillColor=none;top=0;left=0;bottom=0;right=0;align=left;spacingLeft=6;" parent="Ymm-aYq7ITdzIqag5qRW-172" vertex="1"><mxGeometry x="30" width="240" height="30" as="geometry"><mxRectangle width="240" height="30" as="alternateBounds"/></mxGeometry></mxCell><mxCell id="Ymm-aYq7ITdzIqag5qRW-175" value="" style="shape=partialRectangle;collapsible=0;dropTarget=0;pointerEvents=0;fillColor=none;points=[[0,0.5],[1,0.5]];portConstraint=eastwest;top=0;left=0;right=0;bottom=0;" parent="Ymm-aYq7ITdzIqag5qRW-138" vertex="1"><mxGeometry y="360" width="270" height="30" as="geometry"/></mxCell><mxCell id="Ymm-aYq7ITdzIqag5qRW-176" value="A" style="shape=partialRectangle;overflow=hidden;connectable=0;fillColor=none;top=0;left=0;bottom=0;right=0;" parent="Ymm-aYq7ITdzIqag5qRW-175" vertex="1"><mxGeometry width="30" height="30" as="geometry"><mxRectangle width="30" height="30" as="alternateBounds"/></mxGeometry></mxCell><mxCell id="Ymm-aYq7ITdzIqag5qRW-177" value="MontoUltimoPago decimal" style="shape=partialRectangle;overflow=hidden;connectable=0;fillColor=none;top=0;left=0;bottom=0;right=0;align=left;spacingLeft=6;" parent="Ymm-aYq7ITdzIqag5qRW-175" vertex="1"><mxGeometry x="30" width="240" height="30" as="geometry"><mxRectangle width="240" height="30" as="alternateBounds"/></mxGeometry></mxCell><mxCell id="Ymm-aYq7ITdzIqag5qRW-178" value="" style="shape=partialRectangle;collapsible=0;dropTarget=0;pointerEvents=0;fillColor=none;points=[[0,0.5],[1,0.5]];portConstraint=eastwest;top=0;left=0;right=0;bottom=0;" parent="Ymm-aYq7ITdzIqag5qRW-138" vertex="1"><mxGeometry y="390" width="270" height="30" as="geometry"/></mxCell><mxCell id="Ymm-aYq7ITdzIqag5qRW-179" value="A" style="shape=partialRectangle;overflow=hidden;connectable=0;fillColor=none;top=0;left=0;bottom=0;right=0;" parent="Ymm-aYq7ITdzIqag5qRW-178" vertex="1"><mxGeometry width="30" height="30" as="geometry"><mxRectangle width="30" height="30" as="alternateBounds"/></mxGeometry></mxCell><mxCell id="Ymm-aYq7ITdzIqag5qRW-180" value="DeudaCliente decimal" style="shape=partialRectangle;overflow=hidden;connectable=0;fillColor=none;top=0;left=0;bottom=0;right=0;align=left;spacingLeft=6;" parent="Ymm-aYq7ITdzIqag5qRW-178" vertex="1"><mxGeometry x="30" width="240" height="30" as="geometry"><mxRectangle width="240" height="30" as="alternateBounds"/></mxGeometry></mxCell><mxCell id="Ymm-aYq7ITdzIqag5qRW-181" value="Usuario" style="shape=table;startSize=30;container=1;collapsible=1;childLayout=tableLayout;fixedRows=1;rowLines=0;fontStyle=1;align=center;resizeLast=1;" parent="EBrFU-9Dl6ynX_BoGAA2-1" vertex="1"><mxGeometry x="940" y="130" width="240" height="490" as="geometry"/></mxCell><mxCell id="Ymm-aYq7ITdzIqag5qRW-182" value="" style="shape=partialRectangle;collapsible=0;dropTarget=0;pointerEvents=0;fillColor=none;points=[[0,0.5],[1,0.5]];portConstraint=eastwest;top=0;left=0;right=0;bottom=1;" parent="Ymm-aYq7ITdzIqag5qRW-181" vertex="1"><mxGeometry y="30" width="240" height="30" as="geometry"/></mxCell><mxCell id="Ymm-aYq7ITdzIqag5qRW-183" value="A" style="shape=partialRectangle;overflow=hidden;connectable=0;fillColor=none;top=0;left=0;bottom=0;right=0;fontStyle=1;" parent="Ymm-aYq7ITdzIqag5qRW-182" vertex="1"><mxGeometry width="30" height="30" as="geometry"><mxRectangle width="30" height="30" as="alternateBounds"/></mxGeometry></mxCell><mxCell id="Ymm-aYq7ITdzIqag5qRW-184" value="IdUsuario int AUTO_INCREMENT " style="shape=partialRectangle;overflow=hidden;connectable=0;fillColor=none;top=0;left=0;bottom=0;right=0;align=left;spacingLeft=6;fontStyle=5;" parent="Ymm-aYq7ITdzIqag5qRW-182" vertex="1"><mxGeometry x="30" width="210" height="30" as="geometry"><mxRectangle width="210" height="30" as="alternateBounds"/></mxGeometry></mxCell><mxCell id="Ymm-aYq7ITdzIqag5qRW-185" value="" style="shape=partialRectangle;collapsible=0;dropTarget=0;pointerEvents=0;fillColor=none;points=[[0,0.5],[1,0.5]];portConstraint=eastwest;top=0;left=0;right=0;bottom=0;" parent="Ymm-aYq7ITdzIqag5qRW-181" vertex="1"><mxGeometry y="60" width="240" height="30" as="geometry"/></mxCell><mxCell id="Ymm-aYq7ITdzIqag5qRW-186" value="NE" style="shape=partialRectangle;overflow=hidden;connectable=0;fillColor=none;top=0;left=0;bottom=0;right=0;" parent="Ymm-aYq7ITdzIqag5qRW-185" vertex="1"><mxGeometry width="30" height="30" as="geometry"><mxRectangle width="30" height="30" as="alternateBounds"/></mxGeometry></mxCell><mxCell id="Ymm-aYq7ITdzIqag5qRW-187" value="Nombre varchar(30) not null not null" style="shape=partialRectangle;overflow=hidden;connectable=0;fillColor=none;top=0;left=0;bottom=0;right=0;align=left;spacingLeft=6;" parent="Ymm-aYq7ITdzIqag5qRW-185" vertex="1"><mxGeometry x="30" width="210" height="30" as="geometry"><mxRectangle width="210" height="30" as="alternateBounds"/></mxGeometry></mxCell><mxCell id="Ymm-aYq7ITdzIqag5qRW-188" value="" style="shape=partialRectangle;collapsible=0;dropTarget=0;pointerEvents=0;fillColor=none;points=[[0,0.5],[1,0.5]];portConstraint=eastwest;top=0;left=0;right=0;bottom=0;" parent="Ymm-aYq7ITdzIqag5qRW-181" vertex="1"><mxGeometry y="90" width="240" height="30" as="geometry"/></mxCell><mxCell id="Ymm-aYq7ITdzIqag5qRW-189" value="NE" style="shape=partialRectangle;overflow=hidden;connectable=0;fillColor=none;top=0;left=0;bottom=0;right=0;" parent="Ymm-aYq7ITdzIqag5qRW-188" vertex="1"><mxGeometry width="30" height="30" as="geometry"><mxRectangle width="30" height="30" as="alternateBounds"/></mxGeometry></mxCell><mxCell id="Ymm-aYq7ITdzIqag5qRW-190" value="ApellidoPaterno varchar(30) not null" style="shape=partialRectangle;overflow=hidden;connectable=0;fillColor=none;top=0;left=0;bottom=0;right=0;align=left;spacingLeft=6;" parent="Ymm-aYq7ITdzIqag5qRW-188" vertex="1"><mxGeometry x="30" width="210" height="30" as="geometry"><mxRectangle width="210" height="30" as="alternateBounds"/></mxGeometry></mxCell><mxCell id="Ymm-aYq7ITdzIqag5qRW-191" value="" style="shape=partialRectangle;collapsible=0;dropTarget=0;pointerEvents=0;fillColor=none;points=[[0,0.5],[1,0.5]];portConstraint=eastwest;top=0;left=0;right=0;bottom=0;" parent="Ymm-aYq7ITdzIqag5qRW-181" vertex="1"><mxGeometry y="120" width="240" height="30" as="geometry"/></mxCell><mxCell id="Ymm-aYq7ITdzIqag5qRW-192" value="NE" style="shape=partialRectangle;overflow=hidden;connectable=0;fillColor=none;top=0;left=0;bottom=0;right=0;" parent="Ymm-aYq7ITdzIqag5qRW-191" vertex="1"><mxGeometry width="30" height="30" as="geometry"><mxRectangle width="30" height="30" as="alternateBounds"/></mxGeometry></mxCell><mxCell id="Ymm-aYq7ITdzIqag5qRW-193" value="ApellidoMaterno varchar(30) not null" style="shape=partialRectangle;overflow=hidden;connectable=0;fillColor=none;top=0;left=0;bottom=0;right=0;align=left;spacingLeft=6;" parent="Ymm-aYq7ITdzIqag5qRW-191" vertex="1"><mxGeometry x="30" width="210" height="30" as="geometry"><mxRectangle width="210" height="30" as="alternateBounds"/></mxGeometry></mxCell><mxCell id="Ymm-aYq7ITdzIqag5qRW-194" value="" style="shape=partialRectangle;collapsible=0;dropTarget=0;pointerEvents=0;fillColor=none;points=[[0,0.5],[1,0.5]];portConstraint=eastwest;top=0;left=0;right=0;bottom=0;" parent="Ymm-aYq7ITdzIqag5qRW-181" vertex="1"><mxGeometry y="150" width="240" height="30" as="geometry"/></mxCell><mxCell id="Ymm-aYq7ITdzIqag5qRW-195" value="E" style="shape=partialRectangle;overflow=hidden;connectable=0;fillColor=none;top=0;left=0;bottom=0;right=0;" parent="Ymm-aYq7ITdzIqag5qRW-194" vertex="1"><mxGeometry width="30" height="30" as="geometry"><mxRectangle width="30" height="30" as="alternateBounds"/></mxGeometry></mxCell><mxCell id="Ymm-aYq7ITdzIqag5qRW-196" value="Domicilio varchar(150) not null" style="shape=partialRectangle;overflow=hidden;connectable=0;fillColor=none;top=0;left=0;bottom=0;right=0;align=left;spacingLeft=6;" parent="Ymm-aYq7ITdzIqag5qRW-194" vertex="1"><mxGeometry x="30" width="210" height="30" as="geometry"><mxRectangle width="210" height="30" as="alternateBounds"/></mxGeometry></mxCell><mxCell id="Ymm-aYq7ITdzIqag5qRW-197" value="" style="shape=partialRectangle;collapsible=0;dropTarget=0;pointerEvents=0;fillColor=none;points=[[0,0.5],[1,0.5]];portConstraint=eastwest;top=0;left=0;right=0;bottom=0;" parent="Ymm-aYq7ITdzIqag5qRW-181" vertex="1"><mxGeometry y="180" width="240" height="30" as="geometry"/></mxCell><mxCell id="Ymm-aYq7ITdzIqag5qRW-198" value="E" style="shape=partialRectangle;overflow=hidden;connectable=0;fillColor=none;top=0;left=0;bottom=0;right=0;" parent="Ymm-aYq7ITdzIqag5qRW-197" vertex="1"><mxGeometry width="30" height="30" as="geometry"><mxRectangle width="30" height="30" as="alternateBounds"/></mxGeometry></mxCell><mxCell id="Ymm-aYq7ITdzIqag5qRW-199" value="Username varchar(20) not null" style="shape=partialRectangle;overflow=hidden;connectable=0;fillColor=none;top=0;left=0;bottom=0;right=0;align=left;spacingLeft=6;" parent="Ymm-aYq7ITdzIqag5qRW-197" vertex="1"><mxGeometry x="30" width="210" height="30" as="geometry"><mxRectangle width="210" height="30" as="alternateBounds"/></mxGeometry></mxCell><mxCell id="Ymm-aYq7ITdzIqag5qRW-200" value="" style="shape=partialRectangle;collapsible=0;dropTarget=0;pointerEvents=0;fillColor=none;points=[[0,0.5],[1,0.5]];portConstraint=eastwest;top=0;left=0;right=0;bottom=0;" parent="Ymm-aYq7ITdzIqag5qRW-181" vertex="1"><mxGeometry y="210" width="240" height="30" as="geometry"/></mxCell><mxCell id="Ymm-aYq7ITdzIqag5qRW-201" value="E" style="shape=partialRectangle;overflow=hidden;connectable=0;fillColor=none;top=0;left=0;bottom=0;right=0;" parent="Ymm-aYq7ITdzIqag5qRW-200" vertex="1"><mxGeometry width="30" height="30" as="geometry"><mxRectangle width="30" height="30" as="alternateBounds"/></mxGeometry></mxCell><mxCell id="Ymm-aYq7ITdzIqag5qRW-202" value="Password varchar(15) not null" style="shape=partialRectangle;overflow=hidden;connectable=0;fillColor=none;top=0;left=0;bottom=0;right=0;align=left;spacingLeft=6;" parent="Ymm-aYq7ITdzIqag5qRW-200" vertex="1"><mxGeometry x="30" width="210" height="30" as="geometry"><mxRectangle width="210" height="30" as="alternateBounds"/></mxGeometry></mxCell><mxCell id="Ymm-aYq7ITdzIqag5qRW-203" value="" style="shape=partialRectangle;collapsible=0;dropTarget=0;pointerEvents=0;fillColor=none;points=[[0,0.5],[1,0.5]];portConstraint=eastwest;top=0;left=0;right=0;bottom=0;" parent="Ymm-aYq7ITdzIqag5qRW-181" vertex="1"><mxGeometry y="240" width="240" height="30" as="geometry"/></mxCell><mxCell id="Ymm-aYq7ITdzIqag5qRW-204" value="NE" style="shape=partialRectangle;overflow=hidden;connectable=0;fillColor=none;top=0;left=0;bottom=0;right=0;" parent="Ymm-aYq7ITdzIqag5qRW-203" vertex="1"><mxGeometry width="30" height="30" as="geometry"><mxRectangle width="30" height="30" as="alternateBounds"/></mxGeometry></mxCell><mxCell id="Ymm-aYq7ITdzIqag5qRW-205" value="FechaNacimiento datetime not null" style="shape=partialRectangle;overflow=hidden;connectable=0;fillColor=none;top=0;left=0;bottom=0;right=0;align=left;spacingLeft=6;" parent="Ymm-aYq7ITdzIqag5qRW-203" vertex="1"><mxGeometry x="30" width="210" height="30" as="geometry"><mxRectangle width="210" height="30" as="alternateBounds"/></mxGeometry></mxCell><mxCell id="Ymm-aYq7ITdzIqag5qRW-206" value="" style="shape=partialRectangle;collapsible=0;dropTarget=0;pointerEvents=0;fillColor=none;points=[[0,0.5],[1,0.5]];portConstraint=eastwest;top=0;left=0;right=0;bottom=0;" parent="Ymm-aYq7ITdzIqag5qRW-181" vertex="1"><mxGeometry y="270" width="240" height="30" as="geometry"/></mxCell><mxCell id="Ymm-aYq7ITdzIqag5qRW-207" value="E" style="shape=partialRectangle;overflow=hidden;connectable=0;fillColor=none;top=0;left=0;bottom=0;right=0;" parent="Ymm-aYq7ITdzIqag5qRW-206" vertex="1"><mxGeometry width="30" height="30" as="geometry"><mxRectangle width="30" height="30" as="alternateBounds"/></mxGeometry></mxCell><mxCell id="Ymm-aYq7ITdzIqag5qRW-208" value="Telefono varchar(10) unique not null" style="shape=partialRectangle;overflow=hidden;connectable=0;fillColor=none;top=0;left=0;bottom=0;right=0;align=left;spacingLeft=6;" parent="Ymm-aYq7ITdzIqag5qRW-206" vertex="1"><mxGeometry x="30" width="210" height="30" as="geometry"><mxRectangle width="210" height="30" as="alternateBounds"/></mxGeometry></mxCell><mxCell id="Ymm-aYq7ITdzIqag5qRW-212" value="" style="shape=partialRectangle;collapsible=0;dropTarget=0;pointerEvents=0;fillColor=none;points=[[0,0.5],[1,0.5]];portConstraint=eastwest;top=0;left=0;right=0;bottom=0;" parent="Ymm-aYq7ITdzIqag5qRW-181" vertex="1"><mxGeometry y="300" width="240" height="30" as="geometry"/></mxCell><mxCell id="Ymm-aYq7ITdzIqag5qRW-213" value="E" style="shape=partialRectangle;overflow=hidden;connectable=0;fillColor=none;top=0;left=0;bottom=0;right=0;" parent="Ymm-aYq7ITdzIqag5qRW-212" vertex="1"><mxGeometry width="30" height="30" as="geometry"><mxRectangle width="30" height="30" as="alternateBounds"/></mxGeometry></mxCell><mxCell id="Ymm-aYq7ITdzIqag5qRW-214" value="NombreContacto varchar(30)" style="shape=partialRectangle;overflow=hidden;connectable=0;fillColor=none;top=0;left=0;bottom=0;right=0;align=left;spacingLeft=6;" parent="Ymm-aYq7ITdzIqag5qRW-212" vertex="1"><mxGeometry x="30" width="210" height="30" as="geometry"><mxRectangle width="210" height="30" as="alternateBounds"/></mxGeometry></mxCell><mxCell id="Ymm-aYq7ITdzIqag5qRW-215" value="" style="shape=partialRectangle;collapsible=0;dropTarget=0;pointerEvents=0;fillColor=none;points=[[0,0.5],[1,0.5]];portConstraint=eastwest;top=0;left=0;right=0;bottom=0;" parent="Ymm-aYq7ITdzIqag5qRW-181" vertex="1"><mxGeometry y="330" width="240" height="30" as="geometry"/></mxCell><mxCell id="Ymm-aYq7ITdzIqag5qRW-216" value="E" style="shape=partialRectangle;overflow=hidden;connectable=0;fillColor=none;top=0;left=0;bottom=0;right=0;" parent="Ymm-aYq7ITdzIqag5qRW-215" vertex="1"><mxGeometry width="30" height="30" as="geometry"><mxRectangle width="30" height="30" as="alternateBounds"/></mxGeometry></mxCell><mxCell id="Ymm-aYq7ITdzIqag5qRW-217" value="TelefonoContacto varchar(10)" style="shape=partialRectangle;overflow=hidden;connectable=0;fillColor=none;top=0;left=0;bottom=0;right=0;align=left;spacingLeft=6;" parent="Ymm-aYq7ITdzIqag5qRW-215" vertex="1"><mxGeometry x="30" width="210" height="30" as="geometry"><mxRectangle width="210" height="30" as="alternateBounds"/></mxGeometry></mxCell><mxCell id="Ymm-aYq7ITdzIqag5qRW-218" value="" style="shape=partialRectangle;collapsible=0;dropTarget=0;pointerEvents=0;fillColor=none;points=[[0,0.5],[1,0.5]];portConstraint=eastwest;top=0;left=0;right=0;bottom=0;" parent="Ymm-aYq7ITdzIqag5qRW-181" vertex="1"><mxGeometry y="360" width="240" height="30" as="geometry"/></mxCell><mxCell id="Ymm-aYq7ITdzIqag5qRW-219" value="E" style="shape=partialRectangle;overflow=hidden;connectable=0;fillColor=none;top=0;left=0;bottom=0;right=0;" parent="Ymm-aYq7ITdzIqag5qRW-218" vertex="1"><mxGeometry width="30" height="30" as="geometry"><mxRectangle width="30" height="30" as="alternateBounds"/></mxGeometry></mxCell><mxCell id="Ymm-aYq7ITdzIqag5qRW-220" value="Foto blob" style="shape=partialRectangle;overflow=hidden;connectable=0;fillColor=none;top=0;left=0;bottom=0;right=0;align=left;spacingLeft=6;" parent="Ymm-aYq7ITdzIqag5qRW-218" vertex="1"><mxGeometry x="30" width="210" height="30" as="geometry"><mxRectangle width="210" height="30" as="alternateBounds"/></mxGeometry></mxCell><mxCell id="Ymm-aYq7ITdzIqag5qRW-221" value="" style="shape=partialRectangle;collapsible=0;dropTarget=0;pointerEvents=0;fillColor=none;points=[[0,0.5],[1,0.5]];portConstraint=eastwest;top=0;left=0;right=0;bottom=0;" parent="Ymm-aYq7ITdzIqag5qRW-181" vertex="1"><mxGeometry y="390" width="240" height="30" as="geometry"/></mxCell><mxCell id="Ymm-aYq7ITdzIqag5qRW-222" value="A" style="shape=partialRectangle;overflow=hidden;connectable=0;fillColor=none;top=0;left=0;bottom=0;right=0;" parent="Ymm-aYq7ITdzIqag5qRW-221" vertex="1"><mxGeometry width="30" height="30" as="geometry"><mxRectangle width="30" height="30" as="alternateBounds"/></mxGeometry></mxCell><mxCell id="Ymm-aYq7ITdzIqag5qRW-223" value="FechaUltimoAcceso datetime" style="shape=partialRectangle;overflow=hidden;connectable=0;fillColor=none;top=0;left=0;bottom=0;right=0;align=left;spacingLeft=6;" parent="Ymm-aYq7ITdzIqag5qRW-221" vertex="1"><mxGeometry x="30" width="210" height="30" as="geometry"><mxRectangle width="210" height="30" as="alternateBounds"/></mxGeometry></mxCell><mxCell id="Ymm-aYq7ITdzIqag5qRW-224" value="" style="shape=partialRectangle;collapsible=0;dropTarget=0;pointerEvents=0;fillColor=none;points=[[0,0.5],[1,0.5]];portConstraint=eastwest;top=0;left=0;right=0;bottom=0;" parent="Ymm-aYq7ITdzIqag5qRW-181" vertex="1"><mxGeometry y="420" width="240" height="30" as="geometry"/></mxCell><mxCell id="Ymm-aYq7ITdzIqag5qRW-225" value="A" style="shape=partialRectangle;overflow=hidden;connectable=0;fillColor=none;top=0;left=0;bottom=0;right=0;" parent="Ymm-aYq7ITdzIqag5qRW-224" vertex="1"><mxGeometry width="30" height="30" as="geometry"><mxRectangle width="30" height="30" as="alternateBounds"/></mxGeometry></mxCell><mxCell id="Ymm-aYq7ITdzIqag5qRW-226" value="FechaUltimoPago datetime" style="shape=partialRectangle;overflow=hidden;connectable=0;fillColor=none;top=0;left=0;bottom=0;right=0;align=left;spacingLeft=6;" parent="Ymm-aYq7ITdzIqag5qRW-224" vertex="1"><mxGeometry x="30" width="210" height="30" as="geometry"><mxRectangle width="210" height="30" as="alternateBounds"/></mxGeometry></mxCell><mxCell id="Ymm-aYq7ITdzIqag5qRW-227" value="" style="shape=partialRectangle;collapsible=0;dropTarget=0;pointerEvents=0;fillColor=none;points=[[0,0.5],[1,0.5]];portConstraint=eastwest;top=0;left=0;right=0;bottom=0;" parent="Ymm-aYq7ITdzIqag5qRW-181" vertex="1"><mxGeometry y="450" width="240" height="30" as="geometry"/></mxCell><mxCell id="Ymm-aYq7ITdzIqag5qRW-228" value="A" style="shape=partialRectangle;overflow=hidden;connectable=0;fillColor=none;top=0;left=0;bottom=0;right=0;" parent="Ymm-aYq7ITdzIqag5qRW-227" vertex="1"><mxGeometry width="30" height="30" as="geometry"><mxRectangle width="30" height="30" as="alternateBounds"/></mxGeometry></mxCell><mxCell id="Ymm-aYq7ITdzIqag5qRW-229" value="MontoUltimoPago decimal" style="shape=partialRectangle;overflow=hidden;connectable=0;fillColor=none;top=0;left=0;bottom=0;right=0;align=left;spacingLeft=6;" parent="Ymm-aYq7ITdzIqag5qRW-227" vertex="1"><mxGeometry x="30" width="210" height="30" as="geometry"><mxRectangle width="210" height="30" as="alternateBounds"/></mxGeometry></mxCell><mxCell id="GaDGt6suyq1HcxVyRxbL-0" value="Clase" style="shape=table;startSize=30;container=1;collapsible=1;childLayout=tableLayout;fixedRows=1;rowLines=0;fontStyle=1;align=center;resizeLast=1;" parent="EBrFU-9Dl6ynX_BoGAA2-1" vertex="1"><mxGeometry x="1200" y="130" width="240" height="250" as="geometry"/></mxCell><mxCell id="GaDGt6suyq1HcxVyRxbL-1" value="" style="shape=partialRectangle;collapsible=0;dropTarget=0;pointerEvents=0;fillColor=none;points=[[0,0.5],[1,0.5]];portConstraint=eastwest;top=0;left=0;right=0;bottom=1;" parent="GaDGt6suyq1HcxVyRxbL-0" vertex="1"><mxGeometry y="30" width="240" height="30" as="geometry"/></mxCell><mxCell id="GaDGt6suyq1HcxVyRxbL-2" value="A" style="shape=partialRectangle;overflow=hidden;connectable=0;fillColor=none;top=0;left=0;bottom=0;right=0;fontStyle=1;" parent="GaDGt6suyq1HcxVyRxbL-1" vertex="1"><mxGeometry width="30" height="30" as="geometry"><mxRectangle width="30" height="30" as="alternateBounds"/></mxGeometry></mxCell><mxCell id="GaDGt6suyq1HcxVyRxbL-3" value="IdClase int auto_increment " style="shape=partialRectangle;overflow=hidden;connectable=0;fillColor=none;top=0;left=0;bottom=0;right=0;align=left;spacingLeft=6;fontStyle=5;" parent="GaDGt6suyq1HcxVyRxbL-1" vertex="1"><mxGeometry x="30" width="210" height="30" as="geometry"><mxRectangle width="210" height="30" as="alternateBounds"/></mxGeometry></mxCell><mxCell id="GaDGt6suyq1HcxVyRxbL-4" value="" style="shape=partialRectangle;collapsible=0;dropTarget=0;pointerEvents=0;fillColor=none;points=[[0,0.5],[1,0.5]];portConstraint=eastwest;top=0;left=0;right=0;bottom=0;" parent="GaDGt6suyq1HcxVyRxbL-0" vertex="1"><mxGeometry y="60" width="240" height="30" as="geometry"/></mxCell><mxCell id="GaDGt6suyq1HcxVyRxbL-5" value="NE" style="shape=partialRectangle;overflow=hidden;connectable=0;fillColor=none;top=0;left=0;bottom=0;right=0;" parent="GaDGt6suyq1HcxVyRxbL-4" vertex="1"><mxGeometry width="30" height="30" as="geometry"><mxRectangle width="30" height="30" as="alternateBounds"/></mxGeometry></mxCell><mxCell id="GaDGt6suyq1HcxVyRxbL-6" value="NombreClase varchar(50) not null" style="shape=partialRectangle;overflow=hidden;connectable=0;fillColor=none;top=0;left=0;bottom=0;right=0;align=left;spacingLeft=6;" parent="GaDGt6suyq1HcxVyRxbL-4" vertex="1"><mxGeometry x="30" width="210" height="30" as="geometry"><mxRectangle width="210" height="30" as="alternateBounds"/></mxGeometry></mxCell><mxCell id="GaDGt6suyq1HcxVyRxbL-7" value="" style="shape=partialRectangle;collapsible=0;dropTarget=0;pointerEvents=0;fillColor=none;points=[[0,0.5],[1,0.5]];portConstraint=eastwest;top=0;left=0;right=0;bottom=0;" parent="GaDGt6suyq1HcxVyRxbL-0" vertex="1"><mxGeometry y="90" width="240" height="30" as="geometry"/></mxCell><mxCell id="GaDGt6suyq1HcxVyRxbL-8" value="NE" style="shape=partialRectangle;overflow=hidden;connectable=0;fillColor=none;top=0;left=0;bottom=0;right=0;" parent="GaDGt6suyq1HcxVyRxbL-7" vertex="1"><mxGeometry width="30" height="30" as="geometry"><mxRectangle width="30" height="30" as="alternateBounds"/></mxGeometry></mxCell><mxCell id="GaDGt6suyq1HcxVyRxbL-9" value="Descripcion varchar(500) not null" style="shape=partialRectangle;overflow=hidden;connectable=0;fillColor=none;top=0;left=0;bottom=0;right=0;align=left;spacingLeft=6;" parent="GaDGt6suyq1HcxVyRxbL-7" vertex="1"><mxGeometry x="30" width="210" height="30" as="geometry"><mxRectangle width="210" height="30" as="alternateBounds"/></mxGeometry></mxCell><mxCell id="GaDGt6suyq1HcxVyRxbL-10" value="" style="shape=partialRectangle;collapsible=0;dropTarget=0;pointerEvents=0;fillColor=none;points=[[0,0.5],[1,0.5]];portConstraint=eastwest;top=0;left=0;right=0;bottom=0;" parent="GaDGt6suyq1HcxVyRxbL-0" vertex="1"><mxGeometry y="120" width="240" height="30" as="geometry"/></mxCell><mxCell id="GaDGt6suyq1HcxVyRxbL-11" value="E" style="shape=partialRectangle;overflow=hidden;connectable=0;fillColor=none;top=0;left=0;bottom=0;right=0;" parent="GaDGt6suyq1HcxVyRxbL-10" vertex="1"><mxGeometry width="30" height="30" as="geometry"><mxRectangle width="30" height="30" as="alternateBounds"/></mxGeometry></mxCell><mxCell id="GaDGt6suyq1HcxVyRxbL-12" value="CupoMaximo int not null" style="shape=partialRectangle;overflow=hidden;connectable=0;fillColor=none;top=0;left=0;bottom=0;right=0;align=left;spacingLeft=6;" parent="GaDGt6suyq1HcxVyRxbL-10" vertex="1"><mxGeometry x="30" width="210" height="30" as="geometry"><mxRectangle width="210" height="30" as="alternateBounds"/></mxGeometry></mxCell><mxCell id="GaDGt6suyq1HcxVyRxbL-13" value="" style="shape=partialRectangle;collapsible=0;dropTarget=0;pointerEvents=0;fillColor=none;points=[[0,0.5],[1,0.5]];portConstraint=eastwest;top=0;left=0;right=0;bottom=0;" parent="GaDGt6suyq1HcxVyRxbL-0" vertex="1"><mxGeometry y="150" width="240" height="30" as="geometry"/></mxCell><mxCell id="GaDGt6suyq1HcxVyRxbL-14" value="E" style="shape=partialRectangle;overflow=hidden;connectable=0;fillColor=none;top=0;left=0;bottom=0;right=0;" parent="GaDGt6suyq1HcxVyRxbL-13" vertex="1"><mxGeometry width="30" height="30" as="geometry"><mxRectangle width="30" height="30" as="alternateBounds"/></mxGeometry></mxCell><mxCell id="GaDGt6suyq1HcxVyRxbL-15" value="Activo bool not null" style="shape=partialRectangle;overflow=hidden;connectable=0;fillColor=none;top=0;left=0;bottom=0;right=0;align=left;spacingLeft=6;" parent="GaDGt6suyq1HcxVyRxbL-13" vertex="1"><mxGeometry x="30" width="210" height="30" as="geometry"><mxRectangle width="210" height="30" as="alternateBounds"/></mxGeometry></mxCell><mxCell id="GaDGt6suyq1HcxVyRxbL-16" value="" style="shape=partialRectangle;collapsible=0;dropTarget=0;pointerEvents=0;fillColor=none;points=[[0,0.5],[1,0.5]];portConstraint=eastwest;top=0;left=0;right=0;bottom=0;" parent="GaDGt6suyq1HcxVyRxbL-0" vertex="1"><mxGeometry y="180" width="240" height="30" as="geometry"/></mxCell><mxCell id="GaDGt6suyq1HcxVyRxbL-17" value="E" style="shape=partialRectangle;overflow=hidden;connectable=0;fillColor=none;top=0;left=0;bottom=0;right=0;" parent="GaDGt6suyq1HcxVyRxbL-16" vertex="1"><mxGeometry width="30" height="30" as="geometry"><mxRectangle width="30" height="30" as="alternateBounds"/></mxGeometry></mxCell><mxCell id="GaDGt6suyq1HcxVyRxbL-18" value="IdInstructor int not null" style="shape=partialRectangle;overflow=hidden;connectable=0;fillColor=none;top=0;left=0;bottom=0;right=0;align=left;spacingLeft=6;" parent="GaDGt6suyq1HcxVyRxbL-16" vertex="1"><mxGeometry x="30" width="210" height="30" as="geometry"><mxRectangle width="210" height="30" as="alternateBounds"/></mxGeometry></mxCell><mxCell id="GaDGt6suyq1HcxVyRxbL-22" value="" style="shape=partialRectangle;collapsible=0;dropTarget=0;pointerEvents=0;fillColor=none;points=[[0,0.5],[1,0.5]];portConstraint=eastwest;top=0;left=0;right=0;bottom=0;" parent="GaDGt6suyq1HcxVyRxbL-0" vertex="1"><mxGeometry y="210" width="240" height="30" as="geometry"/></mxCell><mxCell id="GaDGt6suyq1HcxVyRxbL-23" value="E" style="shape=partialRectangle;overflow=hidden;connectable=0;fillColor=none;top=0;left=0;bottom=0;right=0;" parent="GaDGt6suyq1HcxVyRxbL-22" vertex="1"><mxGeometry width="30" height="30" as="geometry"><mxRectangle width="30" height="30" as="alternateBounds"/></mxGeometry></mxCell><mxCell id="GaDGt6suyq1HcxVyRxbL-24" value="IdEspacio int" style="shape=partialRectangle;overflow=hidden;connectable=0;fillColor=none;top=0;left=0;bottom=0;right=0;align=left;spacingLeft=6;" parent="GaDGt6suyq1HcxVyRxbL-22" vertex="1"><mxGeometry x="30" width="210" height="30" as="geometry"><mxRectangle width="210" height="30" as="alternateBounds"/></mxGeometry></mxCell><mxCell id="GaDGt6suyq1HcxVyRxbL-28" value="Paquete" style="shape=table;startSize=30;container=1;collapsible=1;childLayout=tableLayout;fixedRows=1;rowLines=0;fontStyle=1;align=center;resizeLast=1;" parent="EBrFU-9Dl6ynX_BoGAA2-1" vertex="1"><mxGeometry x="1200" y="400" width="220" height="250" as="geometry"/></mxCell><mxCell id="GaDGt6suyq1HcxVyRxbL-29" value="" style="shape=partialRectangle;collapsible=0;dropTarget=0;pointerEvents=0;fillColor=none;points=[[0,0.5],[1,0.5]];portConstraint=eastwest;top=0;left=0;right=0;bottom=1;" parent="GaDGt6suyq1HcxVyRxbL-28" vertex="1"><mxGeometry y="30" width="220" height="30" as="geometry"/></mxCell><mxCell id="GaDGt6suyq1HcxVyRxbL-30" value="A" style="shape=partialRectangle;overflow=hidden;connectable=0;fillColor=none;top=0;left=0;bottom=0;right=0;fontStyle=1;" parent="GaDGt6suyq1HcxVyRxbL-29" vertex="1"><mxGeometry width="30" height="30" as="geometry"><mxRectangle width="30" height="30" as="alternateBounds"/></mxGeometry></mxCell><mxCell id="GaDGt6suyq1HcxVyRxbL-31" value="IdPaquete int auto_increment " style="shape=partialRectangle;overflow=hidden;connectable=0;fillColor=none;top=0;left=0;bottom=0;right=0;align=left;spacingLeft=6;fontStyle=5;" parent="GaDGt6suyq1HcxVyRxbL-29" vertex="1"><mxGeometry x="30" width="190" height="30" as="geometry"><mxRectangle width="190" height="30" as="alternateBounds"/></mxGeometry></mxCell><mxCell id="GaDGt6suyq1HcxVyRxbL-32" value="" style="shape=partialRectangle;collapsible=0;dropTarget=0;pointerEvents=0;fillColor=none;points=[[0,0.5],[1,0.5]];portConstraint=eastwest;top=0;left=0;right=0;bottom=0;" parent="GaDGt6suyq1HcxVyRxbL-28" vertex="1"><mxGeometry y="60" width="220" height="30" as="geometry"/></mxCell><mxCell id="GaDGt6suyq1HcxVyRxbL-33" value="E" style="shape=partialRectangle;overflow=hidden;connectable=0;fillColor=none;top=0;left=0;bottom=0;right=0;" parent="GaDGt6suyq1HcxVyRxbL-32" vertex="1"><mxGeometry width="30" height="30" as="geometry"><mxRectangle width="30" height="30" as="alternateBounds"/></mxGeometry></mxCell><mxCell id="GaDGt6suyq1HcxVyRxbL-34" value="Gym bool not null" style="shape=partialRectangle;overflow=hidden;connectable=0;fillColor=none;top=0;left=0;bottom=0;right=0;align=left;spacingLeft=6;" parent="GaDGt6suyq1HcxVyRxbL-32" vertex="1"><mxGeometry x="30" width="190" height="30" as="geometry"><mxRectangle width="190" height="30" as="alternateBounds"/></mxGeometry></mxCell><mxCell id="GaDGt6suyq1HcxVyRxbL-35" value="" style="shape=partialRectangle;collapsible=0;dropTarget=0;pointerEvents=0;fillColor=none;points=[[0,0.5],[1,0.5]];portConstraint=eastwest;top=0;left=0;right=0;bottom=0;" parent="GaDGt6suyq1HcxVyRxbL-28" vertex="1"><mxGeometry y="90" width="220" height="30" as="geometry"/></mxCell><mxCell id="GaDGt6suyq1HcxVyRxbL-36" value="E" style="shape=partialRectangle;overflow=hidden;connectable=0;fillColor=none;top=0;left=0;bottom=0;right=0;" parent="GaDGt6suyq1HcxVyRxbL-35" vertex="1"><mxGeometry width="30" height="30" as="geometry"><mxRectangle width="30" height="30" as="alternateBounds"/></mxGeometry></mxCell><mxCell id="GaDGt6suyq1HcxVyRxbL-37" value="NombrePaquete varchar(100)" style="shape=partialRectangle;overflow=hidden;connectable=0;fillColor=none;top=0;left=0;bottom=0;right=0;align=left;spacingLeft=6;" parent="GaDGt6suyq1HcxVyRxbL-35" vertex="1"><mxGeometry x="30" width="190" height="30" as="geometry"><mxRectangle width="190" height="30" as="alternateBounds"/></mxGeometry></mxCell><mxCell id="GaDGt6suyq1HcxVyRxbL-38" value="" style="shape=partialRectangle;collapsible=0;dropTarget=0;pointerEvents=0;fillColor=none;points=[[0,0.5],[1,0.5]];portConstraint=eastwest;top=0;left=0;right=0;bottom=0;" parent="GaDGt6suyq1HcxVyRxbL-28" vertex="1"><mxGeometry y="120" width="220" height="30" as="geometry"/></mxCell><mxCell id="GaDGt6suyq1HcxVyRxbL-39" value="E" style="shape=partialRectangle;overflow=hidden;connectable=0;fillColor=none;top=0;left=0;bottom=0;right=0;" parent="GaDGt6suyq1HcxVyRxbL-38" vertex="1"><mxGeometry width="30" height="30" as="geometry"><mxRectangle width="30" height="30" as="alternateBounds"/></mxGeometry></mxCell><mxCell id="GaDGt6suyq1HcxVyRxbL-40" value="NumClasesTotales int" style="shape=partialRectangle;overflow=hidden;connectable=0;fillColor=none;top=0;left=0;bottom=0;right=0;align=left;spacingLeft=6;" parent="GaDGt6suyq1HcxVyRxbL-38" vertex="1"><mxGeometry x="30" width="190" height="30" as="geometry"><mxRectangle width="190" height="30" as="alternateBounds"/></mxGeometry></mxCell><mxCell id="GaDGt6suyq1HcxVyRxbL-41" value="" style="shape=partialRectangle;collapsible=0;dropTarget=0;pointerEvents=0;fillColor=none;points=[[0,0.5],[1,0.5]];portConstraint=eastwest;top=0;left=0;right=0;bottom=0;" parent="GaDGt6suyq1HcxVyRxbL-28" vertex="1"><mxGeometry y="150" width="220" height="30" as="geometry"/></mxCell><mxCell id="GaDGt6suyq1HcxVyRxbL-42" value="E" style="shape=partialRectangle;overflow=hidden;connectable=0;fillColor=none;top=0;left=0;bottom=0;right=0;" parent="GaDGt6suyq1HcxVyRxbL-41" vertex="1"><mxGeometry width="30" height="30" as="geometry"><mxRectangle width="30" height="30" as="alternateBounds"/></mxGeometry></mxCell><mxCell id="GaDGt6suyq1HcxVyRxbL-43" value="NumClasesSemanales int" style="shape=partialRectangle;overflow=hidden;connectable=0;fillColor=none;top=0;left=0;bottom=0;right=0;align=left;spacingLeft=6;" parent="GaDGt6suyq1HcxVyRxbL-41" vertex="1"><mxGeometry x="30" width="190" height="30" as="geometry"><mxRectangle width="190" height="30" as="alternateBounds"/></mxGeometry></mxCell><mxCell id="GaDGt6suyq1HcxVyRxbL-44" value="" style="shape=partialRectangle;collapsible=0;dropTarget=0;pointerEvents=0;fillColor=none;points=[[0,0.5],[1,0.5]];portConstraint=eastwest;top=0;left=0;right=0;bottom=0;" parent="GaDGt6suyq1HcxVyRxbL-28" vertex="1"><mxGeometry y="180" width="220" height="30" as="geometry"/></mxCell><mxCell id="GaDGt6suyq1HcxVyRxbL-45" value="E" style="shape=partialRectangle;overflow=hidden;connectable=0;fillColor=none;top=0;left=0;bottom=0;right=0;" parent="GaDGt6suyq1HcxVyRxbL-44" vertex="1"><mxGeometry width="30" height="30" as="geometry"><mxRectangle width="30" height="30" as="alternateBounds"/></mxGeometry></mxCell><mxCell id="GaDGt6suyq1HcxVyRxbL-46" value="Costo decimal not null" style="shape=partialRectangle;overflow=hidden;connectable=0;fillColor=none;top=0;left=0;bottom=0;right=0;align=left;spacingLeft=6;" parent="GaDGt6suyq1HcxVyRxbL-44" vertex="1"><mxGeometry x="30" width="190" height="30" as="geometry"><mxRectangle width="190" height="30" as="alternateBounds"/></mxGeometry></mxCell><mxCell id="GaDGt6suyq1HcxVyRxbL-47" value="" style="shape=partialRectangle;collapsible=0;dropTarget=0;pointerEvents=0;fillColor=none;points=[[0,0.5],[1,0.5]];portConstraint=eastwest;top=0;left=0;right=0;bottom=0;" parent="GaDGt6suyq1HcxVyRxbL-28" vertex="1"><mxGeometry y="210" width="220" height="30" as="geometry"/></mxCell><mxCell id="GaDGt6suyq1HcxVyRxbL-48" value="E" style="shape=partialRectangle;overflow=hidden;connectable=0;fillColor=none;top=0;left=0;bottom=0;right=0;" parent="GaDGt6suyq1HcxVyRxbL-47" vertex="1"><mxGeometry width="30" height="30" as="geometry"><mxRectangle width="30" height="30" as="alternateBounds"/></mxGeometry></mxCell><mxCell id="GaDGt6suyq1HcxVyRxbL-49" value="IdClase int" style="shape=partialRectangle;overflow=hidden;connectable=0;fillColor=none;top=0;left=0;bottom=0;right=0;align=left;spacingLeft=6;" parent="GaDGt6suyq1HcxVyRxbL-47" vertex="1"><mxGeometry x="30" width="190" height="30" as="geometry"><mxRectangle width="190" height="30" as="alternateBounds"/></mxGeometry></mxCell><mxCell id="Cotqr3HOPcQXCwlGwic2-0" value="Espacio" style="shape=table;startSize=30;container=1;collapsible=1;childLayout=tableLayout;fixedRows=1;rowLines=0;fontStyle=1;align=center;resizeLast=1;" parent="EBrFU-9Dl6ynX_BoGAA2-1" vertex="1"><mxGeometry x="1200" y="680" width="220" height="130" as="geometry"/></mxCell><mxCell id="Cotqr3HOPcQXCwlGwic2-1" value="" style="shape=partialRectangle;collapsible=0;dropTarget=0;pointerEvents=0;fillColor=none;points=[[0,0.5],[1,0.5]];portConstraint=eastwest;top=0;left=0;right=0;bottom=1;" parent="Cotqr3HOPcQXCwlGwic2-0" vertex="1"><mxGeometry y="30" width="220" height="30" as="geometry"/></mxCell><mxCell id="Cotqr3HOPcQXCwlGwic2-2" value="A" style="shape=partialRectangle;overflow=hidden;connectable=0;fillColor=none;top=0;left=0;bottom=0;right=0;fontStyle=1;" parent="Cotqr3HOPcQXCwlGwic2-1" vertex="1"><mxGeometry width="30" height="30" as="geometry"/></mxCell><mxCell id="Cotqr3HOPcQXCwlGwic2-3" value="IdEspacio int auto_increment " style="shape=partialRectangle;overflow=hidden;connectable=0;fillColor=none;top=0;left=0;bottom=0;right=0;align=left;spacingLeft=6;fontStyle=5;" parent="Cotqr3HOPcQXCwlGwic2-1" vertex="1"><mxGeometry x="30" width="190" height="30" as="geometry"/></mxCell><mxCell id="Cotqr3HOPcQXCwlGwic2-4" value="" style="shape=partialRectangle;collapsible=0;dropTarget=0;pointerEvents=0;fillColor=none;points=[[0,0.5],[1,0.5]];portConstraint=eastwest;top=0;left=0;right=0;bottom=0;" parent="Cotqr3HOPcQXCwlGwic2-0" vertex="1"><mxGeometry y="60" width="220" height="30" as="geometry"/></mxCell><mxCell id="Cotqr3HOPcQXCwlGwic2-5" value="E" style="shape=partialRectangle;overflow=hidden;connectable=0;fillColor=none;top=0;left=0;bottom=0;right=0;" parent="Cotqr3HOPcQXCwlGwic2-4" vertex="1"><mxGeometry width="30" height="30" as="geometry"/></mxCell><mxCell id="Cotqr3HOPcQXCwlGwic2-6" value="NombreEspacio varchar(100)" style="shape=partialRectangle;overflow=hidden;connectable=0;fillColor=none;top=0;left=0;bottom=0;right=0;align=left;spacingLeft=6;" parent="Cotqr3HOPcQXCwlGwic2-4" vertex="1"><mxGeometry x="30" width="190" height="30" as="geometry"/></mxCell><mxCell id="Cotqr3HOPcQXCwlGwic2-7" value="" style="shape=partialRectangle;collapsible=0;dropTarget=0;pointerEvents=0;fillColor=none;points=[[0,0.5],[1,0.5]];portConstraint=eastwest;top=0;left=0;right=0;bottom=0;" parent="Cotqr3HOPcQXCwlGwic2-0" vertex="1"><mxGeometry y="90" width="220" height="30" as="geometry"/></mxCell><mxCell id="Cotqr3HOPcQXCwlGwic2-8" value="E" style="shape=partialRectangle;overflow=hidden;connectable=0;fillColor=none;top=0;left=0;bottom=0;right=0;" parent="Cotqr3HOPcQXCwlGwic2-7" vertex="1"><mxGeometry width="30" height="30" as="geometry"/></mxCell><mxCell id="Cotqr3HOPcQXCwlGwic2-9" value="Descripcion varchar(2000)" style="shape=partialRectangle;overflow=hidden;connectable=0;fillColor=none;top=0;left=0;bottom=0;right=0;align=left;spacingLeft=6;" parent="Cotqr3HOPcQXCwlGwic2-7" vertex="1"><mxGeometry x="30" width="190" height="30" as="geometry"/></mxCell></root></mxGraphModel></diagram></mxfile>